# Blender v2.79 (sub 0) OBJ File: ''
# www.blender.org
mtllib broad sword.mtl
o broad_sword_broadsword2
v -0.686500 0.269800 -6.567100
v -1.509400 -0.199100 -6.946400
v -0.686500 -0.269800 -6.567100
v -1.509400 0.199100 -6.946400
v -2.287500 0.000000 -7.044000
v -3.446300 -0.168700 4.591700
v -3.442900 0.168700 4.341200
v -3.442900 -0.168700 4.341200
v -3.446300 0.168700 4.591700
v -0.558300 0.526100 4.221800
v -2.362700 -0.213200 4.493100
v -0.558300 -0.526100 4.221800
v -2.362700 0.213200 4.493100
v -3.128200 -0.168700 4.867300
v -3.128200 0.168700 4.867300
v 3.446300 -0.168700 4.591700
v 3.442900 0.168700 4.341200
v 3.446300 0.168700 4.591700
v 3.442900 -0.168700 4.341200
v 0.000000 0.548500 4.893100
v 0.000000 -0.548500 4.893100
v -3.272600 -0.168700 4.232600
v -3.272600 0.168700 4.232600
v 3.272600 -0.168700 4.232600
v 3.272600 0.168700 4.232600
v 0.558300 -0.526100 4.221800
v 0.558300 0.526100 4.221800
v -0.872900 -0.335100 3.892100
v -0.872900 0.335100 3.892100
v 0.686500 -0.269800 -6.567100
v 0.872900 0.335100 3.892100
v 0.872900 -0.335100 3.892100
v 0.686500 0.269800 -6.567100
v 0.782300 0.000000 28.317900
v -0.031500 -0.260700 27.420601
v 1.182700 0.000000 26.296801
v -0.031500 0.000000 30.338900
v -0.845300 0.000000 28.317900
v -1.245700 0.000000 26.296801
v -1.823000 0.000000 4.186200
v -0.031500 -0.468400 4.186200
v 1.760000 0.000000 4.186200
v 1.235900 -0.397000 -7.741000
v 1.235900 0.397000 -7.741000
v 2.287500 0.000000 -7.044000
v 0.000000 -0.472700 -8.015800
v 0.000000 0.472700 -8.015800
v -1.235900 -0.397000 -7.741000
v -1.235900 0.397000 -7.741000
v -2.011300 0.258600 3.805600
v -2.011300 -0.258600 3.805600
v -1.039700 0.636000 3.605600
v -1.039700 -0.636000 3.605600
v 0.000000 0.749200 3.540500
v 0.000000 -0.749200 3.540500
v 1.039700 -0.636000 3.605600
v 1.039700 0.636000 3.605600
v 2.011300 -0.258600 3.805600
v 2.011300 0.258600 3.805600
v 2.362700 -0.213200 4.493100
v 3.128200 -0.168700 4.867300
v 1.509400 -0.199100 -6.946400
v 1.509400 0.199100 -6.946400
v 2.362700 0.213200 4.493100
v 3.128200 0.168700 4.867300
v -0.031500 0.468400 4.186200
v -0.031500 0.260700 27.420601
v 0.000000 0.587100 3.892100
v 0.000000 0.472700 -6.567200
v 0.000000 -0.587100 3.892100
v 0.000000 -0.472700 -6.567100
v -0.686500 0.269800 -6.567100
v -1.509400 -0.199100 -6.946400
v -0.686500 -0.269800 -6.567100
v -3.446300 -0.168700 4.591700
v -3.442900 0.168700 4.341200
v -3.442900 -0.168700 4.341200
v -0.558300 0.526100 4.221800
v -2.362700 -0.213200 4.493100
v -0.558300 -0.526100 4.221800
v -2.362700 0.213200 4.493100
v -3.128200 0.168700 4.867300
v -3.128200 -0.168700 4.867300
v 3.446300 -0.168700 4.591700
v 3.442900 0.168700 4.341200
v 3.446300 0.168700 4.591700
v 0.000000 0.548500 4.893100
v 0.558300 -0.526100 4.221800
v 0.558300 0.526100 4.221800
v 0.686500 -0.269800 -6.567100
v 0.872900 0.335100 3.892100
v 0.872900 -0.335100 3.892100
v 0.782300 0.000000 28.317900
v -0.031500 -0.260700 27.420601
v 1.182700 0.000000 26.296801
v 1.235900 -0.397000 -7.741000
v 1.235900 0.397000 -7.741000
v 2.287500 0.000000 -7.044000
v 0.000000 -0.472700 -8.015800
v -1.235900 -0.397000 -7.741000
v 0.000000 0.472700 -8.015800
v -2.011300 0.258600 3.805600
v -2.011300 -0.258600 3.805600
v -3.272600 -0.168700 4.232600
v -1.039700 0.636000 3.605600
v 0.000000 0.749200 3.540500
v -1.039700 -0.636000 3.605600
v 1.039700 0.636000 3.605600
v 2.011300 -0.258600 3.805600
v 1.039700 -0.636000 3.605600
v 2.362700 -0.213200 4.493100
v 3.272600 -0.168700 4.232600
v 3.128200 -0.168700 4.867300
v 2.362700 0.213200 4.493100
v 3.128200 0.168700 4.867300
v 2.011300 0.258600 3.805600
v -0.031500 0.468400 4.186200
v -1.823000 0.000000 4.186200
v -0.031500 0.260700 27.420601
v 0.000000 0.587100 3.892100
v 0.686500 0.269800 -6.567100
v 0.000000 0.472700 -6.567200
v -2.287500 0.000000 -7.044000
v -1.509400 0.199100 -6.946400
v -1.235900 0.397000 -7.741000
vt 0.793000 -0.100600
vt 0.710900 -0.088900
vt 0.793000 -0.086900
vt 0.710900 -0.098600
vt 0.633800 -0.093800
vt 0.935500 -0.408200
vt 0.906300 -0.414100
vt 0.935500 -0.414100
vt 0.906300 -0.408200
vt 0.881800 -0.696300
vt 0.946300 -0.735400
vt 0.973600 -0.696300
vt 0.909200 -0.735400
vt 0.942400 -0.752000
vt 0.913100 -0.752000
vt 0.942400 -0.758800
vt 0.913100 -0.758800
vt 0.935500 -0.569300
vt 0.906300 -0.564500
vt 0.906300 -0.569300
vt 0.935500 -0.564500
vt 0.879900 -0.681600
vt 0.975600 -0.681600
vt 0.935500 -0.418000
vt 0.906300 -0.418000
vt 0.935500 -0.560500
vt 0.906300 -0.560500
vt 0.973600 -0.667000
vt 0.881800 -0.667000
vt 0.810500 -0.016600
vt 0.066400 -0.032200
vt 0.066400 -0.015600
vt 0.810500 -0.030300
vt 0.810500 -0.030300
vt 0.066400 -0.015600
vt 0.066400 -0.032200
vt 0.810500 -0.016600
vt 0.624000 -0.202100
vt 0.702100 -0.260700
vt 0.585900 -0.251000
vt 0.702100 -0.153300
vt 0.780300 -0.202100
vt 0.819300 -0.251000
vt 0.874000 -0.996100
vt 0.702100 -0.996100
vt 0.530300 -0.996100
vt 0.814500 -0.140600
vt 0.814500 -0.120100
vt 0.918900 -0.130900
vt 0.691400 -0.142600
vt 0.691400 -0.119100
vt 0.569300 -0.140600
vt 0.569300 -0.120100
vt 0.464800 -0.130900
vt 0.898400 -0.445300
vt 0.943400 -0.445300
vt 0.865200 -0.466800
vt 0.976600 -0.466800
vt 0.855500 -0.489300
vt 0.986300 -0.489300
vt 0.976600 -0.511700
vt 0.865200 -0.511700
vt 0.943400 -0.533200
vt 0.898400 -0.533200
vt 0.901400 -0.358400
vt 0.911100 -0.354500
vt 0.879900 -0.358400
vt 0.855500 -0.351600
vt 0.888700 -0.335000
vt 0.948200 -0.327100
vt 0.965800 -0.305700
vt 0.912100 -0.295900
vt 0.971700 -0.283200
vt 0.853500 -0.283200
vt 0.912100 -0.271500
vt 0.965800 -0.260700
vt 0.888700 -0.231400
vt 0.948200 -0.239300
vt 0.911100 -0.211900
vt 0.855500 -0.214800
vt 0.879900 -0.208000
vt 0.901400 -0.208000
vt 0.710900 -0.088900
vt 0.710900 -0.098600
vt 0.793000 -0.086900
vt 0.793000 -0.100600
vt 0.633800 -0.093800
vt 0.879900 -0.208000
vt 0.855500 -0.214800
vt 0.901400 -0.208000
vt 0.948200 -0.239300
vt 0.888700 -0.231400
vt 0.965800 -0.260700
vt 0.912100 -0.271500
vt 0.971700 -0.283200
vt 0.853500 -0.283200
vt 0.912100 -0.295900
vt 0.965800 -0.305700
vt 0.888700 -0.335000
vt 0.948200 -0.327100
vt 0.855500 -0.351600
vt 0.911100 -0.354500
vt 0.901400 -0.358400
vt 0.879900 -0.358400
vt 0.911100 -0.211900
vt 0.702100 -0.996100
vt 0.702100 -0.260700
vt 0.946300 -0.627000
vt 0.909200 -0.627000
vt 0.942400 -0.610400
vt 0.913100 -0.610400
vt 0.942400 -0.603500
vt 0.913100 -0.603500
vt 0.066400 -0.081100
vt 0.066400 -0.059600
vt 0.810500 -0.077100
vt 0.810500 -0.059600
vt 0.810500 -0.043000
vt 0.948200 -0.059600
vt 0.841800 -0.022500
vt 0.920900 -0.029300
vt 0.851600 -0.002900
vt 0.066400 -0.038100
vt 0.066400 -0.059600
vt 0.810500 -0.077100
vt 0.066400 -0.081100
vt 0.810500 -0.059600
vt 0.810500 -0.043000
vt 0.948200 -0.059600
vt 0.841800 -0.022500
vt 0.920900 -0.029300
vt 0.851600 -0.002900
vt 0.066400 -0.038100
vt 0.920900 -0.090800
vt 0.851600 -0.116200
vt 0.841800 -0.096700
vt 0.851600 -0.116200
vt 0.841800 -0.096700
vt 0.920900 -0.090800
vt 0.793000 -0.100600
vt 0.710900 -0.088900
vt 0.793000 -0.086900
vt 0.935500 -0.408200
vt 0.906300 -0.414100
vt 0.935500 -0.414100
vt 0.881800 -0.696300
vt 0.946300 -0.735400
vt 0.973600 -0.696300
vt 0.909200 -0.735400
vt 0.913100 -0.752000
vt 0.942400 -0.752000
vt 0.942400 -0.758800
vt 0.935500 -0.569300
vt 0.906300 -0.564500
vt 0.906300 -0.569300
vt 0.879900 -0.681600
vt 0.973600 -0.667000
vt 0.881800 -0.667000
vt 0.810500 -0.016600
vt 0.810500 -0.030300
vt 0.810500 -0.030300
vt 0.066400 -0.015600
vt 0.066400 -0.032200
vt 0.624000 -0.202100
vt 0.702100 -0.260700
vt 0.585900 -0.251000
vt 0.814500 -0.140600
vt 0.814500 -0.120100
vt 0.918900 -0.130900
vt 0.691400 -0.142600
vt 0.569300 -0.140600
vt 0.691400 -0.119100
vt 0.898400 -0.445300
vt 0.943400 -0.445300
vt 0.935500 -0.418000
vt 0.865200 -0.466800
vt 0.855500 -0.489300
vt 0.976600 -0.466800
vt 0.865200 -0.511700
vt 0.943400 -0.533200
vt 0.976600 -0.511700
vt 0.901400 -0.358400
vt 0.911100 -0.354500
vt 0.879900 -0.358400
vt 0.855500 -0.351600
vt 0.888700 -0.335000
vt 0.948200 -0.327100
vt 0.965800 -0.305700
vt 0.912100 -0.295900
vt 0.912100 -0.271500
vt 0.965800 -0.260700
vt 0.948200 -0.239300
vt 0.888700 -0.231400
vt 0.911100 -0.211900
vt 0.855500 -0.214800
vt 0.879900 -0.208000
vt 0.793000 -0.086900
vt 0.633800 -0.093800
vt 0.855500 -0.214800
vt 0.901400 -0.208000
vt 0.948200 -0.239300
vt 0.888700 -0.231400
vt 0.965800 -0.260700
vt 0.912100 -0.271500
vt 0.971700 -0.283200
vt 0.853500 -0.283200
vt 0.912100 -0.295900
vt 0.965800 -0.305700
vt 0.888700 -0.335000
vt 0.855500 -0.351600
vt 0.948200 -0.327100
vt 0.901400 -0.358400
vt 0.879900 -0.358400
vt 0.702100 -0.996100
vt 0.874000 -0.996100
vt 0.702100 -0.260700
vt 0.946300 -0.627000
vt 0.909200 -0.627000
vt 0.942400 -0.610400
vt 0.913100 -0.610400
vt 0.942400 -0.603500
vt 0.913100 -0.603500
vt 0.810500 -0.077100
vt 0.066400 -0.059600
vt 0.810500 -0.043000
vt 0.810500 -0.059600
vt 0.948200 -0.059600
vt 0.920900 -0.029300
vt 0.851600 -0.002900
vt 0.066400 -0.038100
vt 0.810500 -0.077100
vt 0.066400 -0.081100
vt 0.810500 -0.043000
vt 0.948200 -0.059600
vt 0.841800 -0.022500
vt 0.920900 -0.029300
vt 0.920900 -0.090800
vt 0.851600 -0.116200
vt 0.851600 -0.116200
vt 0.841800 -0.096700
vt 0.920900 -0.090800
vn -0.4186 0.0000 0.9082
vn -0.2911 0.0000 0.9567
vn -0.2606 0.0000 0.9654
vn -0.9993 0.0001 -0.0372
vn -0.9999 0.0000 -0.0136
vn 0.1487 0.0000 0.9889
vn 0.2874 0.0000 0.9578
vn -0.1185 0.0000 0.9930
vn -0.1185 0.0000 0.9929
vn -0.6548 0.0000 0.7558
vn 0.9999 0.0000 -0.0136
vn -0.7688 0.0000 0.6394
vn -0.5377 0.0000 -0.8432
vn 0.5377 0.0000 -0.8432
vn 0.7688 0.0000 0.6394
vn -0.6197 0.7843 0.0298
vn -0.9998 0.0000 -0.0178
vn 0.9998 0.0000 -0.0178
vn 0.2281 -0.9707 0.0752
vn -0.0348 -0.9979 0.0550
vn 0.2540 -0.9659 0.0503
vn 0.0000 -0.9960 0.0890
vn -0.2281 -0.9707 0.0752
vn -0.2234 -0.9746 0.0153
vn -0.2517 -0.9678 0.0085
vn -0.2529 -0.9674 0.0086
vn 0.2517 -0.9678 0.0067
vn 0.2189 -0.9757 0.0086
vn 0.2176 -0.9760 0.0087
vn 0.2529 -0.9675 0.0066
vn 0.3697 0.0000 -0.9291
vn 0.5525 0.0000 -0.8335
vn -0.0000 -0.0000 -1.0000
vn -0.3697 0.0000 -0.9291
vn -0.2490 0.0000 -0.9685
vn -0.2542 0.0000 -0.9672
vn -0.3207 0.0000 -0.9472
vn -0.1210 -0.0000 -0.9927
vn 0.1210 0.0000 -0.9927
vn 0.2542 0.0000 -0.9672
vn 0.3207 0.0000 -0.9472
vn 0.0000 -1.0000 0.0000
vn -0.0316 -0.9994 0.0118
vn -0.0355 -0.9993 0.0081
vn -0.1177 -0.9925 0.0341
vn -0.3035 -0.9483 -0.0925
vn -0.1485 -0.9662 0.2107
vn -0.1506 -0.9664 0.2084
vn 0.0000 -0.9797 0.2004
vn 0.0000 -0.9892 0.1468
vn 0.1506 -0.9664 0.2084
vn 0.1485 -0.9662 0.2107
vn 0.1177 -0.9925 0.0341
vn 0.3035 -0.9483 -0.0925
vn 0.0316 -0.9994 0.0118
vn 0.0355 -0.9993 0.0081
vn 0.4186 0.0000 0.9082
vn 0.1245 0.0000 0.9922
vn 0.0000 1.0000 0.0000
vn -0.0404 0.9988 0.0284
vn -0.0479 0.9988 -0.0034
vn -0.3008 0.9490 -0.0947
vn -0.1013 0.9937 0.0484
vn -0.1485 0.9662 0.2107
vn -0.1506 0.9664 0.2084
vn 0.0000 0.9797 0.2004
vn 0.0000 0.9892 0.1468
vn 0.1506 0.9664 0.2084
vn 0.1485 0.9662 0.2107
vn 0.1013 0.9937 0.0484
vn 0.3018 0.9487 -0.0941
vn 0.0400 0.9991 0.0154
vn 0.0381 0.9992 0.0087
vn -0.1462 0.9623 -0.2293
vn 0.0000 1.0000 0.0089
vn -0.2517 0.9678 0.0085
vn 0.0000 0.9988 0.0484
vn -0.2234 0.9746 0.0153
vn -0.2281 0.9707 0.0752
vn 0.0000 0.9960 0.0890
vn 0.2281 0.9707 0.0752
vn 0.2234 0.9746 0.0153
vn 0.2517 0.9678 0.0085
vn -0.2874 0.0000 0.9578
vn -0.1487 0.0000 0.9889
vn 0.1185 0.0000 0.9929
vn 0.6548 0.0000 0.7558
vn -0.2773 0.9607 -0.0109
vn -0.0000 0.9999 -0.0114
vn -0.2831 0.9590 -0.0105
vn 0.0979 0.9952 -0.0073
vn 0.2244 0.9741 0.0261
vn 0.1435 0.9844 0.1017
vn 0.1762 0.9737 0.1446
vn 0.0656 0.9733 0.2198
vn 0.8722 -0.0000 0.4891
vn 0.2773 0.9607 -0.0109
vn 0.0000 -0.9999 -0.0114
vn 0.2244 -0.9741 0.0261
vn 0.2773 -0.9607 -0.0109
vn 0.0000 -1.0000 -0.0055
vn -0.2244 -0.9741 0.0261
vn -0.0000 -0.9947 0.1028
vn -0.1762 -0.9737 0.1446
vn -0.0656 -0.9733 0.2198
vn -0.2625 -0.9536 0.1472
vn -0.2773 -0.9607 -0.0109
vn 0.0656 -0.9733 0.2198
vn 0.1762 -0.9737 0.1446
vn -0.2625 0.9536 0.1472
vn -0.1762 0.9737 0.1446
vn -0.0656 0.9733 0.2198
vn -0.1435 0.9844 0.1017
vn -0.2834 0.9590 0.0000
vn -0.2542 0.0000 -0.9671
vn -0.2827 0.9592 -0.0105
usemtl demonssouls_broadswordspec
s 1
f 1/1/1 2/2/1 3/3/1
f 4/4/2 2/2/3 1/1/1
f 4/4/2 5/5/4 2/2/3
f 6/6/5 7/7/5 8/8/5
f 6/6/5 9/9/5 7/7/5
f 10/10/6 11/11/7 12/12/6
f 10/10/6 13/13/7 11/11/7
f 13/13/7 14/14/8 11/11/7
f 13/13/7 15/15/9 14/14/8
f 15/15/9 6/16/10 14/14/8
f 15/15/9 9/17/10 6/16/10
f 16/18/11 17/19/11 18/20/11
f 16/18/11 19/21/11 17/19/11
f 20/22/12 12/12/12 21/23/12
f 20/22/12 10/10/12 12/12/12
f 22/24/13 7/7/13 23/25/13
f 22/24/13 8/8/13 7/7/13
f 24/26/14 17/19/14 19/21/14
f 24/26/14 25/27/14 17/19/14
f 20/22/15 26/28/15 27/29/15
f 20/22/15 21/23/15 26/28/15
f 1/30/16 28/31/17 29/32/17
f 1/30/16 3/33/17 28/31/17
f 30/34/18 31/35/18 32/36/18
f 30/34/18 33/37/18 31/35/18
f 34/38/19 35/39/20 36/40/21
f 34/38/19 37/41/22 35/39/20
f 38/42/23 35/39/20 37/41/22
f 38/42/23 39/43/24 35/39/20
f 40/44/25 35/39/20 39/43/24
f 40/44/25 41/45/26 35/39/20
f 41/45/27 36/40/28 35/39/29
f 41/45/27 42/46/30 36/40/28
f 43/47/31 44/48/31 45/49/32
f 43/47/31 46/50/33 44/48/31
f 46/50/33 47/51/33 44/48/31
f 46/50/33 48/52/34 47/51/33
f 48/52/34 49/53/34 47/51/33
f 48/52/34 5/54/4 49/53/34
f 50/55/35 51/56/36 22/24/37
f 50/55/35 52/57/38 51/56/36
f 52/57/38 53/58/38 51/56/36
f 52/57/38 54/59/33 53/58/38
f 53/58/38 54/59/33 55/60/33
f 54/59/33 56/61/39 55/60/33
f 54/59/33 57/62/39 56/61/39
f 57/62/39 58/63/40 56/61/39
f 57/62/39 59/64/40 58/63/40
f 25/27/41 58/63/40 59/64/40
f 25/27/41 24/26/41 58/63/40
f 23/25/37 50/55/37 22/24/37
f 8/65/42 22/66/43 6/67/42
f 22/66/43 14/68/44 6/67/42
f 22/66/43 11/69/45 14/68/44
f 51/70/46 11/69/45 22/66/43
f 51/70/46 53/71/47 11/69/45
f 53/71/47 12/72/48 11/69/45
f 53/71/47 55/73/49 12/72/48
f 55/73/49 21/74/50 12/72/48
f 55/73/49 26/75/51 21/74/50
f 56/76/52 26/75/51 55/73/49
f 56/76/52 60/77/53 26/75/51
f 58/78/54 60/77/53 56/76/52
f 58/78/54 24/79/55 60/77/53
f 60/77/53 24/79/55 61/80/56
f 24/79/55 16/81/42 61/80/56
f 24/79/55 19/82/42 16/81/42
f 62/83/57 63/84/57 30/85/57
f 30/85/57 63/84/57 33/86/57
f 62/83/58 45/87/58 63/84/58
f 9/88/59 15/89/60 7/90/61
f 7/90/61 15/89/60 50/91/62
f 13/92/63 50/91/62 15/89/60
f 13/92/63 52/93/64 50/91/62
f 10/94/65 52/93/64 13/92/63
f 10/94/65 54/95/66 52/93/64
f 20/96/67 54/95/66 10/94/65
f 20/96/67 27/97/68 54/95/66
f 27/97/68 57/98/69 54/95/66
f 27/97/68 64/99/70 57/98/69
f 64/99/70 59/100/71 57/98/69
f 64/99/70 65/101/72 59/100/71
f 59/100/71 65/101/72 25/102/73
f 65/101/72 17/103/59 25/102/73
f 65/101/72 18/104/59 17/103/59
f 7/90/61 50/91/62 23/105/74
f 66/106/75 40/44/76 67/107/77
f 67/107/77 40/44/76 39/43/78
f 67/107/77 39/43/78 38/42/79
f 67/107/77 38/42/79 37/41/80
f 67/107/77 37/41/80 34/38/81
f 34/38/81 36/40/82 67/107/77
f 36/40/82 42/46/83 67/107/77
f 66/106/75 67/107/77 42/46/83
f 60/108/84 27/29/85 26/28/85
f 60/108/84 64/109/84 27/29/85
f 61/110/86 64/109/84 60/108/84
f 61/110/86 65/111/86 64/109/84
f 16/112/87 65/111/86 61/110/86
f 16/112/87 18/113/87 65/111/86
f 29/114/88 68/115/89 1/116/90
f 1/116/90 68/115/89 69/117/91
f 68/115/89 33/118/92 69/117/91
f 33/118/92 47/119/93 69/117/91
f 33/118/92 63/120/94 47/119/93
f 63/120/94 44/121/95 47/119/93
f 63/120/94 45/122/96 44/121/95
f 31/123/97 33/118/92 68/115/89
f 70/124/98 30/125/99 32/126/100
f 70/124/98 71/127/101 30/125/99
f 71/127/101 70/124/98 3/128/102
f 71/127/101 3/128/102 46/129/103
f 46/129/103 3/128/102 2/130/104
f 46/129/103 2/130/104 48/131/105
f 48/131/105 2/130/104 5/132/106
f 3/128/102 70/124/98 28/133/107
f 43/134/108 45/135/96 62/136/109
f 43/134/108 62/136/109 46/129/103
f 46/129/103 62/136/109 30/125/99
f 46/129/103 30/125/99 71/127/101
f 5/137/110 4/138/111 49/139/112
f 4/138/111 47/119/113 49/139/112
f 4/138/111 1/116/16 47/119/113
f 1/116/16 69/117/114 47/119/113
usemtl demonssouls_broadsword
f 72/140/1 73/141/1 74/142/1
f 4/4/2 73/141/3 72/140/1
f 4/4/2 5/5/4 73/141/3
f 75/143/5 76/144/5 77/145/5
f 75/143/5 9/9/5 76/144/5
f 78/146/6 79/147/7 80/148/6
f 78/146/6 13/13/7 79/147/7
f 13/13/7 14/14/8 79/147/7
f 81/149/7 82/150/9 83/151/8
f 82/150/9 75/152/10 83/151/8
f 82/150/9 9/17/10 75/152/10
f 84/153/11 85/154/11 86/155/11
f 84/153/11 19/21/11 85/154/11
f 20/22/12 80/148/12 21/23/12
f 20/22/12 78/146/12 80/148/12
f 22/24/13 76/144/13 23/25/13
f 22/24/13 77/145/13 76/144/13
f 24/26/14 85/154/14 19/21/14
f 24/26/14 25/27/14 85/154/14
f 87/156/15 88/157/15 89/158/15
f 87/156/15 21/23/15 88/157/15
f 72/159/16 28/31/17 29/32/17
f 72/159/16 74/160/17 28/31/17
f 90/161/18 91/162/18 92/163/18
f 90/161/18 33/37/18 91/162/18
f 93/164/19 94/165/20 95/166/21
f 93/164/19 37/41/22 94/165/20
f 38/42/23 94/165/20 37/41/22
f 38/42/23 39/43/24 94/165/20
f 40/44/25 94/165/20 39/43/24
f 40/44/25 41/45/26 94/165/20
f 41/45/27 95/166/28 94/165/29
f 41/45/27 42/46/30 95/166/28
f 96/167/31 97/168/31 98/169/32
f 96/167/31 46/50/33 97/168/31
f 46/50/33 47/51/33 97/168/31
f 99/170/33 100/171/34 101/172/33
f 100/171/34 49/53/34 101/172/33
f 100/171/34 5/54/4 49/53/34
f 102/173/35 103/174/115 104/175/37
f 102/173/35 52/57/38 103/174/115
f 52/57/38 53/58/38 103/174/36
f 105/176/38 106/177/33 107/178/38
f 107/178/38 106/177/33 55/60/33
f 106/177/33 56/61/39 55/60/33
f 106/177/33 57/62/39 56/61/39
f 108/179/39 109/180/40 110/181/39
f 108/179/39 59/64/40 109/180/40
f 25/27/41 109/180/40 59/64/40
f 25/27/41 24/26/41 109/180/40
f 23/25/37 102/173/37 104/175/37
f 77/182/42 104/183/43 75/184/42
f 104/183/43 83/185/44 75/184/42
f 104/183/43 79/186/45 83/185/44
f 103/187/46 79/186/45 104/183/43
f 103/187/46 107/188/47 79/186/45
f 107/188/47 80/189/48 79/186/45
f 107/188/47 55/73/49 80/189/48
f 55/73/49 21/74/50 80/189/48
f 55/73/49 88/190/51 21/74/50
f 110/191/52 88/190/51 55/73/49
f 110/191/52 60/77/53 88/190/51
f 109/192/54 60/77/53 110/191/52
f 109/192/54 24/79/55 60/77/53
f 111/193/53 112/194/55 113/195/56
f 112/194/55 84/196/42 113/195/56
f 112/194/55 19/82/42 84/196/42
f 62/83/57 63/84/57 90/197/57
f 90/197/57 63/84/57 33/86/57
f 62/83/58 98/198/58 63/84/58
f 9/88/59 82/199/60 76/200/61
f 76/200/61 82/199/60 102/201/62
f 81/202/63 102/201/62 82/199/60
f 81/202/63 105/203/64 102/201/62
f 78/204/65 105/203/64 81/202/63
f 78/204/65 106/205/66 105/203/64
f 87/206/67 106/205/66 78/204/65
f 87/206/67 89/207/68 106/205/66
f 89/207/68 108/208/69 106/205/66
f 89/207/68 64/99/70 108/208/69
f 64/99/70 59/100/71 108/208/69
f 114/209/70 115/210/72 116/211/71
f 116/211/71 115/210/72 25/102/73
f 115/210/72 85/212/59 25/102/73
f 115/210/72 86/213/59 85/212/59
f 76/200/61 102/201/62 23/105/74
f 117/214/75 118/215/76 119/216/77
f 119/216/77 118/215/76 39/43/78
f 119/216/77 39/43/78 38/42/79
f 119/216/77 38/42/79 37/41/80
f 119/216/77 37/41/80 93/164/81
f 93/164/81 95/166/82 119/216/77
f 95/166/82 42/46/83 119/216/77
f 117/214/75 119/216/77 42/46/83
f 111/217/84 89/158/85 88/157/85
f 111/217/84 114/218/84 89/158/85
f 113/219/86 114/218/84 111/217/84
f 113/219/86 115/220/86 114/218/84
f 84/221/87 115/220/86 113/219/86
f 84/221/87 86/222/87 115/220/86
f 29/114/88 68/115/89 72/223/90
f 72/223/116 68/115/89 69/117/91
f 120/224/89 121/225/92 122/226/91
f 121/225/92 101/227/93 122/226/91
f 121/225/92 63/120/94 101/227/93
f 63/120/94 97/228/95 101/227/93
f 63/120/94 98/229/96 97/228/95
f 91/230/97 121/225/92 120/224/89
f 70/124/98 90/231/99 92/232/100
f 70/124/98 71/127/101 90/231/99
f 71/127/101 70/124/98 74/233/102
f 71/127/101 74/233/102 99/234/103
f 99/234/103 74/233/102 73/235/104
f 99/234/103 73/235/104 100/236/105
f 100/236/105 73/235/104 5/132/106
f 74/233/102 70/124/98 28/133/107
f 96/237/108 98/238/96 62/136/109
f 96/237/108 62/136/109 99/234/103
f 99/234/103 62/136/109 90/231/99
f 99/234/103 90/231/99 71/127/101
f 123/239/110 124/240/111 125/241/112
f 124/240/111 101/227/113 125/241/112
f 124/240/111 72/223/16 101/227/113
f 72/223/16 122/226/114 101/227/113
