# Blender v2.79 (sub 0) OBJ File: ''
# www.blender.org
mtllib pickaxe.mtl
o pickaxe2
v 0.729100 0.395700 -9.831300
v -0.953600 -0.424900 -9.831300
v -0.940400 0.395700 -9.831300
v 0.742300 -0.424900 -9.831300
v 0.703200 -0.405900 25.131500
v 0.497900 0.376800 8.941700
v 0.690600 0.376800 25.131500
v -0.914500 -0.405900 25.131500
v -0.901900 0.376800 25.131500
v -0.914500 -0.405900 8.941700
v 0.510600 -0.405900 8.941700
v -0.490600 -0.405900 7.824700
v -0.478000 0.376800 7.824700
v -0.901900 0.376800 8.941700
v 1.159600 0.938000 27.495001
v 1.179700 -0.895700 27.495001
v 0.818300 0.528000 25.432699
v 0.833000 -0.485700 25.432699
v 1.784900 1.017900 28.076200
v -1.380000 0.938000 27.495001
v -2.100500 1.096200 28.076900
v -1.038600 0.528000 25.432699
v -11.638200 0.435200 25.820101
v -15.184200 0.062300 23.934299
v -15.288900 0.062800 24.062500
v -12.517000 0.435200 27.456900
v -9.931800 0.612000 29.121300
v -8.642900 0.612000 27.079500
v -7.090800 0.788800 30.344999
v -5.874900 0.788800 27.734200
v -3.825800 0.998200 31.339600
v -3.545500 1.194200 31.510099
v -0.285900 1.194200 32.027199
v 3.094600 1.194300 31.545601
v 3.396100 0.998200 31.339600
v 6.674400 0.788800 30.344999
v 5.458400 0.788800 27.734200
v 8.226500 0.612000 27.079500
v 9.515400 0.612000 29.121300
v 11.221800 0.435200 25.820101
v 12.100600 0.435200 27.456900
v 14.767800 0.062300 23.934299
v 14.872500 0.062800 24.062500
v -1.400100 -0.895700 27.495001
v -2.105100 -1.119800 28.076900
v -1.053300 -0.485700 25.432699
v 1.800500 -1.119800 28.077400
v 11.206600 -0.389900 25.828800
v 12.085200 -0.384300 27.465799
v 9.506800 -0.555500 29.126101
v 8.218500 -0.572300 27.084101
v 6.672600 -0.726700 30.345699
v 5.457700 -0.754800 27.734501
v 3.416000 -0.945400 31.339600
v 3.119200 -1.119800 31.545601
v -0.223000 -1.119800 32.027100
v -3.570100 -1.119800 31.510099
v -3.845800 -0.945400 31.339600
v -7.089000 -0.726700 30.345699
v -5.874100 -0.754800 27.734501
v -8.634900 -0.572400 27.084101
v -9.923200 -0.555500 29.126101
v -11.623000 -0.389900 25.828899
v -12.501600 -0.384300 27.465799
v 0.729100 0.395700 -9.831300
v -0.953600 -0.424900 -9.831300
v -0.940400 0.395700 -9.831300
v 0.703200 -0.405900 25.131500
v 0.497900 0.376800 8.941700
v 0.690600 0.376800 25.131500
v -0.914500 -0.405900 25.131500
v -0.901900 0.376800 25.131500
v -0.914500 -0.405900 8.941700
v -0.901900 0.376800 8.941700
v -0.478000 0.376800 7.824700
v -0.490600 -0.405900 7.824700
v 1.159600 0.938000 27.495001
v 1.179700 -0.895700 27.495001
v 0.818300 0.528000 25.432699
v 1.784900 1.017900 28.076200
v -1.380000 0.938000 27.495001
v -2.100500 1.096200 28.076900
v -11.638200 0.435200 25.820101
v -15.184200 0.062300 23.934299
v -15.288900 0.062800 24.062500
v -8.642900 0.612000 27.079500
v -9.931800 0.612000 29.121300
v -7.090800 0.788800 30.344999
v 6.674400 0.788800 30.344999
v 8.226500 0.612000 27.079500
v 5.458400 0.788800 27.734200
v 9.515400 0.612000 29.121300
v 12.100600 0.435200 27.456900
v 11.221800 0.435200 25.820101
v -1.400100 -0.895700 27.495001
v -1.053300 -0.485700 25.432699
v 0.833000 -0.485700 25.432699
v 11.206600 -0.389900 25.828800
v 14.767800 0.062300 23.934299
v 14.872500 0.062800 24.062500
v 8.218500 -0.572300 27.084101
v 9.506800 -0.555500 29.126101
v 6.672600 -0.726700 30.345699
v 3.119200 -1.119800 31.545601
v 1.800500 -1.119800 28.077400
v 3.416000 -0.945400 31.339600
v -2.105100 -1.119800 28.076900
v -0.223000 -1.119800 32.027100
v -3.570100 -1.119800 31.510099
v -7.089000 -0.726700 30.345699
v -8.634900 -0.572400 27.084101
v -5.874100 -0.754800 27.734501
v -9.923200 -0.555500 29.126101
v -12.501600 -0.384300 27.465799
v -11.623000 -0.389900 25.828899
vt 0.075200 -0.993200
vt 0.184600 -0.976600
vt 0.184600 -0.993200
vt 0.075200 -0.976600
vt 0.083000 -0.477500
vt 0.059600 -0.718800
vt 0.036100 -0.477500
vt 0.180700 -0.477500
vt 0.228500 -0.477500
vt 0.185500 -0.717800
vt 0.107400 -0.719700
vt 0.027300 -0.976600
vt 0.176800 -0.736300
vt 0.232400 -0.736300
vt 0.223600 -0.717800
vt 0.300800 -0.719700
vt 0.325200 -0.477500
vt 0.229500 -0.976600
vt 0.330100 -0.976600
vt 0.598600 -0.335900
vt 0.599600 -0.361300
vt 0.736300 -0.330100
vt 0.737300 -0.349600
vt 0.560500 -0.345700
vt 0.598600 -0.293000
vt 0.560500 -0.281300
vt 0.737300 -0.297900
vt 0.757800 -0.298800
vt 0.757800 -0.328100
vt 0.757800 -0.347700
vt 0.710900 -0.121100
vt 0.836900 -0.062500
vt 0.828100 -0.060500
vt 0.601600 -0.106400
vt 0.490200 -0.150400
vt 0.627000 -0.171900
vt 0.408200 -0.197300
vt 0.583000 -0.217800
vt 0.341800 -0.252000
vt 0.331100 -0.256800
vt 0.295900 -0.311500
vt 0.328100 -0.368200
vt 0.341800 -0.373000
vt 0.408200 -0.427700
vt 0.583000 -0.407200
vt 0.627000 -0.453100
vt 0.490200 -0.474600
vt 0.710900 -0.503900
vt 0.601600 -0.518600
vt 0.836900 -0.560500
vt 0.828100 -0.561500
vt 0.116200 -0.455100
vt 0.287100 -0.470700
vt 0.306600 -0.455100
vt 0.129900 -0.470700
vt 0.598600 -0.268600
vt 0.736300 -0.280300
vt 0.757800 -0.283200
vt 0.028300 -0.020500
vt 0.191400 -0.006800
vt 0.035200 -0.006800
vt 0.210900 -0.020500
vt 0.635700 -0.770500
vt 0.596700 -0.715800
vt 0.635700 -0.705100
vt 0.596700 -0.758800
vt 0.459000 -0.720700
vt 0.459000 -0.752900
vt 0.438500 -0.723600
vt 0.438500 -0.750000
vt 0.485400 -0.547900
vt 0.358400 -0.490200
vt 0.367200 -0.488300
vt 0.594700 -0.533200
vt 0.706100 -0.576200
vt 0.569300 -0.597700
vt 0.787100 -0.623000
vt 0.612300 -0.643600
vt 0.853500 -0.677700
vt 0.867200 -0.682600
vt 0.899400 -0.739300
vt 0.865200 -0.794900
vt 0.853500 -0.799800
vt 0.787100 -0.853500
vt 0.612300 -0.833000
vt 0.569300 -0.879900
vt 0.706100 -0.901400
vt 0.485400 -0.929700
vt 0.594700 -0.944300
vt 0.358400 -0.988300
vt 0.367200 -0.989300
vt 0.881800 -0.621100
vt 0.907200 -0.684600
vt 0.932600 -0.621100
vt 0.943400 -0.581100
vt 0.871100 -0.581100
vt 0.955100 -0.537100
vt 0.860400 -0.537100
vt 0.847700 -0.486300
vt 0.967800 -0.486300
vt 0.836900 -0.481400
vt 0.979500 -0.481400
vt 0.836900 -0.429700
vt 0.979500 -0.429700
vt 0.979500 -0.378900
vt 0.836900 -0.378900
vt 0.967800 -0.374000
vt 0.847700 -0.374000
vt 0.955100 -0.324200
vt 0.860400 -0.324200
vt 0.871100 -0.280300
vt 0.943400 -0.280300
vt 0.881800 -0.242200
vt 0.933600 -0.242200
vt 0.908200 -0.185500
vt 0.110400 -0.296900
vt 0.148400 -0.220700
vt 0.078100 -0.220700
vt 0.063500 -0.157200
vt 0.164100 -0.157200
vt 0.047900 -0.098600
vt 0.179700 -0.098600
vt 0.205100 -0.173800
vt 0.172900 -0.250000
vt 0.244100 -0.251000
vt 0.158200 -0.314500
vt 0.259800 -0.314500
vt 0.142600 -0.374000
vt 0.275400 -0.374000
vt 0.075200 -0.993200
vt 0.184600 -0.976600
vt 0.184600 -0.993200
vt 0.083000 -0.477500
vt 0.059600 -0.718800
vt 0.036100 -0.477500
vt 0.180700 -0.477500
vt 0.228500 -0.477500
vt 0.185500 -0.717800
vt 0.027300 -0.976600
vt 0.223600 -0.717800
vt 0.232400 -0.736300
vt 0.176800 -0.736300
vt 0.300800 -0.719700
vt 0.325200 -0.477500
vt 0.229500 -0.976600
vt 0.330100 -0.976600
vt 0.598600 -0.335900
vt 0.599600 -0.361300
vt 0.736300 -0.330100
vt 0.560500 -0.345700
vt 0.598600 -0.293000
vt 0.560500 -0.281300
vt 0.757800 -0.298800
vt 0.757800 -0.328100
vt 0.757800 -0.347700
vt 0.710900 -0.121100
vt 0.836900 -0.062500
vt 0.828100 -0.060500
vt 0.627000 -0.171900
vt 0.490200 -0.150400
vt 0.408200 -0.197300
vt 0.408200 -0.427700
vt 0.627000 -0.453100
vt 0.583000 -0.407200
vt 0.490200 -0.474600
vt 0.601600 -0.518600
vt 0.710900 -0.503900
vt 0.116200 -0.455100
vt 0.129900 -0.470700
vt 0.757800 -0.283200
vt 0.028300 -0.020500
vt 0.191400 -0.006800
vt 0.035200 -0.006800
vt 0.596700 -0.715800
vt 0.596700 -0.758800
vt 0.459000 -0.752900
vt 0.459000 -0.720700
vt 0.438500 -0.723600
vt 0.438500 -0.750000
vt 0.485400 -0.547900
vt 0.358400 -0.490200
vt 0.367200 -0.488300
vt 0.569300 -0.597700
vt 0.706100 -0.576200
vt 0.787100 -0.623000
vt 0.867200 -0.682600
vt 0.635700 -0.705100
vt 0.853500 -0.677700
vt 0.635700 -0.770500
vt 0.899400 -0.739300
vt 0.865200 -0.794900
vt 0.787100 -0.853500
vt 0.569300 -0.879900
vt 0.612300 -0.833000
vt 0.706100 -0.901400
vt 0.594700 -0.944300
vt 0.485400 -0.929700
vt 0.358400 -0.988300
vt 0.367200 -0.989300
vt 0.907200 -0.684600
vt 0.932600 -0.621100
vt 0.943400 -0.581100
vt 0.871100 -0.581100
vt 0.955100 -0.537100
vt 0.860400 -0.537100
vt 0.847700 -0.486300
vt 0.836900 -0.481400
vt 0.836900 -0.429700
vt 0.836900 -0.378900
vt 0.955100 -0.324200
vt 0.860400 -0.324200
vt 0.871100 -0.280300
vt 0.943400 -0.280300
vt 0.881800 -0.242200
vt 0.908200 -0.185500
vt 0.110400 -0.296900
vt 0.148400 -0.220700
vt 0.078100 -0.220700
vt 0.063500 -0.157200
vt 0.164100 -0.157200
vt 0.047900 -0.098600
vt 0.210900 -0.020500
vt 0.205100 -0.173800
vt 0.172900 -0.250000
vt 0.244100 -0.251000
vt 0.158200 -0.314500
vt 0.259800 -0.314500
vt 0.275400 -0.374000
vt 0.306600 -0.455100
vn 0.0000 0.0000 -1.0000
vn 0.4120 -0.9008 -0.1370
vn 0.6986 0.7155 0.0003
vn 0.9998 0.0161 -0.0119
vn -0.8845 -0.4179 -0.2074
vn -0.8796 0.4230 -0.2175
vn -0.7365 -0.6628 -0.1348
vn 0.7101 -0.7041 0.0003
vn 0.7039 0.7102 0.0094
vn 0.7152 -0.6988 0.0096
vn -0.7182 -0.6956 0.0195
vn 0.7152 -0.6988 0.0095
vn -0.6547 -0.7477 -0.1107
vn -0.6432 0.7580 -0.1083
vn -0.7261 0.6745 -0.1334
vn 0.0000 1.0000 0.0000
vn -0.7069 0.7071 0.0192
vn 0.3328 0.9210 -0.2027
vn 0.9863 0.0118 -0.1647
vn 0.6511 0.6577 -0.3788
vn 0.9645 0.0144 -0.2637
vn 0.0345 0.9974 -0.0634
vn 0.0115 0.9758 -0.2185
vn -0.0229 0.9973 -0.0692
vn 0.0000 0.9537 -0.3007
vn 0.0000 0.8937 -0.4486
vn 0.6052 0.5788 -0.5466
vn 0.9197 0.0148 -0.3924
vn -0.0643 0.9973 -0.0357
vn -0.0715 0.9955 -0.0623
vn -0.0738 0.9956 -0.0576
vn -0.0632 0.9974 -0.0340
vn -0.0485 0.9984 -0.0300
vn -0.0502 0.9983 -0.0291
vn -0.0483 0.9984 -0.0295
vn -0.0615 0.9978 -0.0244
vn -0.0693 0.9971 -0.0323
vn -0.2626 0.9586 -0.1101
vn -0.2479 0.9598 -0.1317
vn 0.0056 0.9993 -0.0362
vn 0.2169 0.9674 -0.1311
vn 0.2471 0.9620 -0.1162
vn 0.0557 0.9981 -0.0269
vn 0.0585 0.9979 -0.0272
vn 0.0556 0.9981 -0.0268
vn 0.0502 0.9983 -0.0291
vn 0.0590 0.9979 -0.0274
vn 0.0558 0.9981 -0.0268
vn 0.0487 0.9984 -0.0294
vn 0.0647 0.9973 -0.0357
vn 0.0483 0.9984 -0.0298
vn 0.0633 0.9974 -0.0343
vn 0.0687 0.9962 -0.0535
vn 0.0645 0.9963 -0.0566
vn -0.6303 0.0052 -0.7763
vn -0.8386 0.0066 -0.5448
vn -0.6368 0.0013 -0.7710
vn -0.8408 0.0097 -0.5413
vn -0.9614 0.0130 -0.2749
vn -0.9634 0.0144 -0.2678
vn 0.6816 0.0066 -0.7317
vn 0.6840 0.0052 -0.7295
vn 0.6803 0.0075 -0.7329
vn 0.6851 0.0046 -0.7285
vn -0.0354 -0.9967 -0.0730
vn 0.0000 -0.9543 -0.2988
vn 0.0363 -0.9964 -0.0770
vn 0.0000 -0.9540 -0.2999
vn -0.0000 -0.9755 -0.2198
vn -0.0000 -0.9756 -0.2195
vn 0.0000 -0.9666 -0.2561
vn 0.0740 -0.9966 -0.0366
vn 0.0894 -0.9936 -0.0691
vn 0.0917 -0.9937 -0.0644
vn 0.0709 -0.9969 -0.0347
vn 0.0509 -0.9984 -0.0239
vn 0.0535 -0.9983 -0.0223
vn 0.0538 -0.9983 -0.0221
vn 0.0502 -0.9985 -0.0235
vn 0.0695 -0.9975 -0.0145
vn 0.0818 -0.9963 -0.0273
vn 0.2465 -0.9666 -0.0704
vn 0.2139 -0.9735 -0.0813
vn 0.0000 -1.0000 0.0000
vn -0.2365 -0.9664 -0.1009
vn -0.2530 -0.9639 -0.0835
vn -0.0688 -0.9975 -0.0149
vn -0.0802 -0.9964 -0.0266
vn -0.0536 -0.9983 -0.0221
vn -0.0505 -0.9984 -0.0236
vn -0.0745 -0.9965 -0.0366
vn -0.0509 -0.9984 -0.0239
vn -0.0710 -0.9969 -0.0350
vn -0.0865 -0.9944 -0.0601
vn -0.0823 -0.9946 -0.0633
vn 0.6583 -0.0041 0.7528
vn 0.7741 -0.0077 0.6330
vn 0.6621 -0.0043 0.7494
vn 0.4678 0.0001 0.8838
vn 0.4671 0.0001 0.8842
vn 0.3420 0.0006 0.9397
vn 0.3421 0.0000 0.9397
vn 0.4541 0.0043 0.8909
vn 0.4561 0.0048 0.8899
vn 0.3296 0.0034 0.9441
vn 0.3215 0.0040 0.9469
vn -0.0042 0.0005 1.0000
vn -0.0105 -0.0003 0.9999
vn -0.3045 0.0018 0.9525
vn -0.3107 0.0032 0.9505
vn -0.4302 0.0045 0.9027
vn -0.4286 0.0041 0.9035
vn -0.3426 0.0006 0.9395
vn -0.3427 0.0000 0.9395
vn -0.4671 0.0001 0.8842
vn -0.4678 0.0001 0.8838
vn -0.6583 -0.0041 0.7528
vn -0.6621 -0.0043 0.7494
vn -0.7741 -0.0077 0.6330
vn -0.4696 -0.0007 -0.8829
vn -0.4263 -0.0015 -0.9046
vn -0.4277 -0.0017 -0.9039
vn -0.3073 -0.0017 -0.9516
vn -0.3063 -0.0013 -0.9519
vn -0.1588 -0.0004 -0.9873
vn -0.1579 -0.0003 -0.9874
vn -0.0931 -0.0010 -0.9957
vn -0.0932 -0.0012 -0.9956
vn 0.4696 -0.0008 -0.8829
vn 0.4277 -0.0018 -0.9039
vn 0.4263 -0.0016 -0.9046
vn 0.3073 -0.0018 -0.9516
vn 0.3063 -0.0013 -0.9519
vn 0.1573 -0.0004 -0.9876
vn 0.1567 -0.0001 -0.9876
vn 0.0905 -0.0002 -0.9959
vn -0.0483 0.9984 -0.0298
vn -0.0486 0.9984 -0.0297
vn 0.0558 0.9981 -0.0269
vn 0.0557 0.9981 -0.0268
vn 0.0559 0.9981 -0.0267
vn 0.0501 0.9983 -0.0291
vn 0.0483 0.9984 -0.0295
vn 0.0486 0.9984 -0.0297
vn -0.6302 0.0052 -0.7764
vn 0.0739 -0.9966 -0.0366
vn -0.0537 -0.9983 -0.0220
vn -0.0502 -0.9985 -0.0234
vn -0.0535 -0.9983 -0.0221
vn -0.1579 -0.0003 -0.9875
vn 0.4262 -0.0016 -0.9046
vn 0.0904 -0.0001 -0.9959
usemtl demonssouls_pickaxespec
s 1
f 1/1/1 2/2/1 3/3/1
f 1/1/1 4/4/1 2/2/1
f 5/5/2 6/6/3 7/7/4
f 8/8/5 9/9/6 10/10/7
f 8/8/5 10/10/7 5/5/2
f 11/11/8 5/5/2 10/10/7
f 5/5/2 11/11/8 6/6/3
f 6/6/3 11/11/8 1/12/9
f 11/11/8 4/4/10 1/12/9
f 11/11/8 2/2/11 4/4/12
f 12/13/13 2/2/11 11/11/8
f 12/13/13 13/14/14 2/2/11
f 14/15/15 13/14/14 12/13/13
f 14/15/15 6/16/3 13/14/14
f 6/16/3 14/15/15 9/9/6
f 6/16/3 9/9/6 7/17/16
f 14/15/15 10/10/7 9/9/6
f 14/15/15 12/13/13 10/10/7
f 11/11/8 10/10/7 12/13/13
f 2/2/11 13/14/14 3/18/17
f 6/16/3 3/18/17 13/14/14
f 6/16/3 1/19/9 3/18/17
f 15/20/18 16/21/19 17/22/20
f 16/21/19 18/23/21 17/22/20
f 19/24/22 20/25/23 21/26/24
f 15/20/18 20/25/23 19/24/22
f 15/20/18 22/27/25 20/25/23
f 17/22/20 22/27/25 15/20/18
f 17/22/20 9/28/26 22/27/25
f 9/28/26 17/22/20 7/29/27
f 18/23/21 7/29/27 17/22/20
f 18/23/21 5/30/28 7/29/27
f 23/31/29 24/32/30 25/33/31
f 23/31/29 25/33/31 26/34/32
f 27/35/33 23/31/29 26/34/32
f 28/36/34 23/31/29 27/35/33
f 28/36/34 27/35/35 29/37/36
f 30/38/37 28/36/34 29/37/36
f 30/38/37 29/37/36 21/26/24
f 21/26/24 29/37/36 31/39/38
f 32/40/39 21/26/24 31/39/38
f 32/40/39 33/41/40 21/26/24
f 19/24/22 21/26/24 33/41/40
f 19/24/22 33/41/40 34/42/41
f 35/43/42 19/24/22 34/42/41
f 35/43/42 36/44/43 19/24/22
f 19/24/22 36/44/43 37/45/44
f 36/44/45 38/46/46 37/45/47
f 36/44/48 39/47/49 38/46/46
f 39/47/49 40/48/50 38/46/46
f 39/47/51 41/49/52 40/48/50
f 41/49/52 42/50/53 40/48/50
f 41/49/52 43/51/54 42/50/53
f 21/52/55 44/53/56 45/54/57
f 21/52/55 20/55/58 44/53/56
f 44/56/56 20/25/58 46/57/59
f 20/25/58 22/27/60 46/57/59
f 22/27/60 8/58/5 46/57/59
f 22/27/60 9/28/6 8/58/5
f 19/59/61 16/60/62 15/61/63
f 19/59/61 47/62/64 16/60/62
f 45/63/65 16/64/66 47/65/67
f 45/63/65 44/66/68 16/64/66
f 44/66/68 18/67/69 16/64/66
f 44/66/68 46/68/70 18/67/69
f 46/68/70 5/69/2 18/67/69
f 46/68/70 8/70/71 5/69/2
f 48/71/72 42/72/73 43/73/74
f 48/71/72 43/73/74 49/74/75
f 50/75/76 48/71/72 49/74/75
f 51/76/77 48/71/72 50/75/76
f 51/76/78 50/75/79 52/77/80
f 53/78/81 51/76/78 52/77/80
f 53/78/81 52/77/80 47/65/67
f 47/65/67 52/77/80 54/79/82
f 55/80/83 47/65/67 54/79/82
f 55/80/83 56/81/84 47/65/67
f 56/81/84 45/63/65 47/65/67
f 45/63/65 56/81/84 57/82/85
f 45/63/65 57/82/85 58/83/86
f 58/83/86 59/84/87 45/63/65
f 45/63/65 59/84/87 60/85/88
f 59/84/87 61/86/89 60/85/88
f 59/84/87 62/87/90 61/86/89
f 62/87/90 63/88/91 61/86/89
f 62/87/92 64/89/93 63/88/91
f 64/89/93 24/90/94 63/88/91
f 64/89/93 25/91/95 24/90/94
f 49/92/96 43/93/97 41/94/98
f 49/92/96 41/94/98 39/95/99
f 50/96/100 49/92/96 39/95/99
f 50/96/100 39/95/99 36/97/101
f 52/98/102 50/96/100 36/97/101
f 52/98/102 36/97/101 54/99/103
f 54/99/103 36/97/101 35/100/104
f 55/101/105 54/99/103 35/100/104
f 55/101/105 35/100/104 34/102/106
f 56/103/107 55/101/105 34/102/106
f 56/103/107 34/102/106 33/104/108
f 32/105/109 56/103/107 33/104/108
f 57/106/110 56/103/107 32/105/109
f 57/106/110 32/105/109 31/107/111
f 58/108/112 57/106/110 31/107/111
f 31/107/111 29/109/113 58/108/112
f 29/109/113 59/110/114 58/108/112
f 29/109/113 62/111/115 59/110/114
f 27/112/116 62/111/115 29/109/113
f 27/112/116 64/113/117 62/111/115
f 26/114/118 64/113/117 27/112/116
f 26/114/118 25/115/119 64/113/117
f 42/116/120 48/117/121 40/118/122
f 48/117/121 38/119/123 40/118/122
f 48/117/121 51/120/124 38/119/123
f 51/120/124 37/121/125 38/119/123
f 51/120/124 53/122/126 37/121/125
f 53/122/126 19/59/127 37/121/125
f 53/122/126 47/62/128 19/59/127
f 24/123/129 23/124/130 63/125/131
f 28/126/132 63/125/131 23/124/130
f 28/126/132 61/127/133 63/125/131
f 30/128/134 61/127/133 28/126/132
f 30/128/134 60/129/135 61/127/133
f 21/52/136 60/129/135 30/128/134
f 21/52/136 45/54/136 60/129/135
usemtl demonssouls_pickaxe
f 65/130/1 66/131/1 67/132/1
f 65/130/1 4/4/1 66/131/1
f 68/133/2 69/134/3 70/135/4
f 71/136/5 72/137/6 73/138/7
f 71/136/5 73/138/7 68/133/2
f 11/11/8 68/133/2 73/138/7
f 68/133/2 11/11/8 69/134/3
f 69/134/3 11/11/8 65/139/9
f 11/11/8 4/4/10 65/139/9
f 11/11/8 66/131/11 4/4/12
f 12/13/13 66/131/11 11/11/8
f 12/13/13 13/14/14 66/131/11
f 74/140/15 75/141/14 76/142/13
f 74/140/15 69/143/3 75/141/14
f 69/143/3 74/140/15 72/137/6
f 69/143/3 72/137/6 70/144/16
f 74/140/15 73/138/7 72/137/6
f 74/140/15 76/142/13 73/138/7
f 11/11/8 73/138/7 76/142/13
f 66/131/11 75/141/14 67/145/17
f 69/143/3 67/145/17 75/141/14
f 69/143/3 65/146/9 67/145/17
f 77/147/18 78/148/19 79/149/20
f 78/148/19 18/23/21 79/149/20
f 80/150/22 81/151/23 82/152/24
f 77/147/18 81/151/23 80/150/22
f 77/147/18 22/27/25 81/151/23
f 79/149/20 22/27/25 77/147/18
f 79/149/20 72/153/26 22/27/25
f 72/153/26 79/149/20 70/154/27
f 18/23/21 70/154/27 79/149/20
f 18/23/21 68/155/28 70/154/27
f 83/156/29 84/157/30 85/158/31
f 83/156/29 85/158/31 26/34/32
f 27/35/137 83/156/29 26/34/32
f 28/36/34 83/156/29 27/35/138
f 86/159/34 87/160/35 88/161/36
f 30/38/37 86/159/34 88/161/36
f 30/38/37 88/161/36 82/152/24
f 82/152/24 88/161/36 31/39/38
f 32/40/39 82/152/24 31/39/38
f 32/40/39 33/41/40 82/152/24
f 80/150/22 82/152/24 33/41/40
f 80/150/22 33/41/40 34/42/41
f 35/43/42 80/150/22 34/42/41
f 35/43/42 36/44/139 80/150/22
f 80/150/22 36/44/140 37/45/44
f 89/162/141 90/163/142 91/164/47
f 89/162/141 39/47/143 90/163/142
f 39/47/144 40/48/50 90/163/46
f 92/165/51 93/166/52 94/167/50
f 93/166/52 42/50/53 94/167/50
f 93/166/52 43/51/54 42/50/53
f 82/168/55 44/53/56 45/54/57
f 82/168/145 81/169/58 44/53/56
f 44/56/56 81/151/58 46/57/59
f 81/151/58 22/27/60 46/57/59
f 22/27/60 71/170/5 46/57/59
f 22/27/60 72/153/6 71/170/5
f 80/171/61 78/172/62 77/173/63
f 80/171/61 47/62/64 78/172/62
f 45/63/65 78/174/66 47/65/67
f 45/63/65 44/66/68 78/174/66
f 44/66/68 18/67/69 78/174/66
f 95/175/68 96/176/70 97/177/69
f 96/176/70 68/178/2 97/177/69
f 96/176/70 71/179/71 68/178/2
f 98/180/72 99/181/73 100/182/74
f 98/180/146 100/182/74 49/74/75
f 50/75/76 98/180/146 49/74/75
f 51/76/77 98/180/72 50/75/76
f 101/183/78 102/184/79 103/185/80
f 53/78/81 101/183/78 103/185/80
f 53/78/81 103/185/80 47/65/67
f 47/65/67 103/185/80 54/79/82
f 104/186/83 105/187/67 106/188/82
f 104/186/83 56/81/84 105/187/67
f 56/81/84 45/63/65 105/187/67
f 107/189/65 108/190/84 109/191/85
f 107/189/65 109/191/85 58/83/86
f 58/83/86 59/84/87 107/189/65
f 107/189/65 59/84/87 60/85/88
f 110/192/87 111/193/147 112/194/88
f 110/192/87 62/87/148 111/193/147
f 62/87/92 63/88/91 111/193/149
f 113/195/92 114/196/93 115/197/91
f 114/196/93 84/198/94 115/197/91
f 114/196/93 85/199/95 84/198/94
f 49/92/96 100/200/97 93/201/98
f 49/92/96 93/201/98 92/202/99
f 102/203/100 49/92/96 92/202/99
f 102/203/100 92/202/99 89/204/101
f 103/205/102 102/203/100 89/204/101
f 103/205/102 89/204/101 106/206/103
f 106/206/103 89/204/101 35/100/104
f 104/207/105 106/206/103 35/100/104
f 104/207/105 35/100/104 34/102/106
f 108/208/107 104/207/105 34/102/106
f 108/208/107 34/102/106 33/104/108
f 32/105/109 108/208/107 33/104/108
f 109/209/110 108/208/107 32/105/109
f 109/209/110 32/105/109 31/107/111
f 58/108/112 109/209/110 31/107/111
f 31/107/111 88/210/113 58/108/112
f 88/210/113 110/211/114 58/108/112
f 88/210/113 113/212/115 110/211/114
f 87/213/116 113/212/115 88/210/113
f 87/213/116 114/214/117 113/212/115
f 26/114/118 114/214/117 87/213/116
f 26/114/118 85/215/119 114/214/117
f 99/216/120 98/217/121 94/218/122
f 98/217/121 90/219/123 94/218/122
f 98/217/121 101/220/124 90/219/123
f 101/220/124 91/221/125 90/219/123
f 101/220/124 53/122/150 91/221/125
f 53/122/150 80/171/127 91/221/125
f 53/122/150 105/222/128 80/171/127
f 84/223/129 83/224/130 115/225/151
f 86/226/132 115/225/151 83/224/130
f 86/226/132 111/227/133 115/225/131
f 30/128/134 111/227/133 86/226/132
f 30/128/134 112/228/135 111/227/133
f 82/168/152 112/228/135 30/128/134
f 82/168/136 107/229/136 112/228/135
