# Blender v2.79 (sub 0) OBJ File: ''
# www.blender.org
mtllib short sword.mtl
o short_sword_shortsword2
v -0.001800 -0.368500 4.423000
v -1.069500 0.000000 6.553800
v -1.696100 0.000000 4.423000
v -0.001800 -0.138200 27.550301
v -0.602600 0.000000 27.550301
v -0.431800 0.000000 28.619101
v -0.001800 0.000000 29.687901
v 0.428200 0.000000 28.619101
v 0.598900 0.000000 27.550301
v 1.065800 0.000000 6.553800
v 1.692500 0.000000 4.423000
v 0.433300 -0.266900 -0.473400
v 0.577400 -0.321700 2.368900
v 0.000000 -0.473300 2.368900
v 0.978100 -0.315100 4.524300
v 0.000000 -0.463600 4.524300
v -0.978100 -0.315100 4.524300
v -0.577400 -0.321700 2.368900
v 0.000000 -0.392600 -0.473400
v 0.389100 -0.284500 -4.067000
v 0.000000 -0.418600 -4.067000
v -0.433300 -0.266900 -0.473400
v -0.389100 -0.284500 -4.067000
v -0.978100 0.315100 4.524300
v 0.000000 0.463600 4.524300
v -0.577400 0.321700 2.368900
v 0.433300 0.266900 -0.473400
v 0.389100 0.284500 -4.067000
v 0.000000 0.418600 -4.067000
v 0.000000 0.392600 -0.473400
v 0.577400 0.321700 2.368900
v 0.000000 0.473300 2.368900
v 0.978100 0.315100 4.524300
v -0.433300 0.266900 -0.473400
v -0.389100 0.284500 -4.067000
v 0.000000 0.000000 -6.259200
v -0.739800 -0.399500 -5.042400
v -0.739800 0.399500 -5.042400
v 1.020700 -0.326500 4.939400
v 0.583400 0.387600 5.057300
v 0.583400 -0.387600 5.057300
v 1.020700 0.326500 4.939400
v -3.906900 -0.067600 5.332400
v -3.008400 0.129200 4.970500
v -3.906900 0.076000 5.332400
v -3.008400 -0.127500 4.970500
v 3.906900 0.076000 5.332400
v 3.008400 -0.127500 4.970500
v 3.906900 -0.067600 5.332400
v 3.008400 0.129200 4.970500
v -4.372200 -0.090900 4.604800
v -4.372200 0.106200 4.604800
v 4.372200 0.106200 4.604800
v 4.372200 -0.090900 4.604800
v 0.000000 -0.773800 -5.042400
v 0.739800 -0.399500 -5.042400
v 0.000000 0.773800 -5.042400
v 0.739800 0.399500 -5.042400
v -1.289400 0.389700 3.840600
v -1.020700 -0.326500 4.939400
v -1.020700 0.326500 4.939400
v -1.289400 -0.389700 3.840600
v 1.289400 0.389700 3.840600
v 1.289400 -0.389700 3.840600
v 0.000000 -0.584000 3.442100
v 0.011200 -0.437000 5.621000
v -0.583400 0.387600 5.057300
v -0.583400 -0.387600 5.057300
v 0.011200 0.437000 5.621000
v -2.841600 0.186600 4.323500
v 0.000000 0.329600 4.124000
v 0.000000 0.329600 4.848200
v -2.841600 -0.171300 4.323500
v 0.000000 -0.328700 4.124000
v 2.841600 -0.171300 4.323500
v 2.841600 0.186600 4.323500
v -0.001800 0.368500 4.423000
v -0.001800 0.138200 27.550301
v 0.000000 -0.328700 4.848200
v 0.000000 0.584000 3.442100
v -0.001800 -0.368500 4.423000
v -1.069500 0.000000 6.553800
v -1.696100 0.000000 4.423000
v -0.001800 -0.138200 27.550301
v -0.431800 0.000000 28.619101
v -0.602600 0.000000 27.550301
v 0.433300 -0.266900 -0.473400
v 0.577400 -0.321700 2.368900
v 0.000000 -0.473300 2.368900
v 0.000000 -0.392600 -0.473400
v 0.000000 -0.418600 -4.067000
v 0.389100 -0.284500 -4.067000
v -0.978100 0.315100 4.524300
v 0.000000 0.463600 4.524300
v -0.577400 0.321700 2.368900
v 0.433300 0.266900 -0.473400
v 0.389100 0.284500 -4.067000
v 0.000000 0.418600 -4.067000
v 0.577400 0.321700 2.368900
v 0.000000 0.392600 -0.473400
v 0.000000 0.473300 2.368900
v 0.000000 0.000000 -6.259200
v -0.739800 -0.399500 -5.042400
v -0.739800 0.399500 -5.042400
v 1.020700 -0.326500 4.939400
v 0.583400 0.387600 5.057300
v 0.583400 -0.387600 5.057300
v -3.906900 -0.067600 5.332400
v -3.008400 0.129200 4.970500
v -3.906900 0.076000 5.332400
v 3.906900 0.076000 5.332400
v 3.008400 -0.127500 4.970500
v 3.906900 -0.067600 5.332400
v -1.289400 0.389700 3.840600
v -1.020700 -0.326500 4.939400
v -1.020700 0.326500 4.939400
v 0.011200 -0.437000 5.621000
v -0.583400 0.387600 5.057300
v -0.583400 -0.387600 5.057300
v -4.372200 0.106200 4.604800
v -2.841600 -0.171300 4.323500
v -4.372200 -0.090900 4.604800
v 0.000000 0.329600 4.124000
v 2.841600 -0.171300 4.323500
v 0.000000 -0.328700 4.124000
v -0.001800 0.368500 4.423000
v 1.065800 0.000000 6.553800
v 1.692500 0.000000 4.423000
v -0.001800 0.138200 27.550301
v 0.428200 0.000000 28.619101
v 0.598900 0.000000 27.550301
v -0.433300 -0.266900 -0.473400
v -0.389100 0.284500 -4.067000
v -0.389100 -0.284500 -4.067000
v 0.000000 -0.328700 4.848200
v 3.008400 0.129200 4.970500
v 0.000000 0.329600 4.848200
v -1.289400 -0.389700 3.840600
v 0.000000 0.584000 3.442100
v 0.000000 -0.584000 3.442100
vt 0.620100 -0.996100
vt 0.500000 -0.936500
vt 0.428700 -0.996100
vt 0.620100 -0.302700
vt 0.552700 -0.302700
vt 0.571300 -0.272500
vt 0.620100 -0.242200
vt 0.668900 -0.272500
vt 0.687500 -0.302700
vt 0.740200 -0.936500
vt 0.811500 -0.996100
vt 0.813500 -0.166000
vt 0.835000 -0.072300
vt 0.758800 -0.072300
vt 0.887700 -0.002000
vt 0.758800 -0.002000
vt 0.629900 -0.002000
vt 0.682600 -0.072300
vt 0.758800 -0.166000
vt 0.813500 -0.293900
vt 0.758800 -0.293900
vt 0.705100 -0.166000
vt 0.705100 -0.293900
vt 0.887700 -0.002000
vt 0.758800 -0.002000
vt 0.835000 -0.072300
vt 0.705100 -0.166000
vt 0.705100 -0.293900
vt 0.758800 -0.293900
vt 0.758800 -0.166000
vt 0.682600 -0.072300
vt 0.758800 -0.072300
vt 0.629900 -0.002000
vt 0.813500 -0.166000
vt 0.813500 -0.293900
vt 0.606400 -0.145500
vt 0.659200 -0.105500
vt 0.553700 -0.105500
vt 0.063500 -0.127000
vt 0.119100 -0.149400
vt 0.119100 -0.125000
vt 0.063500 -0.147500
vt 0.832000 -0.903300
vt 0.804700 -0.873000
vt 0.812500 -0.903300
vt 0.839800 -0.872100
vt 0.812500 -0.635700
vt 0.839800 -0.666000
vt 0.832000 -0.635700
vt 0.804700 -0.667000
vt 0.878900 -0.644500
vt 0.978500 -0.638700
vt 0.878900 -0.639600
vt 0.978500 -0.645500
vt 0.878900 -0.639600
vt 0.978500 -0.645500
vt 0.878900 -0.644500
vt 0.978500 -0.638700
vt 0.435500 -0.105500
vt 0.338900 -0.105500
vt 0.435500 -0.145500
vt 0.533200 -0.105500
vt 0.435500 -0.105500
vt 0.533200 -0.105500
vt 0.338900 -0.105500
vt 0.380900 -0.007800
vt 0.471700 -0.043000
vt 0.388700 -0.043000
vt 0.480500 -0.007800
vt 0.380900 -0.007800
vt 0.471700 -0.043000
vt 0.480500 -0.007800
vt 0.388700 -0.043000
vt 0.644500 -0.074200
vt 0.569300 -0.074200
vt 0.659200 -0.105500
vt 0.569300 -0.074200
vt 0.644500 -0.074200
vt 0.553700 -0.105500
vt 0.191400 -0.047900
vt 0.061500 -0.095700
vt 0.117200 -0.099600
vt 0.027300 -0.060500
vt 0.191400 -0.123000
vt 0.267600 -0.149400
vt 0.267600 -0.125000
vt 0.191400 -0.151400
vt 0.323200 -0.127000
vt 0.323200 -0.147500
vt 0.738300 -0.329100
vt 0.876000 -0.365200
vt 0.837900 -0.312500
vt 0.787100 -0.359400
vt 0.903300 -0.462900
vt 0.804700 -0.462900
vt 0.191400 -0.117200
vt 0.265600 -0.099600
vt 0.321300 -0.095700
vt 0.355500 -0.060500
vt 0.921900 -0.670900
vt 0.960000 -0.723600
vt 0.949200 -0.670900
vt 0.911100 -0.723600
vt 0.891600 -0.821300
vt 0.981400 -0.821300
vt 0.960000 -0.918000
vt 0.911100 -0.918000
vt 0.921900 -0.970700
vt 0.949200 -0.970700
vt 0.620100 -0.996100
vt 0.500000 -0.936500
vt 0.428700 -0.996100
vt 0.620100 -0.302700
vt 0.552700 -0.302700
vt 0.571300 -0.272500
vt 0.668900 -0.272500
vt 0.687500 -0.302700
vt 0.740200 -0.936500
vt 0.811500 -0.996100
vt 0.787100 -0.565400
vt 0.876000 -0.559600
vt 0.738300 -0.596700
vt 0.837900 -0.611300
vt 0.837900 -0.611300
vt 0.876000 -0.559600
vt 0.738300 -0.596700
vt 0.787100 -0.565400
vt 0.903300 -0.462900
vt 0.804700 -0.462900
vt 0.787100 -0.359400
vt 0.876000 -0.365200
vt 0.738300 -0.329100
vt 0.837900 -0.312500
vt 0.906300 -0.166000
vt 0.984400 -0.293900
vt 0.906300 -0.293900
vt 0.984400 -0.166000
vt 0.906300 -0.072300
vt 0.984400 -0.072300
vt 0.906300 -0.002000
vt 0.984400 -0.002000
vt 0.435500 -0.074200
vt 0.487300 -0.074200
vt 0.384800 -0.074200
vt 0.984400 -0.166000
vt 0.906300 -0.293900
vt 0.984400 -0.293900
vt 0.906300 -0.166000
vt 0.984400 -0.072300
vt 0.906300 -0.072300
vt 0.984400 -0.002000
vt 0.906300 -0.002000
vt 0.435500 -0.074200
vt 0.487300 -0.074200
vt 0.384800 -0.074200
vt 0.867200 -0.769500
vt 0.777300 -0.769500
vt 0.024400 -0.035200
vt 0.188500 -0.041000
vt 0.024400 -0.010700
vt 0.188500 -0.003900
vt 0.352500 -0.010700
vt 0.352500 -0.035200
vt 0.117200 -0.099600
vt 0.027300 -0.060500
vt 0.061500 -0.095700
vt 0.191400 -0.047900
vt 0.191400 -0.117200
vt 0.265600 -0.099600
vt 0.355500 -0.060500
vt 0.321300 -0.095700
vt 0.620100 -0.996100
vt 0.500000 -0.936500
vt 0.428700 -0.996100
vt 0.620100 -0.302700
vt 0.571300 -0.272500
vt 0.552700 -0.302700
vt 0.813500 -0.166000
vt 0.835000 -0.072300
vt 0.758800 -0.072300
vt 0.758800 -0.166000
vt 0.758800 -0.293900
vt 0.813500 -0.293900
vt 0.887700 -0.002000
vt 0.758800 -0.002000
vt 0.835000 -0.072300
vt 0.705100 -0.166000
vt 0.705100 -0.293900
vt 0.758800 -0.293900
vt 0.682600 -0.072300
vt 0.758800 -0.166000
vt 0.758800 -0.072300
vt 0.606400 -0.145500
vt 0.659200 -0.105500
vt 0.553700 -0.105500
vt 0.063500 -0.127000
vt 0.119100 -0.149400
vt 0.119100 -0.125000
vt 0.832000 -0.903300
vt 0.804700 -0.873000
vt 0.812500 -0.903300
vt 0.812500 -0.635700
vt 0.839800 -0.666000
vt 0.832000 -0.635700
vt 0.878900 -0.644500
vt 0.878900 -0.639600
vt 0.878900 -0.639600
vt 0.878900 -0.644500
vt 0.338900 -0.105500
vt 0.435500 -0.145500
vt 0.533200 -0.105500
vt 0.380900 -0.007800
vt 0.471700 -0.043000
vt 0.388700 -0.043000
vt 0.471700 -0.043000
vt 0.569300 -0.074200
vt 0.644500 -0.074200
vt 0.061500 -0.095700
vt 0.117200 -0.099600
vt 0.191400 -0.123000
vt 0.267600 -0.149400
vt 0.267600 -0.125000
vt 0.323200 -0.127000
vt 0.323200 -0.147500
vt 0.738300 -0.329100
vt 0.787100 -0.359400
vt 0.191400 -0.117200
vt 0.265600 -0.099600
vt 0.321300 -0.095700
vt 0.921900 -0.670900
vt 0.960000 -0.723600
vt 0.949200 -0.670900
vt 0.891600 -0.821300
vt 0.960000 -0.918000
vt 0.981400 -0.821300
vt 0.620100 -0.996100
vt 0.500000 -0.936500
vt 0.428700 -0.996100
vt 0.620100 -0.302700
vt 0.571300 -0.272500
vt 0.552700 -0.302700
vt 0.668900 -0.272500
vt 0.687500 -0.302700
vt 0.740200 -0.936500
vt 0.811500 -0.996100
vt 0.903300 -0.462900
vt 0.738300 -0.596700
vt 0.837900 -0.611300
vt 0.876000 -0.559600
vt 0.738300 -0.596700
vt 0.903300 -0.462900
vt 0.787100 -0.359400
vt 0.876000 -0.365200
vt 0.738300 -0.329100
vt 0.906300 -0.166000
vt 0.984400 -0.293900
vt 0.906300 -0.293900
vt 0.984400 -0.166000
vt 0.906300 -0.072300
vt 0.984400 -0.072300
vt 0.435500 -0.074200
vt 0.487300 -0.074200
vt 0.984400 -0.166000
vt 0.906300 -0.293900
vt 0.984400 -0.293900
vt 0.906300 -0.072300
vt 0.906300 -0.002000
vt 0.435500 -0.074200
vt 0.487300 -0.074200
vt 0.384800 -0.074200
vt 0.867200 -0.769500
vt 0.804700 -0.667000
vt 0.777300 -0.769500
vt 0.024400 -0.035200
vt 0.024400 -0.010700
vt 0.188500 -0.041000
vt 0.188500 -0.003900
vt 0.117200 -0.099600
vt 0.027300 -0.060500
vt 0.061500 -0.095700
vt 0.191400 -0.047900
vt 0.265600 -0.099600
vn -0.2121 -0.9753 0.0624
vn 0.0000 -0.9997 0.0244
vn -0.3084 -0.9512 0.0094
vn 0.1155 -0.9926 0.0386
vn -0.2241 -0.9744 0.0195
vn -0.1708 -0.9836 0.0584
vn 0.0000 -0.9979 0.0645
vn 0.1708 -0.9836 0.0584
vn 0.2242 -0.9744 0.0195
vn 0.2871 -0.9577 0.0213
vn 0.2121 -0.9753 0.0624
vn 0.2770 -0.9608 -0.0135
vn 0.2398 -0.9707 -0.0164
vn 0.0079 -0.9997 -0.0220
vn 0.1501 -0.9884 -0.0249
vn 0.0091 -0.9999 -0.0078
vn -0.1689 -0.9856 -0.0043
vn -0.2554 -0.9662 -0.0365
vn 0.0017 -0.9999 -0.0132
vn 0.7930 -0.5683 0.2194
vn 0.0020 -1.0000 0.0042
vn -0.2803 -0.9598 -0.0134
vn -0.7948 -0.5672 0.2158
vn -0.2549 -0.9663 -0.0366
vn -0.1501 0.9884 -0.0249
vn -0.0091 0.9999 -0.0078
vn -0.2398 0.9707 -0.0164
vn 0.2803 0.9598 -0.0134
vn 0.7948 0.5672 0.2158
vn -0.0020 1.0000 0.0042
vn -0.0017 0.9999 -0.0132
vn 0.2549 0.9663 -0.0366
vn 0.2554 0.9662 -0.0365
vn -0.0079 0.9997 -0.0220
vn 0.1689 0.9856 -0.0043
vn -0.2770 0.9608 -0.0135
vn -0.7930 0.5683 0.2194
vn -0.8545 0.0000 -0.5195
vn 0.2603 0.0000 0.9655
vn 0.3736 0.0000 0.9276
vn -0.3736 0.0000 0.9276
vn -0.8425 0.0000 0.5388
vn 0.8425 0.0000 0.5388
vn -0.0000 -0.8438 -0.5366
vn -0.3926 -0.7761 -0.4935
vn 0.0000 -0.0000 -1.0000
vn 0.3926 -0.7761 -0.4935
vn 0.0000 0.8438 -0.5366
vn 0.0001 -0.0000 -1.0000
vn -0.3926 0.7761 -0.4935
vn 0.3926 0.7761 -0.4935
vn -0.9714 0.0000 0.2375
vn 0.9714 0.0000 0.2375
vn -0.9410 0.0000 0.3383
vn 0.9410 0.0000 0.3383
vn 0.1312 -0.9881 0.0805
vn 0.1417 -0.9872 0.0732
vn 0.5599 -0.6559 0.5063
vn 0.1222 -0.9887 0.0867
vn -0.6880 0.0000 0.7257
vn -0.2603 0.0000 0.9655
vn -0.0261 0.9963 0.0817
vn -0.0446 0.9960 0.0768
vn -0.0401 0.9969 0.0670
vn -0.0487 0.9968 0.0628
vn -0.0635 0.9979 0.0105
vn -0.0665 0.9978 0.0000
vn 0.7018 0.0000 0.7124
vn 0.5600 -0.6559 0.5062
vn 0.0013 -0.9977 0.0673
vn -0.0751 -0.9944 0.0750
vn 0.1500 -0.9865 0.0658
vn -0.1500 -0.9865 0.0658
vn -0.1417 -0.9872 0.0732
vn -0.1222 -0.9887 0.0867
vn 0.8545 0.0000 -0.5195
vn -0.1808 0.0000 -0.9835
vn -0.1237 0.0000 -0.9923
vn -0.1238 0.0000 -0.9923
vn 0.1237 -0.0000 -0.9923
vn 0.1238 0.0000 -0.9923
vn 0.1236 0.0000 -0.9923
vn 0.1808 0.0000 -0.9835
vn 0.0000 0.9989 0.0476
vn 0.2871 0.9577 0.0213
vn 0.2121 0.9753 0.0624
vn 0.0000 0.9997 0.0244
vn 0.2242 0.9744 0.0195
vn 0.1708 0.9836 0.0584
vn 0.2242 0.9743 0.0195
vn 0.0000 0.9979 0.0645
vn -0.1708 0.9836 0.0584
vn -0.2241 0.9744 0.0195
vn -0.2871 0.9577 0.0213
vn -0.2121 0.9753 0.0624
vn 0.0261 0.9963 0.0817
vn 0.0635 0.9979 0.0105
vn 0.0665 0.9978 0.0000
vn 0.0401 0.9969 0.0670
vn -0.0416 -0.9974 0.0586
vn -0.0482 -0.9973 0.0554
vn -0.0421 -0.9974 0.0581
vn -0.0477 -0.9975 0.0519
vn 0.0000 -1.0000 0.0074
vn 0.0000 -1.0000 0.0000
vn 0.0477 -0.9975 0.0519
vn 0.0482 -0.9973 0.0554
vn 0.0421 -0.9974 0.0581
vn 0.0416 -0.9974 0.0586
vn 0.9995 0.0000 -0.0316
vn 0.9999 0.0000 -0.0123
vn 0.9931 0.0000 -0.1173
vn 0.9832 0.0000 -0.1828
vn 0.0316 -0.9496 0.3118
vn 0.4025 -0.8688 0.2883
vn 0.3176 -0.9216 0.2229
vn 0.0137 -0.9467 0.3219
vn -0.3616 -0.8832 0.2988
vn -0.4361 -0.8620 0.2584
vn -0.9995 0.0000 -0.0316
vn -0.9999 0.0000 -0.0123
vn -0.9995 0.0000 -0.0313
vn -0.9931 0.0000 -0.1173
vn -0.9931 0.0000 -0.1172
vn -0.9832 0.0000 -0.1828
vn -0.0316 0.9496 0.3118
vn -0.4025 0.8688 0.2883
vn -0.3176 0.9216 0.2229
vn -0.0137 0.9467 0.3219
vn 0.3616 0.8832 0.2988
vn 0.4361 0.8620 0.2584
vn 0.0406 0.0000 0.9992
vn -0.0000 0.0000 1.0000
vn -0.0406 0.0000 0.9992
vn -0.2953 0.0000 -0.9554
vn 0.2953 0.0000 -0.9554
vn -0.1448 0.9866 0.0755
vn -0.1326 0.9880 0.0786
vn -0.1632 0.9819 0.0964
vn -0.0000 0.9973 0.0732
vn 0.0013 0.9977 0.0673
vn 0.1471 0.9863 0.0746
vn 0.1326 0.9880 0.0786
vn 0.1632 0.9819 0.0964
vn -0.3081 -0.9513 0.0094
vn -0.1236 0.0000 -0.9923
vn -0.0477 -0.9975 0.0518
vn 0.9995 -0.0000 -0.0321
vn 0.9995 -0.0000 -0.0313
vn 0.9931 -0.0000 -0.1172
usemtl demonssouls_shortswordspec
s 1
f 1/1/1 2/2/1 3/3/1
f 4/4/2 2/2/3 1/1/4
f 2/2/3 4/4/2 5/5/5
f 4/4/2 6/6/6 5/5/5
f 4/4/2 7/7/7 6/6/6
f 7/7/7 4/4/2 8/8/8
f 4/4/2 9/9/9 8/8/8
f 4/4/2 10/10/10 9/9/9
f 4/4/2 1/1/4 10/10/10
f 10/10/10 1/1/4 11/11/11
f 12/12/12 13/13/13 14/14/14
f 15/15/15 16/16/16 13/13/13
f 16/16/16 14/14/14 13/13/13
f 16/16/16 17/17/17 14/14/14
f 18/18/18 14/14/14 17/17/17
f 18/18/18 19/19/19 14/14/14
f 14/14/14 19/19/19 12/12/12
f 19/19/19 20/20/20 12/12/12
f 19/19/19 21/21/21 20/20/20
f 22/22/22 21/21/21 19/19/19
f 22/22/22 23/23/23 21/21/21
f 18/18/24 22/22/22 19/19/19
f 24/24/25 25/25/26 26/26/27
f 27/27/28 28/28/29 29/29/30
f 27/27/28 29/29/30 30/30/31
f 31/31/32 27/27/28 30/30/31
f 31/31/33 30/30/31 32/32/34
f 31/31/33 32/32/34 33/33/35
f 25/25/26 33/33/35 32/32/34
f 25/25/26 32/32/34 26/26/27
f 34/34/36 26/26/27 32/32/34
f 32/32/34 30/30/31 34/34/36
f 30/30/31 35/35/37 34/34/36
f 30/30/31 29/29/30 35/35/37
f 36/36/38 37/37/38 38/38/38
f 39/39/39 40/40/39 41/41/39
f 39/39/39 42/42/39 40/40/39
f 43/43/40 44/44/40 45/45/40
f 44/44/40 43/43/40 46/46/40
f 47/47/41 48/48/41 49/49/41
f 48/48/41 47/47/41 50/50/41
f 45/51/42 51/52/42 43/53/42
f 45/51/42 52/54/42 51/52/42
f 49/55/43 53/56/43 47/57/43
f 49/55/43 54/58/43 53/56/43
f 55/59/44 37/60/45 36/61/46
f 55/59/44 36/61/46 56/62/47
f 57/63/48 36/61/49 38/64/50
f 57/63/48 58/65/51 36/61/49
f 59/66/52 60/67/52 61/68/52
f 59/66/52 62/69/52 60/67/52
f 63/70/53 39/71/53 64/72/53
f 63/70/53 42/73/53 39/71/53
f 38/38/54 23/74/23 35/75/37
f 38/38/54 37/37/54 23/74/23
f 56/76/55 28/77/29 20/78/20
f 56/76/55 58/79/55 28/77/29
f 65/80/56 39/81/57 41/82/58
f 65/80/56 64/83/59 39/81/57
f 66/84/60 67/85/60 68/86/60
f 69/87/60 67/85/60 66/84/60
f 67/85/61 60/88/61 68/86/61
f 67/85/61 61/89/61 60/88/61
f 45/90/62 70/91/63 52/92/64
f 70/91/63 45/90/62 44/93/65
f 44/93/65 71/94/66 70/91/63
f 44/93/65 72/95/67 71/94/66
f 66/84/68 40/40/68 69/87/68
f 66/84/68 41/41/69 40/40/68
f 66/96/70 65/80/71 41/82/72
f 65/80/71 66/96/70 68/97/73
f 65/80/71 68/97/73 60/98/74
f 62/99/75 65/80/71 60/98/74
f 36/36/76 58/79/76 56/76/76
f 52/100/77 73/101/78 51/102/77
f 70/103/79 73/101/78 52/100/77
f 70/103/79 71/104/46 73/101/78
f 73/101/78 71/104/46 74/105/46
f 71/104/46 75/106/80 74/105/46
f 71/104/46 76/107/81 75/106/82
f 53/108/83 75/106/82 76/107/81
f 53/108/83 54/109/83 75/106/82
f 77/110/84 10/111/85 11/112/86
f 77/110/84 78/113/87 10/111/85
f 10/111/85 78/113/87 9/114/88
f 78/113/87 8/115/89 9/114/90
f 78/113/87 7/7/91 8/115/89
f 7/7/91 78/113/87 6/116/92
f 78/113/87 5/117/93 6/116/92
f 78/113/87 2/118/94 5/117/93
f 77/110/84 2/118/94 78/113/87
f 77/110/84 3/119/95 2/118/94
f 50/120/96 71/94/97 72/95/98
f 50/120/96 76/121/96 71/94/97
f 47/122/96 76/121/96 50/120/96
f 76/121/96 47/122/96 53/123/99
f 51/124/100 73/125/101 43/126/102
f 73/125/101 46/127/103 43/126/102
f 73/125/101 74/128/104 46/127/103
f 46/127/103 74/128/104 79/129/105
f 74/128/104 48/130/106 79/129/105
f 74/128/104 75/131/107 48/130/106
f 75/131/107 49/132/108 48/130/106
f 75/131/107 54/133/109 49/132/108
f 27/134/110 20/135/111 28/136/111
f 27/134/110 12/137/110 20/135/111
f 31/138/112 12/137/110 27/134/110
f 31/138/112 13/139/112 12/137/110
f 33/140/113 13/139/112 31/138/112
f 33/140/113 15/141/113 13/139/112
f 21/142/114 56/62/115 20/143/116
f 21/142/114 55/59/117 56/62/115
f 23/144/118 55/59/117 21/142/114
f 23/144/118 37/60/119 55/59/117
f 22/145/120 35/146/121 23/147/121
f 22/145/120 34/148/122 35/146/121
f 18/149/123 34/148/122 22/145/120
f 18/149/124 26/150/123 34/148/120
f 17/151/125 26/150/123 18/149/124
f 17/151/125 24/152/125 26/150/123
f 29/153/126 38/64/127 35/154/128
f 29/153/126 57/63/129 38/64/127
f 28/155/130 57/63/129 29/153/126
f 28/155/130 58/65/131 57/63/129
f 46/46/132 79/156/133 44/44/132
f 44/44/132 79/156/133 72/157/133
f 79/156/133 50/50/134 72/157/133
f 79/156/133 48/48/134 50/50/134
f 59/158/135 80/159/46 62/160/135
f 62/160/135 80/159/46 65/161/46
f 80/159/46 64/162/136 65/161/46
f 80/159/46 63/163/136 64/162/136
f 67/164/137 59/165/138 61/166/139
f 67/164/137 80/167/140 59/165/138
f 69/168/141 80/167/140 67/164/137
f 69/168/141 40/169/142 80/167/140
f 40/169/142 63/170/143 80/167/140
f 40/169/142 42/171/144 63/170/143
usemtl demonssouls_shortsword
f 81/172/1 82/173/1 83/174/1
f 4/4/2 82/173/145 81/172/4
f 82/173/3 4/4/2 5/5/5
f 84/175/2 85/176/6 86/177/5
f 84/175/2 7/7/7 85/176/6
f 7/7/7 84/175/2 8/8/8
f 84/175/2 9/9/9 8/8/8
f 84/175/2 10/10/10 9/9/9
f 84/175/2 81/172/4 10/10/10
f 10/10/10 81/172/4 11/11/11
f 87/178/12 88/179/13 89/180/14
f 15/15/15 16/16/16 88/179/13
f 16/16/16 89/180/14 88/179/13
f 16/16/16 17/17/17 89/180/14
f 18/18/18 89/180/14 17/17/17
f 18/18/18 19/19/19 89/180/14
f 89/180/14 19/19/19 87/178/12
f 19/19/19 20/20/20 87/178/12
f 90/181/19 91/182/21 92/183/20
f 22/22/22 91/182/21 90/181/19
f 22/22/22 23/23/23 91/182/21
f 18/18/24 22/22/22 90/181/19
f 93/184/25 94/185/26 95/186/27
f 96/187/28 97/188/29 98/189/30
f 96/187/28 98/189/30 30/30/31
f 31/31/32 96/187/28 30/30/31
f 99/190/33 100/191/31 101/192/34
f 99/190/33 101/192/34 33/33/35
f 94/185/26 33/33/35 101/192/34
f 94/185/26 101/192/34 95/186/27
f 34/34/36 95/186/27 101/192/34
f 101/192/34 100/191/31 34/34/36
f 100/191/31 35/35/37 34/34/36
f 100/191/31 98/189/30 35/35/37
f 102/193/38 103/194/38 104/195/38
f 105/196/39 106/197/39 107/198/39
f 105/196/39 42/42/39 106/197/39
f 108/199/40 109/200/40 110/201/40
f 109/200/40 108/199/40 46/46/40
f 111/202/41 112/203/41 113/204/41
f 112/203/41 111/202/41 50/50/41
f 110/205/42 51/52/42 108/206/42
f 110/205/42 52/54/42 51/52/42
f 113/207/43 53/56/43 111/208/43
f 113/207/43 54/58/43 53/56/43
f 55/59/44 103/209/45 102/210/46
f 55/59/44 102/210/46 56/62/47
f 57/63/48 102/210/49 104/211/50
f 57/63/48 58/65/51 102/210/49
f 114/212/52 115/213/52 116/214/52
f 114/212/52 62/69/52 115/213/52
f 63/70/53 105/215/53 64/72/53
f 63/70/53 42/73/53 105/215/53
f 104/195/54 23/74/23 35/75/37
f 104/195/54 103/194/54 23/74/23
f 56/76/55 97/216/29 92/217/20
f 56/76/55 58/79/55 97/216/29
f 65/80/56 105/218/57 107/219/58
f 65/80/56 64/83/59 105/218/57
f 117/220/60 118/221/60 119/222/60
f 69/87/60 118/221/60 117/220/60
f 118/221/61 115/223/61 119/222/61
f 118/221/61 116/224/61 115/223/61
f 110/225/62 70/91/63 52/92/64
f 70/91/63 110/225/62 109/226/65
f 109/226/65 71/94/66 70/91/63
f 109/226/65 72/95/67 71/94/66
f 117/220/68 106/197/68 69/87/68
f 117/220/68 107/198/69 106/197/68
f 117/227/70 65/80/71 107/219/72
f 65/80/71 117/227/70 119/228/73
f 65/80/71 119/228/73 115/229/74
f 62/99/75 65/80/71 115/229/74
f 102/193/76 58/79/76 56/76/76
f 120/230/77 121/231/146 122/232/77
f 70/103/79 121/231/146 120/230/77
f 70/103/79 71/104/46 121/231/146
f 121/231/78 71/104/46 74/105/46
f 123/233/46 124/234/80 125/235/46
f 123/233/46 76/107/81 124/234/82
f 53/108/83 124/234/82 76/107/81
f 53/108/83 54/109/83 124/234/82
f 126/236/84 127/237/85 128/238/86
f 126/236/84 78/113/87 127/237/85
f 127/237/85 78/113/87 9/114/88
f 129/239/87 130/240/89 131/241/90
f 129/239/87 7/7/91 130/240/89
f 7/7/91 129/239/87 85/242/92
f 129/239/87 86/243/93 85/242/92
f 129/239/87 82/244/94 86/243/93
f 126/236/84 82/244/94 129/239/87
f 126/236/84 83/245/95 82/244/94
f 50/120/96 123/246/97 72/95/98
f 50/120/96 76/121/96 123/246/97
f 111/247/96 76/121/96 50/120/96
f 76/121/96 111/247/96 53/123/99
f 122/248/100 121/249/101 108/250/102
f 121/249/101 46/127/147 108/250/102
f 121/249/101 125/251/104 46/127/147
f 46/127/103 125/251/104 79/129/105
f 125/251/104 112/252/106 79/129/105
f 125/251/104 124/253/107 112/252/106
f 124/253/107 113/254/108 112/252/106
f 124/253/107 54/133/109 113/254/108
f 96/255/110 92/256/111 97/257/111
f 96/255/148 87/258/149 92/256/111
f 99/259/112 87/258/149 96/255/148
f 99/259/150 88/260/112 87/258/110
f 33/140/113 88/260/112 99/259/150
f 33/140/113 15/141/113 88/260/112
f 91/261/114 56/62/115 92/262/116
f 91/261/114 55/59/117 56/62/115
f 23/144/118 55/59/117 91/261/114
f 23/144/118 103/209/119 55/59/117
f 132/263/120 133/264/121 134/265/121
f 132/263/120 34/148/122 133/264/121
f 18/149/123 34/148/122 132/263/120
f 18/149/124 95/266/123 34/148/120
f 17/151/125 95/266/123 18/149/124
f 17/151/125 93/267/125 95/266/123
f 98/268/126 104/211/127 133/269/128
f 98/268/126 57/63/129 104/211/127
f 97/270/130 57/63/129 98/268/126
f 97/270/130 58/65/131 57/63/129
f 46/46/132 79/156/133 109/200/132
f 109/200/132 79/156/133 72/157/133
f 135/271/133 136/272/134 137/273/133
f 135/271/133 112/203/134 136/272/134
f 114/274/135 80/159/46 62/160/135
f 138/275/135 139/276/46 140/277/46
f 139/276/46 64/162/136 140/277/46
f 139/276/46 63/163/136 64/162/136
f 118/278/137 114/279/138 116/280/139
f 118/278/137 139/281/140 114/279/138
f 69/168/141 139/281/140 118/278/137
f 69/168/141 106/282/142 139/281/140
f 106/282/142 63/170/143 139/281/140
f 106/282/142 42/171/144 63/170/143
