# Blender v2.79 (sub 0) OBJ File: ''
# www.blender.org
mtllib cut throwing dagger.mtl
o cut_throwing_dagger_throwingdagger2
v -0.327500 -0.343300 0.402800
v 0.324100 -0.339400 1.702300
v -0.323800 -0.339400 1.702300
v -0.002300 -0.298300 1.702200
v -0.002300 0.292700 1.702200
v 0.729700 -0.002800 1.702200
v -0.737400 -0.002800 1.702200
v -0.327500 0.343300 0.402800
v -0.782200 0.000000 -2.030000
v -0.655200 0.000000 0.402800
v -0.391000 0.409900 -2.030000
v -0.643800 0.000000 -3.650400
v 0.000100 0.000000 -4.426600
v -0.215500 -0.225800 -4.164700
v -0.431100 0.000000 -4.164700
v -0.321800 -0.337300 -3.650400
v -0.391000 -0.409900 -2.030000
v -0.647800 0.000000 1.702300
v -0.323800 0.339400 1.702300
v 0.324100 0.339400 1.702300
v 0.327800 0.343300 0.402800
v 0.655500 0.000000 0.402800
v 0.782500 0.000000 -2.030000
v 0.327800 -0.343300 0.402800
v 0.391300 -0.409800 -2.030000
v 0.648100 0.000000 1.702300
v 0.322100 -0.337300 -3.650400
v 0.215800 -0.225800 -4.164700
v 0.644100 0.000000 -3.650400
v 0.431400 0.000000 -4.164700
v -0.215500 0.225800 -4.164700
v -0.321800 0.337300 -3.650400
v 0.391300 0.409900 -2.030000
v 0.322100 0.337300 -3.650400
v 0.215800 0.225800 -4.164700
v -0.633300 -0.002400 2.565300
v -0.002000 -0.260400 2.130800
v -0.002000 -0.260400 2.566500
v -0.593600 -0.002400 2.130800
v 0.626400 -0.002400 2.565300
v 0.587000 -0.002400 2.130800
v -0.937600 -0.002400 6.744900
v -1.100900 -0.002400 3.348100
v -0.001500 -0.260400 3.878900
v -0.001800 -0.260400 3.129100
v -0.803400 -0.002400 2.925400
v -0.001100 -0.260600 6.744500
v -0.001100 -0.260500 9.011800
v -0.754900 -0.002400 9.012200
v -0.001200 -0.260400 10.736800
v -0.506900 -0.002400 11.279500
v -0.002000 -0.002400 12.365100
v 0.496800 -0.002400 11.279500
v 0.744900 -0.002400 9.012200
v 0.928000 -0.002400 6.744900
v 1.093000 -0.002400 3.348100
v 0.796000 -0.002400 2.925400
v -0.000900 0.260100 9.011800
v -0.001000 0.260200 6.744500
v -0.001000 0.260000 10.736800
v -0.001400 0.260000 3.878900
v -0.001700 0.260000 3.129100
v -0.002000 0.260000 2.566500
v -0.002000 0.238100 2.130800
v -0.327500 -0.343300 0.402800
v 0.324100 -0.339400 1.702300
v -0.323800 -0.339400 1.702300
v -0.002300 -0.298300 1.702200
v -0.002300 0.292700 1.702200
v 0.729700 -0.002800 1.702200
v -0.327500 0.343300 0.402800
v -0.782200 0.000000 -2.030000
v -0.655200 0.000000 0.402800
v 0.000100 0.000000 -4.426600
v -0.215500 -0.225800 -4.164700
v -0.431100 0.000000 -4.164700
v -0.643800 0.000000 -3.650400
v -0.321800 -0.337300 -3.650400
v -0.391000 -0.409900 -2.030000
v 0.324100 0.339400 1.702300
v 0.655500 0.000000 0.402800
v 0.327800 0.343300 0.402800
v 0.327800 -0.343300 0.402800
v 0.391300 -0.409800 -2.030000
v 0.782500 0.000000 -2.030000
v 0.215800 -0.225800 -4.164700
v 0.644100 0.000000 -3.650400
v 0.322100 -0.337300 -3.650400
v -0.391000 0.409900 -2.030000
v 0.391300 0.409900 -2.030000
v -0.321800 0.337300 -3.650400
v -0.215500 0.225800 -4.164700
v 0.322100 0.337300 -3.650400
v 0.215800 0.225800 -4.164700
v -0.633300 -0.002400 2.565300
v -0.002000 -0.260400 2.130800
v -0.002000 -0.260400 2.566500
v -0.937600 -0.002400 6.744900
v -1.100900 -0.002400 3.348100
v -0.001500 -0.260400 3.878900
v -0.001100 -0.260500 9.011800
v -0.001200 -0.260400 10.736800
v -0.754900 -0.002400 9.012200
v -0.001800 -0.260400 3.129100
v 0.796000 -0.002400 2.925400
v 1.093000 -0.002400 3.348100
v 0.744900 -0.002400 9.012200
v 0.928000 -0.002400 6.744900
v -0.000900 0.260100 9.011800
v 0.496800 -0.002400 11.279500
v -0.001000 0.260000 10.736800
v -0.002000 -0.002400 12.365100
v 0.626400 -0.002400 2.565300
v -0.002000 0.238100 2.130800
v -0.002000 0.260000 2.566500
vt 0.998000 -0.855500
vt 0.930700 -0.993200
vt 0.998000 -0.993200
vt 0.628900 -0.080100
vt 0.628900 -0.026400
vt 0.561500 -0.052700
vt 0.696300 -0.052700
vt 0.729500 -0.855500
vt 0.662100 -0.596700
vt 0.662100 -0.855500
vt 0.729500 -0.596700
vt 0.662100 -0.424800
vt 0.626000 -0.283200
vt 0.594700 -0.370100
vt 0.662100 -0.370100
vt 0.594700 -0.424800
vt 0.594700 -0.596700
vt 0.594700 -0.855500
vt 0.594700 -0.993200
vt 0.662100 -0.993200
vt 0.729500 -0.993200
vt 0.795900 -0.993200
vt 0.795900 -0.855500
vt 0.863300 -0.855500
vt 0.863300 -0.596700
vt 0.930700 -0.855500
vt 0.930700 -0.596700
vt 0.863300 -0.993200
vt 0.998000 -0.596700
vt 0.998000 -0.424800
vt 0.930700 -0.424800
vt 0.998000 -0.370100
vt 0.930700 -0.370100
vt 0.965800 -0.283200
vt 0.863300 -0.424800
vt 0.863300 -0.370100
vt 0.898400 -0.283200
vt 0.729500 -0.370100
vt 0.698200 -0.283200
vt 0.729500 -0.424800
vt 0.795900 -0.596700
vt 0.795900 -0.424800
vt 0.795900 -0.370100
vt 0.831100 -0.283200
vt 0.763700 -0.283200
vt 0.871100 -0.188500
vt 0.763700 -0.225600
vt 0.835000 -0.225600
vt 0.763700 -0.150400
vt 0.727500 -0.188500
vt 0.835000 -0.150400
vt 0.529300 -0.085000
vt 0.460900 -0.044900
vt 0.460900 -0.085000
vt 0.524400 -0.044900
vt 0.460900 -0.005900
vt 0.540000 -0.005900
vt 0.393600 -0.085000
vt 0.397500 -0.044900
vt 0.382800 -0.005900
vt 0.561500 -0.469700
vt 0.579100 -0.157200
vt 0.460900 -0.206100
vt 0.460900 -0.136700
vt 0.547900 -0.118200
vt 0.460900 -0.469700
vt 0.460900 -0.677700
vt 0.542000 -0.677700
vt 0.460900 -0.836900
vt 0.515600 -0.886700
vt 0.460900 -0.986300
vt 0.407200 -0.886700
vt 0.380900 -0.677700
vt 0.361300 -0.469700
vt 0.343800 -0.157200
vt 0.375000 -0.118200
vt 0.460900 -0.677700
vt 0.460900 -0.469700
vt 0.460900 -0.836900
vt 0.460900 -0.206100
vt 0.460900 -0.136700
vt 0.460900 -0.085000
vt 0.460900 -0.044900
vt 0.460900 -0.005900
vt 0.998000 -0.855500
vt 0.930700 -0.993200
vt 0.998000 -0.993200
vt 0.628900 -0.080100
vt 0.628900 -0.026400
vt 0.561500 -0.052700
vt 0.729500 -0.855500
vt 0.662100 -0.596700
vt 0.662100 -0.855500
vt 0.626000 -0.283200
vt 0.594700 -0.370100
vt 0.662100 -0.370100
vt 0.662100 -0.424800
vt 0.594700 -0.424800
vt 0.594700 -0.596700
vt 0.594700 -0.855500
vt 0.594700 -0.993200
vt 0.795900 -0.993200
vt 0.863300 -0.855500
vt 0.795900 -0.855500
vt 0.930700 -0.855500
vt 0.930700 -0.596700
vt 0.863300 -0.596700
vt 0.998000 -0.596700
vt 0.998000 -0.424800
vt 0.998000 -0.370100
vt 0.965800 -0.283200
vt 0.930700 -0.370100
vt 0.863300 -0.424800
vt 0.930700 -0.424800
vt 0.898400 -0.283200
vt 0.698200 -0.283200
vt 0.729500 -0.596700
vt 0.795900 -0.596700
vt 0.729500 -0.424800
vt 0.831100 -0.283200
vt 0.729500 -0.370100
vt 0.795900 -0.424800
vt 0.795900 -0.370100
vt 0.763700 -0.283200
vt 0.763700 -0.225600
vt 0.763700 -0.150400
vt 0.835000 -0.150400
vt 0.529300 -0.085000
vt 0.460900 -0.044900
vt 0.460900 -0.085000
vt 0.460900 -0.005900
vt 0.382800 -0.005900
vt 0.561500 -0.469700
vt 0.579100 -0.157200
vt 0.460900 -0.206100
vt 0.460900 -0.677700
vt 0.460900 -0.836900
vt 0.542000 -0.677700
vt 0.460900 -0.136700
vt 0.375000 -0.118200
vt 0.343800 -0.157200
vt 0.380900 -0.677700
vt 0.361300 -0.469700
vt 0.460900 -0.677700
vt 0.407200 -0.886700
vt 0.460900 -0.836900
vt 0.460900 -0.986300
vt 0.393600 -0.085000
vt 0.460900 -0.044900
vt 0.460900 -0.085000
vt 0.460900 -0.005900
vn 0.0000 -1.0000 0.0030
vn 0.0000 0.0000 -1.0000
vn -0.3919 0.9198 0.0197
vn -0.9999 -0.0000 -0.0160
vn -0.9996 0.0000 0.0292
vn -0.3973 0.9176 -0.0111
vn -0.9750 -0.0000 -0.2223
vn -0.0001 0.1429 -0.9897
vn -0.6062 -0.5789 -0.5454
vn -0.8082 0.0000 -0.5889
vn -0.3953 -0.9042 -0.1617
vn -0.3973 -0.9176 -0.0111
vn -0.4227 -0.9060 0.0210
vn -0.7233 -0.6905 0.0041
vn -1.0000 0.0000 0.0057
vn -0.3930 0.9195 0.0039
vn 0.3930 0.9195 0.0039
vn 0.3919 0.9198 0.0197
vn 0.9996 0.0000 0.0292
vn 0.9999 -0.0001 -0.0161
vn 0.3919 -0.9198 0.0197
vn 0.3973 -0.9176 -0.0112
vn 0.5907 -0.8069 0.0041
vn 1.0000 0.0000 0.0057
vn 0.3930 0.9195 0.0038
vn 0.3953 -0.9042 -0.1617
vn 0.0000 -0.9236 -0.3834
vn 0.3408 -0.7951 -0.5016
vn -0.0001 -0.1429 -0.9897
vn 0.9750 -0.0000 -0.2223
vn 0.8082 -0.0000 -0.5889
vn -0.3408 0.7952 -0.5016
vn -0.3953 0.9042 -0.1617
vn 0.3973 0.9176 -0.0112
vn 0.3953 0.9042 -0.1617
vn 0.3408 0.7951 -0.5016
vn 0.0000 0.0000 1.0000
vn -0.3816 -0.9177 -0.1103
vn 0.0009 -0.9993 0.0374
vn 0.0151 -0.9998 -0.0124
vn -0.3897 -0.9200 0.0421
vn 0.0006 -0.9944 0.1057
vn -0.3701 -0.9206 0.1250
vn 0.3475 -0.9359 -0.0580
vn 0.3911 -0.9194 0.0418
vn 0.3714 -0.9201 0.1245
vn -0.2681 -0.9634 0.0041
vn -0.2413 -0.9690 -0.0527
vn 0.0006 -1.0000 0.0062
vn 0.0088 -0.9993 -0.0363
vn -0.2950 -0.9443 -0.1461
vn 0.0010 -1.0000 -0.0000
vn 0.0016 -0.9999 0.0103
vn -0.3337 -0.9425 0.0186
vn 0.0025 -0.9976 0.0694
vn -0.3501 -0.9295 0.1156
vn 0.0002 -0.9877 0.1565
vn 0.3542 -0.9279 0.1162
vn 0.3368 -0.9414 0.0188
vn 0.2701 -0.9628 0.0041
vn 0.2423 -0.9688 -0.0528
vn 0.2664 -0.9504 -0.1604
vn 0.3319 0.9429 0.0268
vn 0.2744 0.9616 0.0042
vn -0.1138 0.9934 0.0139
vn 0.0011 1.0000 -0.0000
vn 0.3320 0.9433 0.0001
vn 0.0027 0.9975 0.0706
vn 0.3594 0.9257 0.1179
vn 0.0002 0.9873 0.1591
vn -0.3552 0.9274 0.1173
vn -0.3387 0.9407 0.0189
vn -0.2723 0.9622 0.0042
vn 0.0006 1.0000 0.0063
vn 0.2462 0.9677 -0.0536
vn -0.0078 0.9993 -0.0368
vn 0.3007 0.9421 -0.1486
vn -0.0139 0.9992 -0.0375
vn 0.3805 0.9171 -0.1187
vn 0.0009 0.9991 0.0415
vn 0.3762 0.9253 0.0482
vn 0.0006 0.9917 0.1287
vn 0.3715 0.9203 0.1228
vn -0.2451 0.9680 -0.0535
vn -0.2694 0.9492 -0.1626
vn -0.3432 0.9369 -0.0659
vn -0.3748 0.9258 0.0485
vn -0.3701 0.9208 0.1233
vn -0.9750 -0.0000 -0.2222
usemtl demonssouls_throwingdaggerspec
s 1
f 1/1/1 2/2/1 3/3/1
f 4/4/2 5/5/2 6/6/2
f 4/4/2 7/7/2 5/5/2
f 8/8/3 9/9/4 10/10/5
f 11/11/6 9/9/4 8/8/3
f 11/11/6 12/12/7 9/9/4
f 13/13/8 14/14/9 15/15/10
f 16/16/11 15/15/10 14/14/9
f 16/16/11 12/12/7 15/15/10
f 12/12/7 16/16/11 17/17/12
f 12/12/7 17/17/12 9/9/4
f 17/17/12 1/18/13 9/9/4
f 1/18/13 10/10/5 9/9/4
f 1/18/13 3/19/14 10/10/5
f 18/20/15 10/10/5 3/19/14
f 18/20/15 19/21/16 10/10/5
f 8/8/3 10/10/5 19/21/16
f 19/21/16 20/22/17 8/8/3
f 20/22/17 21/23/18 8/8/3
f 20/22/17 22/24/19 21/23/18
f 22/24/19 23/25/20 21/23/18
f 24/26/21 23/25/20 22/24/19
f 24/26/21 25/27/22 23/25/20
f 24/26/21 1/1/13 25/27/22
f 1/1/13 24/26/21 2/2/23
f 24/26/21 22/24/19 2/2/23
f 26/28/24 2/2/23 22/24/19
f 26/28/24 22/24/19 20/22/25
f 17/29/12 25/27/22 1/1/13
f 17/29/12 16/30/11 25/27/22
f 16/30/11 27/31/26 25/27/22
f 16/30/11 14/32/27 27/31/26
f 28/33/28 27/31/26 14/32/27
f 13/34/29 28/33/28 14/32/27
f 23/25/20 25/27/22 27/31/26
f 23/25/20 27/31/26 29/35/30
f 28/33/28 29/35/30 27/31/26
f 28/33/28 30/36/31 29/35/30
f 13/37/8 30/36/31 28/33/28
f 15/15/10 31/38/32 13/39/29
f 15/15/10 32/40/33 31/38/32
f 12/12/7 32/40/33 15/15/10
f 12/12/7 11/11/6 32/40/33
f 11/11/6 33/41/34 32/40/33
f 11/11/6 8/8/3 33/41/34
f 33/41/34 8/8/3 21/23/18
f 23/25/20 33/41/34 21/23/18
f 23/25/20 34/42/35 33/41/34
f 34/42/35 23/25/20 29/35/30
f 34/42/35 29/35/30 35/43/36
f 30/36/31 35/43/36 29/35/30
f 30/36/31 13/44/29 35/43/36
f 34/42/35 32/40/33 33/41/34
f 34/42/35 31/38/32 32/40/33
f 31/38/32 34/42/35 35/43/36
f 31/38/32 35/43/36 13/45/8
f 18/46/37 20/47/37 19/48/37
f 2/49/37 20/47/37 18/46/37
f 2/49/37 26/50/37 20/47/37
f 3/51/37 2/49/37 18/46/37
f 36/52/38 37/53/39 38/54/40
f 36/52/38 39/55/41 37/53/39
f 4/56/42 37/53/39 39/55/41
f 4/56/42 39/55/41 7/57/43
f 40/58/44 37/53/39 41/59/45
f 4/56/42 41/59/45 37/53/39
f 4/56/42 6/60/46 41/59/45
f 42/61/47 43/62/48 44/63/49
f 45/64/50 44/63/49 43/62/48
f 45/64/50 43/62/48 46/65/51
f 38/54/40 45/64/50 46/65/51
f 46/65/51 36/52/38 38/54/40
f 42/61/47 44/63/49 47/66/52
f 48/67/53 42/61/47 47/66/52
f 48/67/53 49/68/54 42/61/47
f 48/67/53 50/69/55 49/68/54
f 50/69/55 51/70/56 49/68/54
f 50/69/55 52/71/57 51/70/56
f 52/71/57 50/69/55 53/72/58
f 50/69/55 54/73/59 53/72/58
f 50/69/55 48/67/53 54/73/59
f 54/73/59 48/67/53 55/74/60
f 48/67/53 47/66/52 55/74/60
f 55/74/60 47/66/52 44/63/49
f 44/63/49 56/75/61 55/74/60
f 44/63/49 45/64/50 56/75/61
f 45/64/50 57/76/62 56/75/61
f 45/64/50 40/58/44 57/76/62
f 38/54/40 40/58/44 45/64/50
f 40/58/44 38/54/40 37/53/39
f 54/73/63 55/74/64 58/77/65
f 55/74/64 59/78/66 58/77/65
f 58/77/67 60/79/68 54/73/63
f 54/73/63 60/79/68 53/72/69
f 53/72/69 60/79/68 52/71/70
f 60/79/68 51/70/71 52/71/70
f 60/79/68 49/68/72 51/70/71
f 58/77/65 49/68/72 60/79/68
f 58/77/65 42/61/73 49/68/72
f 59/78/66 42/61/73 58/77/65
f 59/78/66 61/80/74 42/61/73
f 55/74/64 61/80/74 59/78/66
f 55/74/64 56/75/75 61/80/74
f 62/81/76 61/80/74 56/75/75
f 62/81/76 56/75/75 57/76/77
f 62/81/76 57/76/77 63/82/78
f 40/58/79 63/82/78 57/76/77
f 40/58/79 64/83/80 63/82/78
f 40/58/79 41/59/81 64/83/80
f 41/59/81 5/84/82 64/83/80
f 41/59/81 6/60/83 5/84/82
f 42/61/73 61/80/74 43/62/84
f 62/81/76 43/62/84 61/80/74
f 62/81/76 46/65/85 43/62/84
f 46/65/85 62/81/76 36/52/86
f 62/81/76 63/82/78 36/52/86
f 64/83/80 36/52/86 63/82/78
f 64/83/80 39/55/87 36/52/86
f 39/55/87 64/83/80 5/84/82
f 39/55/87 5/84/82 7/57/88
usemtl demonssouls_throwingdagger
f 65/85/1 66/86/1 67/87/1
f 68/88/2 69/89/2 70/90/2
f 68/88/2 7/7/2 69/89/2
f 71/91/3 72/92/4 73/93/5
f 11/11/6 72/92/4 71/91/3
f 11/11/6 12/12/89 72/92/4
f 74/94/8 75/95/9 76/96/10
f 16/16/11 76/96/10 75/95/9
f 16/16/11 12/12/7 76/96/10
f 77/97/7 78/98/11 79/99/12
f 77/97/7 79/99/12 72/92/4
f 79/99/12 65/100/13 72/92/4
f 65/100/13 73/93/5 72/92/4
f 65/100/13 67/101/14 73/93/5
f 18/20/15 73/93/5 67/101/14
f 18/20/15 19/21/16 73/93/5
f 71/91/3 73/93/5 19/21/16
f 19/21/16 20/22/17 71/91/3
f 20/22/17 21/23/18 71/91/3
f 80/102/17 81/103/19 82/104/18
f 81/103/19 23/25/20 82/104/18
f 24/26/21 23/25/20 81/103/19
f 83/105/21 84/106/22 85/107/20
f 83/105/21 65/85/13 84/106/22
f 65/85/13 83/105/21 66/86/23
f 83/105/21 81/103/19 66/86/23
f 26/28/24 66/86/23 81/103/19
f 26/28/24 81/103/19 80/102/25
f 79/108/12 84/106/22 65/85/13
f 79/108/12 78/109/11 84/106/22
f 78/109/11 27/31/26 84/106/22
f 78/109/11 75/110/27 27/31/26
f 28/33/28 27/31/26 75/110/27
f 74/111/29 28/33/28 75/110/27
f 85/107/20 84/106/22 27/31/26
f 85/107/20 27/31/26 29/35/30
f 86/112/28 87/113/30 88/114/26
f 86/112/28 30/36/31 87/113/30
f 74/115/8 30/36/31 86/112/28
f 76/96/10 31/38/32 74/116/29
f 76/96/10 32/40/33 31/38/32
f 77/97/7 32/40/33 76/96/10
f 77/97/7 11/11/6 32/40/33
f 89/117/6 90/118/34 91/119/33
f 89/117/6 71/91/3 90/118/34
f 90/118/34 71/91/3 82/104/18
f 85/107/20 90/118/34 82/104/18
f 85/107/20 34/42/35 90/118/34
f 34/42/35 85/107/20 87/113/30
f 34/42/35 87/113/30 35/43/36
f 30/36/31 35/43/36 87/113/30
f 30/36/31 74/120/29 35/43/36
f 34/42/35 91/119/33 90/118/34
f 34/42/35 31/38/32 91/119/33
f 92/121/32 93/122/35 94/123/36
f 92/121/32 94/123/36 74/124/8
f 18/46/37 80/125/37 19/48/37
f 66/126/37 80/125/37 18/46/37
f 66/126/37 26/50/37 80/125/37
f 67/127/37 66/126/37 18/46/37
f 95/128/38 96/129/39 97/130/40
f 95/128/38 39/55/41 96/129/39
f 68/131/42 96/129/39 39/55/41
f 68/131/42 39/55/41 7/57/43
f 40/58/44 96/129/39 41/59/45
f 68/131/42 41/59/45 96/129/39
f 68/131/42 70/132/46 41/59/45
f 98/133/47 99/134/48 100/135/49
f 45/64/50 100/135/49 99/134/48
f 45/64/50 99/134/48 46/65/51
f 97/130/40 45/64/50 46/65/51
f 46/65/51 95/128/38 97/130/40
f 98/133/47 100/135/49 47/66/52
f 48/67/53 98/133/47 47/66/52
f 48/67/53 49/68/54 98/133/47
f 101/136/53 102/137/55 103/138/54
f 102/137/55 51/70/56 103/138/54
f 102/137/55 52/71/57 51/70/56
f 52/71/57 102/137/55 53/72/58
f 102/137/55 54/73/59 53/72/58
f 102/137/55 101/136/53 54/73/59
f 54/73/59 101/136/53 55/74/60
f 101/136/53 47/66/52 55/74/60
f 55/74/60 47/66/52 100/135/49
f 100/135/49 56/75/61 55/74/60
f 100/135/49 45/64/50 56/75/61
f 104/139/50 105/140/62 106/141/61
f 104/139/50 40/58/44 105/140/62
f 97/130/40 40/58/44 104/139/50
f 40/58/44 97/130/40 96/129/39
f 107/142/63 108/143/64 109/144/65
f 108/143/64 59/78/66 109/144/65
f 109/144/67 60/79/68 107/142/63
f 107/142/63 60/79/68 53/72/69
f 110/145/69 111/146/68 112/147/70
f 111/146/68 51/70/71 112/147/70
f 111/146/68 103/138/72 51/70/71
f 109/144/65 103/138/72 111/146/68
f 109/144/65 98/133/73 103/138/72
f 59/78/66 98/133/73 109/144/65
f 59/78/66 61/80/74 98/133/73
f 108/143/64 61/80/74 59/78/66
f 108/143/64 106/141/75 61/80/74
f 62/81/76 61/80/74 106/141/75
f 62/81/76 106/141/75 105/140/77
f 62/81/76 105/140/77 63/82/78
f 40/58/79 63/82/78 105/140/77
f 113/148/79 114/149/80 115/150/78
f 113/148/79 41/59/81 114/149/80
f 41/59/81 69/151/82 114/149/80
f 41/59/81 70/132/83 69/151/82
f 98/133/73 61/80/74 99/134/84
f 62/81/76 99/134/84 61/80/74
f 62/81/76 46/65/85 99/134/84
f 46/65/85 62/81/76 95/128/86
f 62/81/76 115/150/78 95/128/86
f 114/149/80 95/128/86 115/150/78
f 114/149/80 39/55/87 95/128/86
f 39/55/87 114/149/80 69/151/82
f 39/55/87 69/151/82 7/57/88
