# Blender v2.79 (sub 0) OBJ File: ''
# www.blender.org
mtllib kilij.mtl
o kilij
v -1.462600 -0.174800 25.252701
v -2.251600 0.000000 29.645399
v -1.462600 0.174800 25.252701
v -1.134200 -0.258700 20.775000
v -1.134200 0.258700 20.775000
v -0.920200 -0.258700 15.873100
v -0.920200 0.258700 15.873100
v -1.033800 0.258700 8.597600
v -1.033800 -0.258700 8.597600
v -1.311600 -0.258700 3.452600
v -1.311600 0.258700 3.452600
v 2.211600 0.345200 -7.250600
v 1.256800 0.345200 -6.352700
v 1.969400 0.345200 -6.576000
v 1.925900 0.345200 -8.021300
v 0.619600 0.345200 -6.414200
v 1.370300 0.345200 2.878700
v -0.534900 0.345200 -6.414200
v -1.206000 0.345200 2.878700
v -0.316000 0.345200 -7.524100
v 0.456000 0.345200 -8.143000
v 1.219500 0.345200 -8.296500
v -0.250200 0.466000 2.547600
v 0.522400 0.466000 2.547600
v 0.136100 0.466000 1.098900
v 0.958300 0.466000 2.742000
v -4.111800 0.184700 3.444000
v -3.978900 0.075600 3.293500
v -4.111800 0.184700 2.840400
v -3.978900 0.075600 2.990800
v -0.686100 0.466000 3.542300
v -0.686100 0.466000 2.742000
v -0.250200 0.466000 3.736700
v 0.302600 0.466000 4.333700
v -0.030400 0.466000 4.333700
v 0.136100 0.466000 5.185400
v 0.522400 0.466000 3.736700
v 0.958300 0.466000 3.542300
v 4.251100 0.075600 3.293500
v 4.251100 0.075600 2.990800
v 4.384000 0.184700 3.444000
v 4.384000 0.184700 2.840400
v 4.956100 0.000000 3.142200
v -0.074600 -0.258700 15.873100
v -0.019800 -0.258700 8.597500
v 0.033600 -0.258700 3.452600
v 1.478800 -0.258700 3.452600
v 1.505000 0.000000 8.597400
v 1.476300 0.000000 15.873300
v -0.300500 -0.258700 20.880501
v -0.732900 -0.258700 25.408600
v -1.676700 -0.258700 30.406900
v 0.783600 0.000000 25.708401
v -0.265100 0.000000 30.732100
v -1.281300 0.000000 33.257500
v -2.397200 -0.258700 32.725399
v -2.291800 0.000000 35.534801
v 1.307300 0.000000 21.107901
v -3.287800 -0.129400 34.972401
v -3.627800 0.000000 37.701302
v -4.503700 0.000000 37.108601
v -5.415600 0.000000 39.579800
v -7.784600 0.000000 41.146900
v -5.203900 0.000000 36.626999
v -4.143800 0.000000 34.598400
v -3.350700 0.000000 32.224899
v -2.667600 0.000000 29.476500
v -0.534900 -0.309300 -6.414200
v 1.370300 -0.309300 2.878700
v -1.206000 -0.309300 2.878700
v 0.619600 -0.309300 -6.414200
v 1.925900 -0.309300 -8.021300
v 1.219500 -0.309300 -8.296500
v -0.316000 -0.309300 -7.524100
v 0.456000 -0.309300 -8.143000
v 1.256800 -0.309300 -6.352700
v 1.969400 -0.309300 -6.576000
v 2.211600 -0.309300 -7.250600
v -4.683900 0.000000 3.142200
v -3.289800 0.129400 34.975800
v -2.397200 0.258700 32.725399
v -1.676700 0.258700 30.406900
v -4.507800 0.000000 37.115398
v -0.732900 0.258700 25.408600
v -0.300500 0.258700 20.880501
v -0.074600 0.258700 15.873100
v -0.019800 0.258700 8.597500
v 1.478800 0.258700 3.452600
v 0.033600 0.258700 3.452600
v -4.111800 -0.184700 2.840400
v -4.111800 -0.184700 3.444000
v -3.978900 -0.075600 2.990800
v -3.978900 -0.075600 3.293500
v -0.686100 -0.466000 2.742000
v -0.686100 -0.466000 3.542300
v -0.250200 -0.466000 3.736700
v 0.958300 -0.466000 3.542300
v 0.522400 -0.466000 3.736700
v 0.136100 -0.466000 5.185400
v -0.030400 -0.466000 4.333700
v 0.302600 -0.466000 4.333700
v 0.136100 -0.466000 1.098900
v 0.522400 -0.466000 2.547600
v -0.250200 -0.466000 2.547600
v 0.958300 -0.466000 2.742000
v 4.251100 -0.075600 2.990800
v 4.251100 -0.075600 3.293500
v 4.384000 -0.184700 2.840400
v 4.384000 -0.184700 3.444000
vt 0.410200 -0.562500
vt 0.415000 -0.673800
vt 0.418900 -0.562500
vt 0.408200 -0.448200
vt 0.421900 -0.448200
vt 0.408200 -0.323200
vt 0.421900 -0.323200
vt 0.421900 -0.137700
vt 0.408200 -0.137700
vt 0.408200 -0.005900
vt 0.421900 -0.005900
vt 0.730500 -0.492200
vt 0.777300 -0.536100
vt 0.742200 -0.525400
vt 0.744100 -0.455100
vt 0.807600 -0.533200
vt 0.771500 -0.984400
vt 0.864300 -0.533200
vt 0.896500 -0.984400
vt 0.853500 -0.478500
vt 0.815400 -0.449200
vt 0.778300 -0.441400
vt 0.709000 -0.207000
vt 0.747100 -0.207000
vt 0.727500 -0.277300
vt 0.767600 -0.197300
vt 0.521500 -0.163100
vt 0.528300 -0.170900
vt 0.521500 -0.192400
vt 0.528300 -0.185500
vt 0.687500 -0.158200
vt 0.687500 -0.197300
vt 0.709000 -0.149400
vt 0.736300 -0.120100
vt 0.719700 -0.120100
vt 0.727500 -0.079100
vt 0.747100 -0.149400
vt 0.767600 -0.158200
vt 0.927700 -0.170900
vt 0.927700 -0.185500
vt 0.934600 -0.163100
vt 0.934600 -0.192400
vt 0.961900 -0.177700
vt 0.312500 -0.323200
vt 0.336900 -0.323200
vt 0.310500 -0.137700
vt 0.342800 -0.448200
vt 0.339800 -0.137700
vt 0.348600 -0.005900
vt 0.309600 -0.005900
vt 0.267600 -0.005900
vt 0.266600 -0.137700
vt 0.266600 -0.323200
vt 0.318400 -0.450200
vt 0.352500 -0.562500
vt 0.331100 -0.566400
vt 0.376000 -0.673800
vt 0.358400 -0.693400
vt 0.287100 -0.573200
vt 0.317400 -0.702100
vt 0.347700 -0.766600
vt 0.379900 -0.752900
vt 0.377000 -0.824200
vt 0.272500 -0.456100
vt 0.405300 -0.809600
vt 0.415000 -0.879900
vt 0.441400 -0.864300
vt 0.467800 -0.927700
vt 0.536100 -0.967800
vt 0.461900 -0.852500
vt 0.430700 -0.800800
vt 0.407200 -0.740200
vt 0.387700 -0.669900
vt 0.864300 -0.533200
vt 0.771500 -0.984400
vt 0.896500 -0.984400
vt 0.807600 -0.533200
vt 0.744100 -0.455100
vt 0.778300 -0.441400
vt 0.853500 -0.478500
vt 0.815400 -0.449200
vt 0.777300 -0.536100
vt 0.742200 -0.525400
vt 0.730500 -0.492200
vt 0.494100 -0.177700
vt 0.405300 -0.809600
vt 0.379900 -0.752900
vt 0.358400 -0.693400
vt 0.441400 -0.864300
vt 0.331100 -0.566400
vt 0.318400 -0.450200
vt 0.312500 -0.323200
vt 0.310500 -0.137700
vt 0.352500 -0.562500
vt 0.342800 -0.448200
vt 0.336900 -0.323200
vt 0.339800 -0.137700
vt 0.267600 -0.005900
vt 0.309600 -0.005900
vt 0.348600 -0.005900
vt 0.227500 -0.005900
vt 0.234400 -0.137700
vt 0.241200 -0.005900
vt 0.521500 -0.192400
vt 0.521500 -0.163100
vt 0.528300 -0.185500
vt 0.528300 -0.170900
vt 0.687500 -0.197300
vt 0.687500 -0.158200
vt 0.709000 -0.149400
vt 0.767600 -0.158200
vt 0.747100 -0.149400
vt 0.727500 -0.079100
vt 0.719700 -0.120100
vt 0.736300 -0.120100
vt 0.727500 -0.277300
vt 0.747100 -0.207000
vt 0.709000 -0.207000
vt 0.767600 -0.197300
vt 0.927700 -0.185500
vt 0.927700 -0.170900
vt 0.934600 -0.192400
vt 0.934600 -0.163100
vt 0.964800 -0.984400
vt 0.932600 -0.533200
vt 0.932600 -0.984400
vt 0.964800 -0.533200
vt 0.932600 -0.478500
vt 0.964800 -0.478500
vt 0.964800 -0.441400
vt 0.932600 -0.441400
vt 0.932600 -0.404300
vt 0.964800 -0.404300
vt 0.932600 -0.370100
vt 0.964800 -0.370100
vt 0.690400 -0.984400
vt 0.659200 -0.533200
vt 0.659200 -0.984400
vt 0.690400 -0.533200
vt 0.659200 -0.502000
vt 0.690400 -0.502000
vt 0.690400 -0.467800
vt 0.659200 -0.467800
vt 0.659200 -0.434600
vt 0.690400 -0.434600
vt 0.690400 -0.397500
vt 0.659200 -0.397500
vt 0.529300 -0.137700
vt 0.521500 -0.131800
vt 0.529300 -0.144500
vt 0.521500 -0.150400
vt 0.494100 -0.140600
vt 0.474600 -0.036100
vt 0.634800 -0.009800
vt 0.474600 -0.028300
vt 0.634800 -0.054700
vt 0.656300 -0.054700
vt 0.656300 -0.009800
vt 0.685500 -0.009800
vt 0.685500 -0.054700
vt 0.726600 -0.054700
vt 0.726600 -0.009800
vt 0.767600 -0.054700
vt 0.767600 -0.009800
vt 0.796900 -0.009800
vt 0.796900 -0.054700
vt 0.818400 -0.054700
vt 0.818400 -0.009800
vt 0.978500 -0.028300
vt 0.978500 -0.036100
vt 0.978500 -0.319300
vt 0.818400 -0.299800
vt 0.978500 -0.326200
vt 0.818400 -0.345700
vt 0.796900 -0.345700
vt 0.796900 -0.299800
vt 0.726600 -0.345700
vt 0.726600 -0.299800
vt 0.656300 -0.345700
vt 0.656300 -0.299800
vt 0.634800 -0.345700
vt 0.634800 -0.299800
vt 0.474600 -0.319300
vt 0.474600 -0.326200
vt 0.926800 -0.213900
vt 0.934600 -0.209000
vt 0.926800 -0.221700
vt 0.934600 -0.226600
vt 0.961900 -0.217800
vt 0.529300 -0.219700
vt 0.521500 -0.225600
vt 0.529300 -0.212900
vt 0.521500 -0.207000
vt 0.494100 -0.215800
vt 0.928700 -0.141600
vt 0.935500 -0.146500
vt 0.928700 -0.133800
vt 0.935500 -0.128900
vt 0.963900 -0.137700
vn -0.9842 0.0000 -0.1768
vn -0.9923 0.0000 -0.1242
vn -0.9973 0.0000 -0.0731
vn -0.9973 -0.0000 -0.0732
vn -0.9983 0.0000 -0.0583
vn -0.9999 0.0000 -0.0140
vn -0.9999 0.0000 0.0156
vn -0.9994 0.0000 0.0348
vn -0.9985 0.0000 0.0539
vn 0.0000 1.0000 0.0000
vn 0.0506 0.9987 -0.0000
vn 0.6345 0.7729 0.0000
vn 0.3469 0.9379 0.0000
vn -0.0506 0.9987 -0.0000
vn -0.3469 0.9379 0.0000
vn -0.1166 0.9932 0.0000
vn -0.1162 0.9932 -0.0000
vn 0.3072 0.9516 0.0000
vn 0.0835 -0.9965 0.0022
vn 0.0000 -1.0000 -0.0000
vn 0.0765 -0.9970 0.0102
vn -0.0011 -1.0000 0.0089
vn 0.0310 -0.9995 0.0090
vn 0.1672 -0.9856 0.0246
vn 0.1641 -0.9864 0.0040
vn 0.0771 -0.9970 0.0091
vn -0.1086 -0.9941 0.0048
vn 0.0220 -0.9997 0.0125
vn -0.3225 -0.9448 -0.0579
vn -0.0205 -0.9997 -0.0136
vn 0.1643 -0.9861 0.0253
vn 0.1688 -0.9844 0.0505
vn 0.1868 -0.9797 0.0734
vn -0.0237 -0.9997 0.0109
vn 0.1043 -0.9919 0.0727
vn 0.1583 -0.9873 0.0107
vn -0.0348 -0.9991 0.0229
vn 0.0030 -0.9997 0.0251
vn -0.0162 -0.9998 0.0102
vn -0.1214 -0.9922 -0.0299
vn -0.2183 -0.9744 -0.0545
vn -0.1037 -0.9813 -0.1624
vn 0.1755 -0.8842 -0.4329
vn -0.3072 0.9516 0.0000
vn -0.0348 0.9991 0.0228
vn -0.2183 0.9743 -0.0545
vn -0.1215 0.9921 -0.0301
vn -0.0236 0.9997 0.0109
vn -0.0191 0.9998 -0.0093
vn -0.2068 0.9770 -0.0514
vn -0.0161 0.9998 0.0102
vn 0.0059 0.9988 0.0482
vn 0.1132 0.9898 0.0869
vn 0.1873 0.9788 0.0831
vn 0.1680 0.9846 0.0489
vn 0.0334 0.9994 0.0094
vn 0.1623 0.9864 0.0252
vn 0.0805 0.9967 0.0061
vn 0.1577 0.9874 0.0125
vn 0.0832 0.9965 0.0018
vn 0.1647 0.9863 0.0032
vn 0.1018 0.9947 0.0136
vn -0.0907 0.9617 -0.2585
vn 0.1755 0.8842 -0.4329
vn -0.1255 0.9921 -0.0050
vn -0.0059 1.0000 0.0005
vn 0.1672 0.9856 0.0246
vn 0.0310 0.9995 0.0090
vn 1.0000 0.0000 -0.0051
vn -0.3072 -0.9516 0.0000
vn 0.1162 -0.9932 -0.0000
vn 0.1166 -0.9932 0.0000
vn 0.3469 -0.9379 0.0000
vn -0.0506 -0.9987 0.0000
vn 0.0506 -0.9987 0.0000
vn -0.3469 -0.9379 0.0000
vn -0.1161 -0.9932 -0.0000
vn -0.1166 -0.9932 0.0000
vn 0.3072 -0.9516 0.0000
vn -0.9974 0.0000 -0.0720
vn -0.9911 -0.0000 -0.1330
vn -0.9911 -0.0000 -0.1331
vn -0.8552 0.0000 -0.5183
vn -0.4233 0.0000 -0.9060
vn 0.0864 0.0000 -0.9963
vn 0.3630 0.0000 -0.9318
vn 0.9968 0.0000 -0.0805
vn 0.7016 0.0000 0.7126
vn 0.1035 0.0000 0.9946
vn 0.6925 0.0000 0.7215
vn 1.0000 0.0000 -0.0052
vn 0.9375 0.0000 -0.3479
vn 0.9375 -0.0000 -0.3480
vn 0.7496 0.0000 0.6619
vn 0.1079 0.0000 0.9942
vn -0.4666 0.0000 0.8845
vn -0.0753 0.0000 0.9972
vn -0.2515 0.0000 0.9679
vn -0.7303 0.0000 0.6831
vn -0.9630 0.0000 0.2695
vn 0.0000 0.0000 1.0000
vn 0.9630 0.0000 0.2695
vn 0.7303 0.0000 0.6831
vn 0.2515 0.0000 0.9679
vn 0.0753 0.0000 0.9972
vn -0.0753 0.0000 -0.9972
vn -0.2515 0.0000 -0.9679
vn -0.7610 0.0000 -0.6488
vn 0.0000 0.0000 -1.0000
vn 0.7610 0.0000 -0.6488
vn 0.2515 0.0000 -0.9679
vn 0.0753 0.0000 -0.9972
vn -0.7494 0.0000 -0.6622
vn -0.1082 -0.0000 -0.9941
vn -0.1084 0.0000 -0.9941
vn 0.4666 0.0000 -0.8845
vn 0.7494 0.0000 -0.6622
vn 0.1083 0.0000 -0.9941
vn 0.1082 -0.0000 -0.9941
vn -0.4666 0.0000 -0.8845
vn -0.7496 0.0000 0.6619
vn -0.1079 0.0000 0.9942
vn 0.4666 0.0000 0.8845
usemtl demonssouls_kilij
s 1
f 1/1/1 2/2/1 3/3/2
f 1/1/3 3/3/2 4/4/4
f 4/4/4 3/3/2 5/5/5
f 4/4/4 5/5/5 6/6/6
f 6/6/6 5/5/5 7/7/6
f 6/6/6 7/7/6 8/8/7
f 9/9/8 6/6/6 8/8/7
f 10/10/9 9/9/8 11/11/9
f 9/9/8 8/8/9 11/11/9
f 12/12/10 13/13/10 14/14/10
f 12/12/10 15/15/10 13/13/10
f 15/15/10 16/16/10 13/13/10
f 17/17/10 18/18/10 19/19/10
f 17/17/10 16/16/10 18/18/10
f 15/15/10 18/18/10 16/16/10
f 18/18/10 15/15/10 20/20/10
f 15/15/10 21/21/10 20/20/10
f 15/15/10 22/22/10 21/21/10
f 23/23/10 24/24/10 25/25/10
f 23/23/10 26/26/11 24/24/10
f 27/27/12 28/28/13 29/29/12
f 28/28/13 30/30/13 29/29/12
f 28/28/13 31/31/14 30/30/13
f 31/31/14 32/32/14 30/30/13
f 31/31/14 23/23/10 32/32/14
f 31/31/14 26/26/11 23/23/10
f 31/31/14 33/33/10 26/26/11
f 34/34/10 35/35/10 36/36/10
f 34/34/10 33/33/10 35/35/10
f 37/37/10 33/33/10 34/34/10
f 37/37/10 38/38/11 33/33/10
f 38/38/11 26/26/11 33/33/10
f 38/38/11 39/39/15 26/26/11
f 39/39/15 40/40/15 26/26/11
f 39/39/15 41/41/16 40/40/15
f 41/41/16 42/42/17 40/40/15
f 41/41/16 43/43/18 42/42/17
f 44/44/19 6/45/20 45/46/21
f 44/44/19 4/47/22 6/45/20
f 6/45/20 9/48/20 45/46/21
f 10/49/20 45/46/21 9/48/20
f 10/49/20 46/50/20 45/46/21
f 47/51/23 45/46/21 46/50/20
f 47/51/23 48/52/24 45/46/21
f 49/53/25 45/46/21 48/52/24
f 49/53/25 44/44/19 45/46/21
f 49/53/25 50/54/26 44/44/19
f 4/47/22 44/44/19 50/54/26
f 4/47/22 50/54/26 1/55/27
f 50/54/26 51/56/28 1/55/27
f 51/56/28 2/57/29 1/55/27
f 2/57/29 51/56/28 52/58/30
f 53/59/31 52/58/30 51/56/28
f 53/59/31 54/60/32 52/58/30
f 55/61/33 52/58/30 54/60/32
f 55/61/33 56/62/34 52/58/30
f 57/63/35 56/62/34 55/61/33
f 58/64/36 53/59/31 51/56/28
f 50/54/26 58/64/36 51/56/28
f 49/53/25 58/64/36 50/54/26
f 57/63/35 59/65/37 56/62/34
f 60/66/38 59/65/37 57/63/35
f 60/66/38 61/67/39 59/65/37
f 62/68/20 61/67/39 60/66/38
f 62/68/20 63/69/20 61/67/39
f 64/70/20 61/67/39 63/69/20
f 64/70/20 65/71/40 61/67/39
f 65/71/40 59/65/37 61/67/39
f 65/71/40 66/72/41 59/65/37
f 66/72/41 56/62/34 59/65/37
f 66/72/41 52/58/30 56/62/34
f 67/73/42 52/58/30 66/72/41
f 67/73/42 2/57/43 52/58/30
f 68/74/20 69/75/20 70/76/20
f 68/74/20 71/77/20 69/75/20
f 72/78/20 71/77/20 68/74/20
f 72/78/20 68/74/20 73/79/20
f 73/79/20 68/74/20 74/80/20
f 73/79/20 74/80/20 75/81/20
f 71/77/20 72/78/20 76/82/20
f 72/78/20 77/83/20 76/82/20
f 72/78/20 78/84/20 77/83/20
f 27/27/44 29/29/44 79/85/44
f 80/86/45 66/72/46 65/71/47
f 66/72/46 80/86/45 81/87/48
f 66/72/46 81/87/48 82/88/49
f 66/72/46 82/88/49 67/73/50
f 60/66/10 83/89/51 62/68/10
f 62/68/10 83/89/51 63/69/10
f 83/89/51 64/70/10 63/69/10
f 83/89/51 65/71/47 64/70/10
f 80/86/45 65/71/47 83/89/51
f 80/86/45 83/89/51 60/66/52
f 80/86/45 60/66/52 57/63/53
f 57/63/53 81/87/48 80/86/45
f 57/63/53 55/61/54 81/87/48
f 82/88/49 81/87/48 55/61/54
f 82/88/49 55/61/54 54/60/55
f 84/90/56 82/88/49 54/60/55
f 84/90/56 54/60/55 53/59/57
f 85/91/58 84/90/56 53/59/57
f 85/91/58 53/59/57 58/64/59
f 86/92/60 85/91/58 58/64/59
f 86/92/60 58/64/59 49/53/61
f 87/93/62 86/92/60 49/53/61
f 82/88/49 2/57/63 67/73/64
f 82/88/49 3/94/65 2/57/63
f 84/90/56 3/94/65 82/88/49
f 84/90/56 5/95/66 3/94/65
f 85/91/58 5/95/66 84/90/56
f 85/91/58 7/96/10 5/95/66
f 86/92/60 7/96/10 85/91/58
f 86/92/60 8/97/10 7/96/10
f 86/92/60 87/93/10 8/97/10
f 87/93/62 49/53/61 48/52/67
f 88/98/68 87/93/62 48/52/67
f 87/93/62 88/98/68 89/99/10
f 87/93/62 89/99/10 8/97/10
f 8/97/10 89/99/10 11/100/10
f 88/101/69 48/102/69 47/103/69
f 79/85/70 90/104/71 91/105/72
f 92/106/73 91/105/72 90/104/71
f 92/106/73 93/107/73 91/105/72
f 94/108/74 93/107/73 92/106/73
f 94/108/74 95/109/74 93/107/73
f 95/109/74 94/108/74 96/110/20
f 96/110/20 94/108/74 97/111/75
f 96/110/20 97/111/75 98/112/20
f 99/113/20 100/114/20 101/115/20
f 100/114/20 98/112/20 101/115/20
f 100/114/20 96/110/20 98/112/20
f 102/116/20 103/117/20 104/118/20
f 105/119/75 104/118/20 103/117/20
f 105/119/75 94/108/74 104/118/20
f 105/119/75 97/111/75 94/108/74
f 105/119/75 106/120/76 97/111/75
f 106/120/76 107/121/76 97/111/75
f 106/120/76 108/122/77 107/121/76
f 108/122/77 109/123/78 107/121/76
f 108/122/77 43/43/79 109/123/78
f 19/124/80 68/125/81 70/126/80
f 18/127/81 68/125/82 19/124/80
f 18/127/81 74/128/83 68/125/82
f 20/129/83 74/128/83 18/127/81
f 20/129/83 21/130/84 74/128/83
f 74/128/83 21/130/84 75/131/84
f 21/130/84 73/132/85 75/131/84
f 21/130/84 22/133/85 73/132/85
f 22/133/85 72/134/86 73/132/85
f 22/133/85 15/135/86 72/134/86
f 69/136/87 16/137/88 17/138/87
f 71/139/88 16/137/88 69/136/87
f 71/139/88 13/140/89 16/137/88
f 76/141/89 13/140/89 71/139/88
f 76/141/89 77/142/90 13/140/89
f 13/140/89 77/142/90 14/143/90
f 77/142/90 12/144/91 14/143/90
f 77/142/90 78/145/91 12/144/91
f 72/146/92 12/144/91 78/145/91
f 72/146/92 15/147/93 12/144/91
f 28/148/94 27/149/95 93/150/94
f 27/149/95 91/151/95 93/150/94
f 27/149/95 79/152/96 91/151/95
f 93/153/97 31/154/98 28/155/97
f 95/156/98 31/154/98 93/153/97
f 95/156/98 96/157/99 31/154/98
f 96/157/99 33/158/99 31/154/98
f 96/157/99 35/159/100 33/158/99
f 100/160/100 35/159/100 96/157/99
f 100/160/100 99/161/101 35/159/100
f 99/161/101 36/162/101 35/159/100
f 99/161/101 101/163/102 36/162/101
f 101/163/102 34/164/102 36/162/101
f 101/163/102 37/165/103 34/164/102
f 98/166/103 37/165/103 101/163/102
f 98/166/103 97/167/104 37/165/103
f 37/165/103 97/167/104 38/168/104
f 97/167/104 39/169/105 38/168/104
f 97/167/104 107/170/105 39/169/105
f 30/171/106 32/172/107 92/173/106
f 92/173/106 32/172/107 94/174/107
f 32/172/107 104/175/108 94/174/107
f 32/172/107 23/176/108 104/175/108
f 23/176/108 102/177/109 104/175/108
f 23/176/108 25/178/109 102/177/109
f 25/178/109 103/179/110 102/177/109
f 25/178/109 24/180/110 103/179/110
f 24/180/110 105/181/111 103/179/110
f 24/180/110 26/182/111 105/181/111
f 40/183/112 105/181/111 26/182/111
f 40/183/112 106/184/112 105/181/111
f 40/185/113 42/186/114 106/187/113
f 42/186/114 108/188/115 106/187/113
f 42/186/114 43/189/116 108/188/115
f 92/190/117 90/191/118 30/192/117
f 90/191/118 29/193/119 30/192/117
f 90/191/118 79/194/120 29/193/119
f 107/195/121 109/196/122 39/197/121
f 109/196/122 41/198/122 39/197/121
f 109/196/122 43/199/123 41/198/122
