# Blender v2.79 (sub 0) OBJ File: ''
# www.blender.org
mtllib dagger.mtl
o dagger2
v -3.144700 -0.230800 2.898800
v -3.281900 0.002400 3.348900
v -2.948200 -0.502000 2.902800
v -0.859100 0.474000 -5.120600
v 0.000000 0.921100 -5.120600
v 0.000000 -0.003100 -6.152000
v -0.657900 0.427200 -4.532500
v 0.000000 0.629900 -4.532500
v 0.859100 0.474000 -5.120600
v 0.657900 0.427200 -4.532500
v 0.657900 -0.433400 -4.532500
v 0.000000 -0.927300 -5.120600
v 0.859100 -0.480200 -5.120600
v -0.859100 -0.480200 -5.120600
v 0.000000 -0.636100 -4.532500
v -0.657900 -0.433400 -4.532500
v 0.263000 0.237200 -4.129200
v -0.263000 0.237200 -4.532500
v -0.263000 0.237200 -4.129200
v 0.263000 0.237200 -4.532500
v 0.263000 -0.236300 -4.129200
v 0.263000 -0.236300 -4.532500
v -0.263000 -0.236300 -4.129200
v -0.263000 -0.236300 -4.532500
v -3.144700 0.006900 3.109000
v 3.144700 0.006900 3.109000
v -0.000000 0.404800 2.928700
v -0.000000 0.016500 3.350800
v 3.144700 0.224700 2.916400
v -3.144700 0.224700 2.916400
v -0.001500 -0.288700 3.118300
v -0.617300 -0.002600 10.705100
v -0.730400 -0.002600 3.118300
v -0.004300 -0.260300 10.705100
v -0.524700 -0.002600 13.026200
v -0.004400 -0.175700 13.991400
v -0.342400 -0.002600 14.939400
v -0.000400 -0.002600 16.391100
v 0.332900 -0.002600 14.939400
v 0.516400 -0.002600 13.026200
v 0.608700 -0.002600 10.705100
v 0.727400 -0.002600 3.118300
v -0.000000 -0.410900 2.886400
v 3.144700 -0.230800 2.898800
v -3.144700 -0.013000 2.706100
v -0.000000 -0.022500 2.464300
v 3.144700 -0.013000 2.706100
v -0.372500 0.645600 -4.129200
v -0.372500 -0.644800 -4.129200
v -0.745000 0.000400 -4.129200
v 0.372500 0.645600 -4.129200
v 0.745000 0.000400 -4.129200
v 0.372500 -0.644800 -4.129200
v 0.415300 -0.718900 3.711500
v -0.830600 0.000400 3.711500
v -0.415300 -0.718900 3.711500
v 0.830600 0.000400 3.711500
v 0.415300 0.719800 3.711500
v -0.415300 0.719800 3.711500
v 2.948200 -0.502000 2.902800
v 3.281900 -0.008400 2.466200
v 4.438700 -0.003000 2.907600
v 2.948200 0.495900 2.912400
v 3.281900 0.002400 3.348900
v 0.495700 -0.858100 -1.004200
v -0.495700 -0.858100 -1.004200
v -0.991400 0.000400 -1.004200
v -0.495700 0.859000 -1.004200
v 0.495700 0.859000 -1.004200
v 0.991400 0.000400 -1.004200
v 0.372500 0.645600 2.120800
v 0.745000 0.000400 2.120800
v -0.372500 0.645600 2.120800
v -0.745000 0.000400 2.120800
v 0.372500 -0.644800 2.120800
v -0.372500 -0.644800 2.120800
v 0.047700 0.255000 10.705100
v -0.001500 0.283400 3.118300
v 0.029900 0.170400 13.991400
v -2.948200 0.495900 2.912400
v -3.281900 -0.008400 2.466200
v -4.438700 -0.003000 2.907600
v -3.144700 -0.230800 2.898800
v -3.281900 0.002400 3.348900
v -2.948200 -0.502000 2.902800
v -0.859100 0.474000 -5.120600
v 0.000000 0.921100 -5.120600
v 0.000000 -0.003100 -6.152000
v 0.000000 0.629900 -4.532500
v 0.657900 0.427200 -4.532500
v 0.859100 0.474000 -5.120600
v 0.657900 -0.433400 -4.532500
v 0.000000 -0.927300 -5.120600
v 0.859100 -0.480200 -5.120600
v -0.859100 -0.480200 -5.120600
v 0.000000 -0.636100 -4.532500
v -0.657900 -0.433400 -4.532500
v 0.263000 0.237200 -4.129200
v -0.263000 0.237200 -4.532500
v -0.263000 0.237200 -4.129200
v 0.263000 -0.236300 -4.129200
v 0.263000 -0.236300 -4.532500
v 0.263000 0.237200 -4.532500
v 3.144700 0.006900 3.109000
v -0.000000 0.404800 2.928700
v -0.000000 0.016500 3.350800
v -0.001500 -0.288700 3.118300
v -0.617300 -0.002600 10.705100
v -0.730400 -0.002600 3.118300
v -0.524700 -0.002600 13.026200
v -0.004300 -0.260300 10.705100
v -0.004400 -0.175700 13.991400
v -3.144700 -0.013000 2.706100
v -0.000000 -0.022500 2.464300
v -0.000000 -0.410900 2.886400
v -0.372500 0.645600 -4.129200
v -0.372500 -0.644800 -4.129200
v -0.745000 0.000400 -4.129200
v 0.415300 -0.718900 3.711500
v -0.830600 0.000400 3.711500
v -0.415300 -0.718900 3.711500
v 2.948200 -0.502000 2.902800
v 3.281900 -0.008400 2.466200
v 4.438700 -0.003000 2.907600
v 0.372500 0.645600 -4.129200
v -0.495700 0.859000 -1.004200
v 0.495700 0.859000 -1.004200
v 0.372500 0.645600 2.120800
v 0.745000 0.000400 2.120800
v 0.991400 0.000400 -1.004200
v 0.415300 0.719800 3.711500
v -0.372500 0.645600 2.120800
v -0.415300 0.719800 3.711500
v 0.495700 -0.858100 -1.004200
v 0.372500 -0.644800 2.120800
v -0.495700 -0.858100 -1.004200
v -0.372500 -0.644800 2.120800
v -0.745000 0.000400 2.120800
v -0.991400 0.000400 -1.004200
v -0.001500 0.283400 3.118300
v 0.047700 0.255000 10.705100
v 0.727400 -0.002600 3.118300
v 0.516400 -0.002600 13.026200
v 0.029900 0.170400 13.991400
v 0.332900 -0.002600 14.939400
v -2.948200 0.495900 2.912400
v -3.144700 0.006900 3.109000
v -3.144700 0.224700 2.916400
vt 0.054700 -0.039100
vt 0.088900 -0.054700
vt 0.054700 -0.019500
vt 0.725600 -0.182600
vt 0.803700 -0.182600
vt 0.803700 -0.083000
vt 0.743200 -0.240200
vt 0.803700 -0.240200
vt 0.881800 -0.182600
vt 0.863300 -0.240200
vt 0.743200 -0.240200
vt 0.803700 -0.182600
vt 0.725600 -0.182600
vt 0.881800 -0.182600
vt 0.803700 -0.240200
vt 0.863300 -0.240200
vt 0.288100 -0.079100
vt 0.236300 -0.036100
vt 0.236300 -0.079100
vt 0.288100 -0.036100
vt 0.335900 -0.079100
vt 0.335900 -0.036100
vt 0.388700 -0.079100
vt 0.388700 -0.036100
vt 0.435500 -0.079100
vt 0.435500 -0.036100
vt 0.070300 -0.054700
vt 0.980500 -0.055700
vt 0.754900 -0.041000
vt 0.754900 -0.074200
vt 0.980500 -0.041000
vt 0.529300 -0.055700
vt 0.529300 -0.041000
vt 0.487300 -0.989300
vt 0.549800 -0.415000
vt 0.549800 -0.989300
vt 0.487300 -0.415000
vt 0.539100 -0.278300
vt 0.487300 -0.210000
vt 0.522500 -0.141600
vt 0.487300 -0.004900
vt 0.449200 -0.141600
vt 0.432600 -0.278300
vt 0.421900 -0.415000
vt 0.421900 -0.989300
vt 0.980500 -0.041000
vt 0.754900 -0.041000
vt 0.980500 -0.055700
vt 0.529300 -0.055700
vt 0.529300 -0.041000
vt 0.980500 -0.025400
vt 0.754900 -0.006800
vt 0.529300 -0.025400
vt 0.903300 -0.368200
vt 0.903300 -0.275400
vt 0.877000 -0.322300
vt 0.957000 -0.368200
vt 0.983400 -0.322300
vt 0.957000 -0.275400
vt 0.762700 -0.269500
vt 0.852500 -0.321300
vt 0.823200 -0.269500
vt 0.733400 -0.321300
vt 0.762700 -0.373000
vt 0.823200 -0.373000
vt 0.981400 -0.240200
vt 0.985400 -0.182600
vt 0.903300 -0.240200
vt 0.898400 -0.182600
vt 0.942400 -0.083000
vt 0.981400 -0.240200
vt 0.985400 -0.182600
vt 0.903300 -0.240200
vt 0.898400 -0.182600
vt 0.109400 -0.055700
vt 0.133800 -0.021500
vt 0.216800 -0.055700
vt 0.529300 -0.025400
vt 0.980500 -0.025400
vt 0.109400 -0.055700
vt 0.580100 -0.148400
vt 0.700200 -0.148400
vt 0.640600 -0.129900
vt 0.700200 -0.227500
vt 0.580100 -0.227500
vt 0.640600 -0.246100
vt 0.133800 -0.088900
vt 0.707000 -0.389600
vt 0.635700 -0.389600
vt 0.635700 -0.627900
vt 0.707000 -0.627900
vt 0.778300 -0.389600
vt 0.778300 -0.627900
vt 0.850600 -0.389600
vt 0.850600 -0.627900
vt 0.921900 -0.389600
vt 0.921900 -0.627900
vt 0.993200 -0.389600
vt 0.993200 -0.627900
vt 0.921900 -0.867200
vt 0.993200 -0.867200
vt 0.993200 -0.988300
vt 0.921900 -0.988300
vt 0.850600 -0.867200
vt 0.850600 -0.988300
vt 0.778300 -0.867200
vt 0.778300 -0.988300
vt 0.564500 -0.389600
vt 0.564500 -0.627900
vt 0.564500 -0.867200
vt 0.635700 -0.867200
vt 0.707000 -0.867200
vt 0.707000 -0.988300
vt 0.635700 -0.988300
vt 0.564500 -0.988300
vt 0.421900 -0.415000
vt 0.487300 -0.415000
vt 0.421900 -0.989300
vt 0.487300 -0.989300
vt 0.549800 -0.989300
vt 0.549800 -0.415000
vt 0.539100 -0.278300
vt 0.487300 -0.210000
vt 0.522500 -0.141600
vt 0.449200 -0.141600
vt 0.432600 -0.278300
vt 0.054700 -0.090800
vt 0.054700 -0.071300
vt 0.070300 -0.054700
vt 0.054700 -0.019500
vt 0.054700 -0.039100
vt 0.021500 -0.054700
vt 0.040000 -0.054700
vt 0.088900 -0.054700
vt 0.054700 -0.071300
vt 0.054700 -0.090800
vt 0.040000 -0.054700
vt 0.216800 -0.055700
vt 0.109400 -0.055700
vt 0.133800 -0.088900
vt 0.021500 -0.054700
vt 0.109400 -0.055700
vt 0.133800 -0.021500
vt 0.054700 -0.039100
vt 0.088900 -0.054700
vt 0.054700 -0.019500
vt 0.725600 -0.182600
vt 0.803700 -0.182600
vt 0.803700 -0.083000
vt 0.803700 -0.240200
vt 0.863300 -0.240200
vt 0.881800 -0.182600
vt 0.743200 -0.240200
vt 0.803700 -0.182600
vt 0.725600 -0.182600
vt 0.881800 -0.182600
vt 0.803700 -0.240200
vt 0.863300 -0.240200
vt 0.288100 -0.079100
vt 0.236300 -0.036100
vt 0.236300 -0.079100
vt 0.335900 -0.079100
vt 0.335900 -0.036100
vt 0.288100 -0.036100
vt 0.435500 -0.079100
vt 0.435500 -0.036100
vt 0.980500 -0.055700
vt 0.754900 -0.041000
vt 0.754900 -0.074200
vt 0.487300 -0.989300
vt 0.549800 -0.415000
vt 0.549800 -0.989300
vt 0.539100 -0.278300
vt 0.487300 -0.415000
vt 0.487300 -0.210000
vt 0.980500 -0.041000
vt 0.529300 -0.055700
vt 0.980500 -0.025400
vt 0.754900 -0.006800
vt 0.754900 -0.041000
vt 0.903300 -0.368200
vt 0.903300 -0.275400
vt 0.877000 -0.322300
vt 0.762700 -0.269500
vt 0.852500 -0.321300
vt 0.823200 -0.269500
vt 0.981400 -0.240200
vt 0.985400 -0.182600
vt 0.903300 -0.240200
vt 0.898400 -0.182600
vt 0.942400 -0.083000
vt 0.985400 -0.182600
vt 0.903300 -0.240200
vt 0.898400 -0.182600
vt 0.109400 -0.055700
vt 0.133800 -0.021500
vt 0.216800 -0.055700
vt 0.529300 -0.025400
vt 0.580100 -0.148400
vt 0.700200 -0.148400
vt 0.640600 -0.129900
vt 0.580100 -0.227500
vt 0.640600 -0.246100
vt 0.707000 -0.389600
vt 0.778300 -0.389600
vt 0.850600 -0.389600
vt 0.921900 -0.389600
vt 0.850600 -0.627900
vt 0.921900 -0.627900
vt 0.921900 -0.867200
vt 0.993200 -0.867200
vt 0.993200 -0.627900
vt 0.921900 -0.988300
vt 0.850600 -0.867200
vt 0.850600 -0.988300
vt 0.778300 -0.988300
vt 0.564500 -0.627900
vt 0.564500 -0.867200
vt 0.635700 -0.627900
vt 0.635700 -0.867200
vt 0.707000 -0.627900
vt 0.707000 -0.867200
vt 0.778300 -0.867200
vt 0.778300 -0.627900
vt 0.707000 -0.988300
vt 0.635700 -0.988300
vt 0.421900 -0.415000
vt 0.421900 -0.989300
vt 0.487300 -0.989300
vt 0.487300 -0.415000
vt 0.549800 -0.989300
vt 0.539100 -0.278300
vt 0.487300 -0.210000
vt 0.522500 -0.141600
vt 0.432600 -0.278300
vt 0.054700 -0.090800
vt 0.070300 -0.054700
vt 0.054700 -0.071300
vt 0.054700 -0.019500
vt 0.040000 -0.054700
vt 0.088900 -0.054700
vt 0.040000 -0.054700
vt 0.109400 -0.055700
vt 0.133800 -0.088900
vt 0.109400 -0.055700
vn 0.8089 0.5852 -0.0567
vn -0.4527 0.8698 -0.1961
vn 0.0225 0.9904 -0.1363
vn -0.0001 -0.0000 -1.0000
vn -0.3853 0.8722 0.3015
vn 0.0608 0.9152 0.3985
vn 0.4069 0.8994 -0.1595
vn 0.2899 0.9411 0.1741
vn 0.3853 -0.8722 0.3015
vn -0.0225 -0.9904 -0.1363
vn 0.4527 -0.8698 -0.1961
vn 0.0001 0.0000 -1.0000
vn -0.4069 -0.8994 -0.1595
vn -0.0608 -0.9152 0.3985
vn -0.2899 -0.9411 0.1741
vn 0.7071 0.7071 0.0000
vn -0.7071 0.7071 0.0000
vn 0.0000 1.0000 0.0000
vn 0.7071 -0.7071 -0.0000
vn -0.7071 -0.7071 -0.0000
vn -0.7071 -0.7071 0.0002
vn -1.0000 0.0000 0.0000
vn -0.7071 -0.7071 -0.0002
vn -0.7071 0.7071 0.0002
vn 0.7996 -0.3978 0.4498
vn 0.0424 0.6704 0.7408
vn 0.0534 0.7307 0.6806
vn 0.0542 0.7349 0.6760
vn 0.0408 0.6619 0.7485
vn -0.0424 0.6704 0.7408
vn -0.0534 0.7307 0.6806
vn -0.0408 0.6619 0.7485
vn -0.0542 0.7349 0.6760
vn -0.0534 0.7306 0.6807
vn 0.0001 -1.0000 0.0059
vn -0.3868 -0.9221 0.0094
vn -0.3654 -0.9308 0.0054
vn -0.0001 -0.9999 0.0109
vn -0.3610 -0.9322 0.0249
vn 0.0000 -0.9992 0.0403
vn -0.3066 -0.9497 0.0641
vn 0.0002 -0.9974 0.0719
vn 0.3092 -0.9489 0.0632
vn 0.3608 -0.9323 0.0249
vn 0.3875 -0.9217 0.0154
vn 0.3654 -0.9308 0.0057
vn -0.0350 -0.6620 0.7487
vn -0.0000 -0.7313 0.6821
vn -0.0368 -0.6714 0.7402
vn -0.0000 -0.7312 0.6822
vn 0.0000 -0.7358 0.6772
vn 0.0368 -0.6714 0.7402
vn 0.0350 -0.6620 0.7487
vn -0.0424 -0.6706 -0.7406
vn 0.0000 -0.7317 -0.6816
vn -0.0409 -0.6621 -0.7483
vn 0.0000 -0.7359 -0.6771
vn -0.0001 -0.7316 -0.6817
vn 0.0424 -0.6706 -0.7406
vn 0.0409 -0.6621 -0.7483
vn 0.0000 0.0000 -1.0000
vn 0.0000 0.0000 1.0000
vn 0.9462 0.0000 0.3237
vn 0.9919 0.0000 -0.1272
vn 0.0000 -0.0001 -1.0000
vn -0.9462 0.0000 0.3237
vn -0.9919 0.0000 -0.1272
vn -0.0000 0.0001 -1.0000
vn 0.2465 -0.7302 -0.6372
vn -0.0536 0.6711 -0.7395
vn 0.0000 0.7313 -0.6821
vn -0.0555 0.6616 -0.7478
vn 0.0000 0.7359 -0.6771
vn 0.0536 0.6711 -0.7395
vn 0.0555 0.6616 -0.7478
vn 0.2415 0.7278 -0.6419
vn 0.2465 0.7302 0.6372
vn -0.4985 -0.8633 -0.0786
vn 0.0000 -0.9977 -0.0681
vn 0.5000 -0.8660 0.0000
vn -0.5000 -0.8660 0.0000
vn -0.9969 -0.0000 -0.0786
vn -0.4985 0.8633 -0.0786
vn -0.5000 0.8660 0.0000
vn 0.4985 0.8633 -0.0786
vn 0.5000 0.8660 0.0000
vn 0.9969 0.0000 -0.0786
vn 1.0000 0.0000 -0.0000
vn 0.5000 0.8659 0.0127
vn 0.9999 -0.0000 0.0127
vn 0.8651 0.4994 -0.0466
vn 0.4993 0.8648 -0.0538
vn -0.5000 0.8660 0.0127
vn -0.4993 0.8648 -0.0538
vn -0.9999 -0.0000 0.0127
vn -0.9986 -0.0000 -0.0537
vn 0.8640 -0.4988 -0.0681
vn 0.5000 -0.8660 0.0127
vn -0.5000 -0.8660 0.0127
vn -0.4993 -0.8648 -0.0537
vn 0.4993 -0.8648 -0.0537
vn 0.8651 -0.4995 -0.0466
vn -0.3612 0.9325 0.0054
vn 0.0306 0.9995 0.0122
vn -0.3650 0.9310 0.0058
vn -0.0015 1.0000 0.0038
vn -0.3647 0.9311 0.0057
vn 0.3680 0.9298 0.0014
vn 0.4173 0.9087 0.0115
vn 0.3861 0.9221 0.0267
vn 0.0278 0.9988 0.0405
vn 0.3274 0.9425 0.0674
vn -0.0002 0.9974 0.0719
vn -0.2903 0.9550 0.0603
vn -0.3384 0.9407 0.0233
vn 0.6686 -0.4926 -0.5571
vn 0.2415 -0.7276 0.6420
vn 0.8596 -0.1489 0.4888
vn -0.6687 0.4927 0.5569
vn 0.7997 0.3979 -0.4497
vn -0.8596 0.1488 -0.4888
vn 0.8089 -0.5852 0.0565
vn -0.7997 0.3979 -0.4497
vn 0.6687 0.4927 0.5569
vn -0.8089 -0.5852 0.0565
vn 0.8596 0.1488 -0.4888
vn -0.6686 -0.4926 -0.5571
vn -0.2415 -0.7276 0.6420
vn -0.8596 -0.1489 0.4888
vn -0.2465 0.7302 0.6372
vn -0.7996 -0.3978 0.4498
vn -0.2415 0.7278 -0.6419
vn -0.8089 0.5852 -0.0567
vn -0.2465 -0.7302 -0.6372
vn 0.4070 0.8994 -0.1595
vn -0.0000 0.7312 -0.6821
vn -0.5000 -0.8659 0.0127
vn -0.5000 0.8659 0.0127
vn -0.3385 0.9407 0.0233
usemtl demonssouls_daggerspec
s 1
f 1/1/1 2/2/1 3/3/1
f 4/4/2 5/5/3 6/6/4
f 4/4/2 7/7/5 5/5/3
f 7/7/5 8/8/6 5/5/3
f 8/8/6 9/9/7 5/5/3
f 8/8/6 10/10/8 9/9/7
f 6/6/4 5/5/3 9/9/7
f 11/11/9 12/12/10 13/13/11
f 12/12/10 6/6/12 13/13/11
f 12/12/10 14/14/13 6/6/12
f 12/12/10 15/15/14 14/14/13
f 14/14/13 15/15/14 16/16/15
f 12/12/10 11/11/9 15/15/14
f 17/17/16 18/18/17 19/19/18
f 17/17/16 20/20/16 18/18/17
f 21/21/19 20/20/16 17/17/16
f 21/21/19 22/22/19 20/20/16
f 23/23/20 22/22/19 21/21/19
f 23/23/20 24/24/21 22/22/19
f 19/25/22 24/24/20 23/23/23
f 19/25/22 18/26/24 24/24/20
f 2/2/25 1/1/25 25/27/25
f 26/28/26 27/29/27 28/30/28
f 26/28/26 29/31/29 27/29/27
f 25/32/30 27/29/31 30/33/32
f 25/32/30 28/30/33 27/29/34
f 31/34/35 32/35/36 33/36/37
f 31/34/35 34/37/38 32/35/36
f 35/38/39 32/35/36 34/37/38
f 35/38/39 34/37/38 36/39/40
f 36/39/40 37/40/41 35/38/39
f 36/39/40 38/41/42 37/40/41
f 38/41/42 36/39/40 39/42/43
f 36/39/40 40/43/44 39/42/43
f 36/39/40 34/37/38 40/43/44
f 40/43/44 34/37/38 41/44/45
f 31/34/35 41/44/45 34/37/38
f 31/34/35 42/45/46 41/44/45
f 1/46/47 43/47/48 25/48/49
f 25/48/49 43/47/50 28/30/51
f 43/47/50 26/49/52 28/30/51
f 43/47/50 44/50/53 26/49/52
f 45/51/54 43/47/55 1/46/56
f 45/51/54 46/52/57 43/47/58
f 47/53/59 43/47/58 46/52/57
f 47/53/59 44/50/60 43/47/58
f 48/54/61 49/55/61 50/56/61
f 51/57/61 52/58/61 48/54/61
f 52/58/61 49/55/61 48/54/61
f 52/58/61 53/59/61 49/55/61
f 54/60/62 55/61/62 56/62/62
f 57/63/62 58/64/62 54/60/62
f 58/64/62 55/61/62 54/60/62
f 58/64/62 59/65/62 55/61/62
f 11/66/63 13/67/64 10/68/63
f 13/67/64 9/69/64 10/68/63
f 13/67/64 6/70/65 9/69/64
f 7/71/66 4/72/67 16/73/66
f 4/72/67 14/74/67 16/73/66
f 4/72/67 6/70/68 14/74/67
f 60/75/69 61/76/69 62/77/69
f 30/33/70 46/52/71 45/78/72
f 30/33/70 27/29/73 46/52/71
f 29/31/74 46/52/71 27/29/73
f 29/31/74 47/79/75 46/52/71
f 61/76/76 63/80/76 62/77/76
f 11/81/62 16/82/62 15/83/62
f 11/81/62 7/84/62 16/82/62
f 10/85/62 7/84/62 11/81/62
f 10/85/62 8/86/62 7/84/62
f 63/80/77 64/87/77 62/77/77
f 49/88/78 53/89/79 65/90/80
f 66/91/81 49/88/78 65/90/80
f 66/91/81 50/92/82 49/88/78
f 66/91/81 67/93/22 50/92/82
f 48/94/83 50/92/82 67/93/22
f 48/94/83 67/93/22 68/95/84
f 51/96/85 48/94/83 68/95/84
f 51/96/85 68/95/84 69/97/86
f 51/96/85 69/97/86 52/98/87
f 52/98/87 69/97/86 70/99/88
f 71/100/89 70/99/88 69/97/86
f 71/100/89 72/101/90 70/99/88
f 72/101/90 71/100/89 57/102/91
f 71/100/89 58/103/92 57/102/91
f 71/100/89 73/104/93 58/103/92
f 58/103/92 73/104/93 59/105/94
f 73/104/93 74/106/95 59/105/94
f 59/105/94 74/106/95 55/107/96
f 53/89/97 52/108/87 70/109/88
f 53/89/97 70/109/88 65/90/80
f 72/110/90 65/90/80 70/109/88
f 65/90/80 72/110/90 75/111/98
f 65/90/80 75/111/98 66/91/81
f 66/91/81 75/111/98 76/112/99
f 76/112/99 67/93/22 66/91/81
f 76/112/99 74/106/95 67/93/22
f 74/106/95 68/95/84 67/93/22
f 73/104/93 68/95/84 74/106/95
f 73/104/93 69/97/86 68/95/84
f 73/104/93 71/100/89 69/97/86
f 76/112/99 55/107/96 74/106/95
f 76/112/99 56/113/100 55/107/96
f 75/111/98 56/113/100 76/112/99
f 75/111/98 54/114/101 56/113/100
f 54/114/101 75/111/98 72/110/90
f 54/114/101 72/110/90 57/115/102
f 32/116/103 77/117/104 33/118/105
f 78/119/106 33/118/107 77/117/104
f 78/119/106 77/117/104 42/120/108
f 41/121/109 42/120/108 77/117/104
f 41/121/109 77/117/104 40/122/110
f 79/123/111 40/122/110 77/117/104
f 40/122/110 79/123/111 39/124/112
f 79/123/111 38/41/113 39/124/112
f 79/123/111 37/125/114 38/41/113
f 37/125/114 79/123/111 35/126/115
f 79/123/111 77/117/104 35/126/115
f 32/116/103 35/126/115 77/117/104
f 80/127/116 25/27/116 30/128/116
f 64/87/117 60/75/117 62/77/117
f 25/27/118 80/127/118 2/2/118
f 47/129/119 60/130/119 44/131/119
f 81/132/120 30/128/120 45/133/120
f 60/130/121 47/129/121 61/134/121
f 30/128/122 81/132/122 80/127/122
f 29/135/123 61/134/123 47/129/123
f 3/3/124 45/133/124 1/1/124
f 61/134/125 29/135/125 63/136/125
f 45/133/126 3/3/126 81/132/126
f 26/137/127 63/136/127 29/135/127
f 82/138/128 3/139/128 2/140/128
f 63/136/129 26/137/129 64/141/129
f 82/138/130 2/140/130 80/142/130
f 44/131/131 64/141/131 26/137/131
f 82/138/132 80/142/132 81/143/132
f 64/141/133 44/131/133 60/130/133
f 82/138/134 81/143/134 3/139/134
usemtl demonssouls_dagger
f 83/144/1 84/145/1 85/146/1
f 86/147/2 87/148/3 88/149/4
f 86/147/2 7/7/5 87/148/3
f 7/7/5 8/8/6 87/148/3
f 8/8/6 9/9/135 87/148/3
f 89/150/6 90/151/8 91/152/7
f 88/149/4 87/148/3 91/152/7
f 92/153/9 93/154/10 94/155/11
f 93/154/10 88/149/12 94/155/11
f 93/154/10 14/14/13 88/149/12
f 93/154/10 15/15/14 14/14/13
f 95/156/13 96/157/14 97/158/15
f 93/154/10 92/153/9 96/157/14
f 98/159/16 99/160/17 100/161/18
f 98/159/16 20/20/16 99/160/17
f 21/21/19 20/20/16 98/159/16
f 101/162/19 102/163/19 103/164/16
f 23/23/20 102/163/19 101/162/19
f 23/23/20 24/24/21 102/163/19
f 100/165/22 24/24/20 23/23/23
f 100/165/22 99/166/24 24/24/20
f 84/145/25 83/144/25 25/27/25
f 104/167/26 105/168/27 106/169/28
f 104/167/26 29/31/29 105/168/27
f 25/32/30 105/168/31 30/33/32
f 25/32/30 106/169/33 105/168/34
f 107/170/35 108/171/36 109/172/37
f 107/170/35 34/37/38 108/171/36
f 35/38/39 108/171/36 34/37/38
f 110/173/39 111/174/38 112/175/40
f 112/175/40 37/40/41 110/173/39
f 112/175/40 38/41/42 37/40/41
f 38/41/42 112/175/40 39/42/43
f 112/175/40 40/43/44 39/42/43
f 112/175/40 111/174/38 40/43/44
f 40/43/44 111/174/38 41/44/45
f 107/170/35 41/44/45 111/174/38
f 107/170/35 42/45/46 41/44/45
f 83/176/47 43/47/48 25/48/49
f 25/48/49 43/47/50 106/169/51
f 43/47/50 104/177/52 106/169/51
f 43/47/50 44/50/53 104/177/52
f 45/51/54 43/47/55 83/176/56
f 113/178/54 114/179/57 115/180/58
f 47/53/59 115/180/58 114/179/57
f 47/53/59 44/50/60 115/180/58
f 116/181/61 117/182/61 118/183/61
f 51/57/61 52/58/61 116/181/61
f 52/58/61 117/182/61 116/181/61
f 52/58/61 53/59/61 117/182/61
f 119/184/62 120/185/62 121/186/62
f 57/63/62 58/64/62 119/184/62
f 58/64/62 120/185/62 119/184/62
f 58/64/62 59/65/62 120/185/62
f 92/187/63 94/188/64 90/189/63
f 94/188/64 91/190/64 90/189/63
f 94/188/64 88/191/65 91/190/64
f 7/71/66 86/192/67 97/193/66
f 86/192/67 95/194/67 97/193/66
f 86/192/67 88/191/68 95/194/67
f 122/195/69 123/196/69 124/197/69
f 30/33/70 114/179/71 113/198/72
f 30/33/70 105/168/73 114/179/136
f 29/31/74 114/179/136 105/168/73
f 29/31/74 47/79/75 114/179/136
f 123/196/76 63/80/76 124/197/76
f 92/199/62 97/200/62 96/201/62
f 92/199/62 7/84/62 97/200/62
f 90/202/62 7/84/62 92/199/62
f 90/202/62 89/203/62 7/84/62
f 63/80/77 64/87/77 124/197/77
f 117/204/78 53/89/79 65/90/80
f 66/91/81 117/204/78 65/90/80
f 66/91/81 118/205/82 117/204/78
f 66/91/81 67/93/22 118/205/82
f 116/206/83 118/205/82 67/93/22
f 116/206/83 67/93/22 68/95/84
f 51/96/85 116/206/83 68/95/84
f 125/207/85 126/208/84 127/209/86
f 125/207/85 127/209/86 52/98/87
f 52/98/87 127/209/86 70/99/88
f 71/100/89 70/99/88 127/209/86
f 128/210/89 129/211/90 130/212/88
f 129/211/90 128/210/89 57/102/91
f 128/210/89 58/103/92 57/102/91
f 128/210/89 73/104/93 58/103/92
f 131/213/92 132/214/93 133/215/94
f 132/214/93 74/106/95 133/215/94
f 133/215/94 74/106/95 120/216/96
f 53/89/97 52/108/87 130/217/88
f 53/89/97 130/217/88 65/90/80
f 129/218/90 65/90/80 130/217/88
f 65/90/80 129/218/90 75/111/98
f 134/219/80 135/220/98 136/221/81
f 136/221/81 135/220/98 76/112/137
f 76/112/137 67/93/22 136/221/81
f 137/222/137 138/223/95 139/224/22
f 138/223/95 126/208/84 139/224/22
f 132/214/138 126/208/84 138/223/95
f 132/214/138 127/209/86 126/208/84
f 132/214/138 128/210/89 127/209/86
f 137/222/137 120/216/96 138/223/95
f 137/222/137 121/225/100 120/216/96
f 135/220/98 121/225/100 137/222/137
f 135/220/98 119/226/101 121/225/100
f 119/226/101 135/220/98 129/218/90
f 119/226/101 129/218/90 57/115/102
f 108/227/103 77/117/104 109/228/105
f 78/119/106 109/228/107 77/117/104
f 140/229/106 141/230/104 142/231/108
f 41/121/109 142/231/108 141/230/104
f 41/121/109 141/230/104 40/122/110
f 79/123/111 40/122/110 141/230/104
f 143/232/110 144/233/111 145/234/112
f 144/233/111 38/41/113 145/234/112
f 144/233/111 37/125/114 38/41/113
f 37/125/114 144/233/111 110/235/139
f 144/233/111 141/230/104 110/235/139
f 108/227/103 110/235/115 141/230/104
f 146/236/116 147/237/116 148/238/116
f 64/87/117 122/195/117 124/197/117
f 147/237/118 146/236/118 84/145/118
f 47/129/119 122/239/119 44/131/119
f 81/132/120 148/238/120 113/240/120
f 122/239/121 47/129/121 123/241/121
f 148/238/122 81/132/122 146/236/122
f 29/135/123 123/241/123 47/129/123
f 85/146/124 113/240/124 83/144/124
f 123/241/125 29/135/125 63/136/125
f 113/240/126 85/146/126 81/132/126
f 104/242/127 63/136/127 29/135/127
f 82/138/128 85/243/128 84/244/128
f 63/136/129 104/242/129 64/141/129
f 82/138/130 84/244/130 146/245/130
f 44/131/131 64/141/131 104/242/131
f 82/138/132 146/245/132 81/143/132
f 64/141/133 44/131/133 122/239/133
f 82/138/134 81/143/134 85/243/134
