# Blender v2.79 (sub 0) OBJ File: ''
# www.blender.org
mtllib wooden catalyst.mtl
o wooden_catalyst_rod2
v 0.564800 0.019500 -3.185100
v 0.305100 0.475300 -3.198800
v 0.336200 0.417100 -2.443600
v 0.277600 -0.472500 -3.180300
v 0.615300 0.008200 -2.395500
v 0.191000 0.341000 -1.645900
v 0.349300 -0.018800 -1.586400
v 0.176700 0.328100 2.110700
v 0.356300 -0.024500 2.167500
v 0.304900 0.212600 6.929600
v 0.404500 0.017700 6.934500
v 0.124900 0.163800 9.749700
v 0.241200 -0.014300 9.679500
v 0.173100 0.132500 10.249500
v 0.268400 -0.041800 10.259000
v 0.299500 0.245900 12.421900
v 0.387400 0.076800 12.442600
v 0.299300 0.218500 12.838800
v 0.377000 0.061100 12.838800
v 0.072200 0.205500 15.713400
v 0.128700 0.078400 15.724700
v 0.208100 -0.345800 -1.648900
v 0.180000 -0.333700 10.272600
v 0.257500 -0.358600 6.895300
v 0.273000 -0.111600 12.838800
v 0.048400 -0.073400 15.697100
v 0.271000 -0.114700 12.377400
v -0.126300 -0.322100 10.259000
v -0.080300 -0.419400 6.814900
v -0.164000 -0.310900 2.128900
v 0.179900 -0.267500 2.116300
v 0.063000 -0.140600 12.326500
v 0.079000 -0.148500 12.838800
v -0.152900 -0.278200 -1.634900
v -0.400900 0.014900 -1.596100
v -0.421900 0.048000 2.167800
v -0.281400 -0.028200 2.548800
v -0.277200 -0.134600 6.843100
v -0.310000 -0.034900 10.273500
v -0.051100 0.053300 12.338200
v -0.021600 0.027500 12.838800
v -0.121900 -0.120200 15.650900
v 0.145600 0.055000 19.033701
v 0.067500 -0.080300 19.033701
v -0.207900 0.018900 15.695000
v -0.089400 0.163800 15.715700
v 0.110000 0.189400 12.838800
v 0.087600 0.230000 12.382100
v -0.111500 0.171800 10.248700
v 0.009000 0.232000 6.921600
v -0.073400 0.231100 2.624400
v -0.257600 0.314800 2.146000
v -0.236200 0.347000 -1.622800
v -0.327300 0.405400 -2.394100
v -0.653500 0.017300 -2.418300
v -0.303500 -0.401300 -2.415000
v 0.323000 -0.415200 -2.424300
v -0.291500 -0.484700 -3.181800
v -0.575800 0.006400 -3.195600
v -0.269600 0.459200 -3.170700
v -0.003300 -0.002800 19.311199
v -0.010500 0.055000 19.033701
v -0.001200 -0.001800 -3.514500
v 0.564800 0.019500 -3.185100
v 0.305100 0.475300 -3.198800
v 0.336200 0.417100 -2.443600
v 0.615300 0.008200 -2.395500
v 0.191000 0.341000 -1.645900
v 0.349300 -0.018800 -1.586400
v 0.304900 0.212600 6.929600
v 0.356300 -0.024500 2.167500
v 0.176700 0.328100 2.110700
v 0.241200 -0.014300 9.679500
v 0.404500 0.017700 6.934500
v 0.124900 0.163800 9.749700
v 0.299500 0.245900 12.421900
v 0.268400 -0.041800 10.259000
v 0.173100 0.132500 10.249500
v 0.387400 0.076800 12.442600
v 0.299300 0.218500 12.838800
v 0.377000 0.061100 12.838800
v 0.273000 -0.111600 12.838800
v 0.128700 0.078400 15.724700
v 0.048400 -0.073400 15.697100
v 0.180000 -0.333700 10.272600
v 0.271000 -0.114700 12.377400
v -0.126300 -0.322100 10.259000
v -0.164000 -0.310900 2.128900
v 0.257500 -0.358600 6.895300
v -0.080300 -0.419400 6.814900
v -0.152900 -0.278200 -1.634900
v 0.208100 -0.345800 -1.648900
v 0.179900 -0.267500 2.116300
v -0.051100 0.053300 12.338200
v -0.310000 -0.034900 10.273500
v 0.063000 -0.140600 12.326500
v 0.079000 -0.148500 12.838800
v -0.121900 -0.120200 15.650900
v -0.021600 0.027500 12.838800
v -0.073400 0.231100 2.624400
v -0.277200 -0.134600 6.843100
v 0.009000 0.232000 6.921600
v -0.257600 0.314800 2.146000
v -0.421900 0.048000 2.167800
v -0.281400 -0.028200 2.548800
v -0.327300 0.405400 -2.394100
v -0.653500 0.017300 -2.418300
v -0.236200 0.347000 -1.622800
v 0.323000 -0.415200 -2.424300
v -0.303500 -0.401300 -2.415000
v 0.277600 -0.472500 -3.180300
v -0.089400 0.163800 15.715700
v 0.072200 0.205500 15.713400
v 0.110000 0.189400 12.838800
v 0.067500 -0.080300 19.033701
v 0.145600 0.055000 19.033701
v -0.003300 -0.002800 19.311199
v -0.001200 -0.001800 -3.514500
v -0.575800 0.006400 -3.195600
v -0.269600 0.459200 -3.170700
vt 0.011700 -0.710000
vt 0.010700 -0.789100
vt 0.056600 -0.791000
vt 0.012700 -0.618200
vt 0.058600 -0.706100
vt 0.101600 -0.793000
vt 0.105500 -0.702100
vt 0.266600 -0.763700
vt 0.269500 -0.704100
vt 0.416000 -0.750000
vt 0.416000 -0.703100
vt 0.436500 -0.747100
vt 0.432600 -0.682600
vt 0.464800 -0.742200
vt 0.464800 -0.675800
vt 0.586900 -0.702100
vt 0.588900 -0.668000
vt 0.610400 -0.699200
vt 0.610400 -0.666000
vt 0.773400 -0.701200
vt 0.773400 -0.640600
vt 0.101600 -0.620100
vt 0.465800 -0.606400
vt 0.414100 -0.616200
vt 0.610400 -0.613300
vt 0.772500 -0.575200
vt 0.585000 -0.612300
vt 0.464800 -0.541000
vt 0.409200 -0.554700
vt 0.267600 -0.532200
vt 0.266600 -0.614300
vt 0.582000 -0.542000
vt 0.610400 -0.544900
vt 0.102500 -0.531300
vt 0.104500 -0.437500
vt 0.269500 -0.442400
vt 0.291000 -0.457000
vt 0.411100 -0.484400
vt 0.465800 -0.458000
vt 0.582000 -0.445300
vt 0.610400 -0.434600
vt 0.769500 -0.523400
vt 0.960000 -0.611300
vt 0.960000 -0.517600
vt 0.772500 -0.492200
vt 0.773400 -0.459000
vt 0.610400 -0.385700
vt 0.585000 -0.394500
vt 0.464800 -0.376000
vt 0.416000 -0.332000
vt 0.295900 -0.356400
vt 0.268600 -0.384800
vt 0.102500 -0.359400
vt 0.101600 -0.268600
vt 0.266600 -0.299800
vt 0.416000 -0.266600
vt 0.436500 -0.289100
vt 0.464800 -0.270500
vt 0.586900 -0.319300
vt 0.058600 -0.355500
vt 0.057600 -0.437500
vt 0.057600 -0.531300
vt 0.056600 -0.619100
vt 0.012700 -0.530300
vt 0.010700 -0.438500
vt 0.013700 -0.351600
vt 0.056600 -0.266600
vt 0.010700 -0.264600
vt 0.773400 -0.740200
vt 0.610400 -0.744100
vt 0.585000 -0.752000
vt 0.993200 -0.523400
vt 0.960000 -0.475600
vt 0.773400 -0.431600
vt 0.957000 -0.428700
vt 0.905300 -0.219700
vt 0.875000 -0.212900
vt 0.891600 -0.321300
vt 0.860400 -0.315400
vt 0.843800 -0.217800
vt 0.859400 -0.102500
vt 0.889600 -0.107400
vt 0.011700 -0.710000
vt 0.010700 -0.789100
vt 0.056600 -0.791000
vt 0.058600 -0.706100
vt 0.101600 -0.793000
vt 0.105500 -0.702100
vt 0.416000 -0.750000
vt 0.269500 -0.704100
vt 0.266600 -0.763700
vt 0.432600 -0.682600
vt 0.416000 -0.703100
vt 0.436500 -0.747100
vt 0.586900 -0.702100
vt 0.464800 -0.675800
vt 0.464800 -0.742200
vt 0.588900 -0.668000
vt 0.610400 -0.699200
vt 0.610400 -0.666000
vt 0.610400 -0.613300
vt 0.773400 -0.640600
vt 0.772500 -0.575200
vt 0.465800 -0.606400
vt 0.585000 -0.612300
vt 0.464800 -0.541000
vt 0.267600 -0.532200
vt 0.414100 -0.616200
vt 0.409200 -0.554700
vt 0.102500 -0.531300
vt 0.101600 -0.620100
vt 0.266600 -0.614300
vt 0.582000 -0.445300
vt 0.465800 -0.458000
vt 0.582000 -0.542000
vt 0.610400 -0.544900
vt 0.769500 -0.523400
vt 0.610400 -0.434600
vt 0.295900 -0.356400
vt 0.411100 -0.484400
vt 0.416000 -0.332000
vt 0.268600 -0.384800
vt 0.269500 -0.442400
vt 0.291000 -0.457000
vt 0.101600 -0.268600
vt 0.266600 -0.299800
vt 0.416000 -0.266600
vt 0.436500 -0.289100
vt 0.464800 -0.270500
vt 0.586900 -0.319300
vt 0.058600 -0.355500
vt 0.057600 -0.437500
vt 0.102500 -0.359400
vt 0.056600 -0.619100
vt 0.057600 -0.531300
vt 0.012700 -0.618200
vt 0.056600 -0.266600
vt 0.010700 -0.264600
vt 0.773400 -0.740200
vt 0.773400 -0.701200
vt 0.610400 -0.744100
vt 0.960000 -0.517600
vt 0.960000 -0.611300
vt 0.993200 -0.523400
vt 0.773400 -0.459000
vt 0.773400 -0.431600
vt 0.957000 -0.428700
vt 0.905300 -0.219700
vt 0.891600 -0.321300
vt 0.875000 -0.212900
vt 0.843800 -0.217800
vt 0.860400 -0.315400
vt 0.889600 -0.107400
vn 0.8888 0.0043 -0.4582
vn 0.4294 0.7928 -0.4326
vn 0.4867 0.8689 0.0903
vn 0.4323 -0.7993 -0.4173
vn 0.9942 0.0080 0.1068
vn 0.5057 0.8551 0.1140
vn 0.9889 -0.0006 0.1484
vn 0.4890 0.8715 0.0358
vn 0.9970 -0.0779 -0.0009
vn 0.5563 0.8307 0.0208
vn 0.9985 0.0501 0.0235
vn 0.4950 0.8688 0.0131
vn 0.9130 0.4079 -0.0042
vn 0.5724 0.8195 -0.0269
vn 0.9944 0.1019 -0.0297
vn 0.4852 0.8744 -0.0054
vn 0.9998 -0.0163 -0.0068
vn 0.4794 0.8756 0.0596
vn 0.9974 -0.0486 0.0540
vn 0.4152 0.9091 0.0343
vn 0.9987 -0.0342 0.0365
vn 0.4376 -0.8890 0.1351
vn 0.5616 -0.8264 0.0409
vn 0.6394 -0.7688 0.0037
vn 0.5779 -0.8155 0.0308
vn 0.6156 -0.7876 0.0258
vn 0.5502 -0.8348 0.0198
vn -0.5008 -0.8626 0.0714
vn -0.3801 -0.9249 -0.0082
vn -0.4199 -0.9073 0.0208
vn 0.5071 -0.8619 -0.0029
vn -0.4404 -0.8953 0.0676
vn -0.4031 -0.9152 -0.0012
vn -0.4827 -0.8678 0.1182
vn -0.9816 -0.1286 0.1415
vn -0.9844 -0.0050 0.1756
vn -0.9857 0.0402 0.1635
vn -0.9998 0.0200 -0.0041
vn -0.9941 0.0917 0.0579
vn -0.9932 0.0793 0.0848
vn -0.9974 0.0720 0.0025
vn -0.3897 -0.9209 0.0016
vn 0.8501 0.4660 0.2452
vn 0.0588 -0.9852 0.1612
vn -0.9981 0.0616 0.0000
vn -0.5440 0.8391 0.0065
vn -0.4914 0.8701 0.0366
vn -0.4630 0.8854 0.0400
vn -0.3511 0.9362 0.0135
vn -0.3992 0.9169 0.0018
vn -0.5272 0.8408 0.1227
vn -0.5107 0.8447 0.1600
vn -0.9845 -0.0050 0.1756
vn -0.4839 0.8705 0.0898
vn -0.4457 0.8918 0.0773
vn -0.9941 -0.0023 0.1088
vn -0.4518 -0.8814 0.1381
vn 0.4748 -0.8756 0.0894
vn -0.4143 -0.8119 -0.4113
vn -0.8687 0.0306 -0.4943
vn -0.4105 0.8133 -0.4124
vn 0.8501 0.4660 0.2451
vn -0.2364 -0.0428 0.9707
vn -0.8392 0.5311 0.1173
vn -0.0019 -0.0010 -1.0000
vn 0.4323 -0.7994 -0.4173
vn 0.9943 0.0080 0.1068
usemtl demonssouls_rodspec
s 1
f 1/1/1 2/2/2 3/3/3
f 4/4/4 1/1/1 5/5/5
f 5/5/5 1/1/1 3/3/3
f 3/3/3 6/6/6 5/5/5
f 5/5/5 6/6/6 7/7/7
f 7/7/7 6/6/6 8/8/8
f 7/7/7 8/8/8 9/9/9
f 10/10/10 9/9/9 8/8/8
f 11/11/11 9/9/9 10/10/10
f 11/11/11 10/10/10 12/12/12
f 13/13/13 11/11/11 12/12/12
f 14/14/14 13/13/13 12/12/12
f 15/15/15 13/13/13 14/14/14
f 16/16/16 15/15/15 14/14/14
f 17/17/17 15/15/15 16/16/16
f 18/18/18 17/17/17 16/16/16
f 17/17/17 18/18/18 19/19/19
f 19/19/19 18/18/18 20/20/20
f 19/19/19 20/20/20 21/21/21
f 5/5/5 7/7/7 22/22/22
f 17/17/17 23/23/23 15/15/15
f 24/24/24 15/15/15 23/23/23
f 13/13/13 15/15/15 24/24/24
f 24/24/24 11/11/11 13/13/13
f 25/25/25 21/21/21 26/26/26
f 21/21/21 25/25/25 19/19/19
f 19/19/19 25/25/25 17/17/17
f 25/25/25 27/27/27 17/17/17
f 27/27/27 23/23/23 17/17/17
f 23/23/23 27/27/27 28/28/28
f 29/29/29 23/23/23 28/28/28
f 24/24/24 23/23/23 29/29/29
f 30/30/30 24/24/24 29/29/29
f 31/31/31 24/24/24 30/30/30
f 31/31/31 11/11/11 24/24/24
f 9/9/9 11/11/11 31/31/31
f 28/28/28 27/27/27 32/32/32
f 27/27/27 33/33/33 32/32/32
f 33/33/33 27/27/27 25/25/25
f 22/22/22 7/7/7 9/9/9
f 22/22/22 9/9/9 31/31/31
f 34/34/34 22/22/22 31/31/31
f 30/30/30 34/34/34 31/31/31
f 35/35/35 34/34/34 30/30/30
f 35/35/35 30/30/30 36/36/36
f 37/37/37 36/36/36 30/30/30
f 29/29/29 37/37/37 30/30/30
f 38/38/38 37/37/37 29/29/29
f 28/28/28 38/38/38 29/29/29
f 39/39/39 38/38/38 28/28/28
f 32/32/32 39/39/39 28/28/28
f 40/40/40 39/39/39 32/32/32
f 32/32/32 33/33/33 40/40/40
f 33/33/33 41/41/41 40/40/40
f 33/33/33 42/42/42 41/41/41
f 42/42/42 33/33/33 26/26/26
f 26/26/26 33/33/33 25/25/25
f 21/21/21 20/20/20 43/43/43
f 26/26/26 21/21/21 43/43/43
f 26/26/26 43/43/43 44/44/44
f 44/44/44 42/42/42 26/26/26
f 45/45/45 42/42/42 44/44/44
f 41/41/41 42/42/42 45/45/45
f 45/45/45 46/46/46 41/41/41
f 41/41/41 46/46/46 47/47/47
f 47/47/47 48/48/48 41/41/41
f 41/41/41 48/48/48 40/40/40
f 48/48/48 49/49/49 40/40/40
f 40/40/40 49/49/49 39/39/39
f 50/50/50 39/39/39 49/49/49
f 38/38/38 39/39/39 50/50/50
f 51/51/51 38/38/38 50/50/50
f 37/37/37 38/38/38 51/51/51
f 52/52/52 37/37/37 51/51/51
f 52/52/52 36/36/53 37/37/37
f 53/53/54 52/52/52 6/54/6
f 8/55/8 6/54/6 52/52/52
f 51/51/51 8/55/8 52/52/52
f 10/56/10 8/55/8 51/51/51
f 50/50/50 10/56/10 51/51/51
f 12/57/12 10/56/10 50/50/50
f 50/50/50 49/49/49 12/57/12
f 12/57/12 49/49/49 14/58/14
f 49/49/49 48/48/48 14/58/14
f 14/58/14 48/48/48 16/59/16
f 54/60/55 55/61/56 53/53/54
f 36/36/53 52/52/52 53/53/54
f 53/53/54 35/35/35 36/36/53
f 55/61/56 35/35/35 53/53/54
f 55/61/56 34/34/34 35/35/35
f 56/62/57 34/34/34 55/61/56
f 34/34/34 56/62/57 22/22/22
f 22/22/22 56/62/57 57/63/58
f 22/22/22 57/63/58 5/5/5
f 5/5/5 57/63/58 4/4/4
f 57/63/58 56/62/57 4/4/4
f 56/62/57 58/64/59 4/4/4
f 55/61/56 58/64/59 56/62/57
f 55/61/56 59/65/60 58/64/59
f 60/66/61 59/65/60 55/61/56
f 54/60/55 60/66/61 55/61/56
f 3/67/3 60/66/61 54/60/55
f 54/60/55 6/54/6 3/67/3
f 53/53/54 6/54/6 54/60/55
f 3/67/3 2/68/2 60/66/61
f 46/69/46 20/20/20 47/70/47
f 47/70/47 20/20/20 18/18/18
f 47/70/47 18/18/18 48/71/48
f 48/71/48 18/18/18 16/16/16
f 44/44/44 43/43/62 61/72/63
f 44/44/44 61/72/63 62/73/64
f 62/73/64 45/45/45 44/44/44
f 46/46/46 45/45/45 62/73/64
f 62/73/64 20/74/20 46/46/46
f 43/75/62 20/74/20 62/73/64
f 62/73/64 61/72/63 43/75/62
f 1/76/1 63/77/65 2/78/2
f 2/78/2 63/77/65 60/79/61
f 63/77/65 59/80/60 60/79/61
f 63/77/65 58/81/59 59/80/60
f 4/82/4 58/81/59 63/77/65
f 1/76/1 4/82/4 63/77/65
usemtl demonssouls_rod
f 64/83/1 65/84/2 66/85/3
f 4/4/66 64/83/1 5/5/5
f 5/5/5 64/83/1 66/85/3
f 66/85/3 6/6/6 5/5/5
f 67/86/5 68/87/6 69/88/7
f 69/88/7 68/87/6 8/8/8
f 69/88/7 8/8/8 9/9/9
f 70/89/10 71/90/9 72/91/8
f 11/11/11 71/90/9 70/89/10
f 11/11/11 70/89/10 12/12/12
f 73/92/13 74/93/11 75/94/12
f 14/14/14 73/92/13 75/94/12
f 15/15/15 73/92/13 14/14/14
f 76/95/16 77/96/15 78/97/14
f 17/17/17 77/96/15 76/95/16
f 18/18/18 17/17/17 76/95/16
f 79/98/17 80/99/18 81/100/19
f 81/100/19 80/99/18 20/20/20
f 81/100/19 20/20/20 21/21/21
f 67/86/5 69/88/7 22/22/22
f 79/98/17 23/23/23 77/96/15
f 24/24/24 77/96/15 23/23/23
f 73/92/13 77/96/15 24/24/24
f 24/24/24 74/93/11 73/92/13
f 82/101/25 83/102/21 84/103/26
f 83/102/21 82/101/25 81/100/19
f 81/100/19 82/101/25 79/98/17
f 82/101/25 27/27/27 79/98/17
f 27/27/27 23/23/23 79/98/17
f 85/104/23 86/105/27 87/106/28
f 29/29/29 85/104/23 87/106/28
f 24/24/24 85/104/23 29/29/29
f 88/107/30 89/108/24 90/109/29
f 31/31/31 89/108/24 88/107/30
f 31/31/31 74/93/11 89/108/24
f 71/90/9 74/93/11 31/31/31
f 87/106/28 86/105/27 32/32/32
f 86/105/27 33/33/33 32/32/32
f 33/33/33 86/105/27 82/101/25
f 22/22/22 69/88/7 71/90/9
f 22/22/22 71/90/9 31/31/31
f 91/110/34 92/111/22 93/112/31
f 88/107/30 91/110/34 93/112/31
f 35/35/35 91/110/34 88/107/30
f 35/35/35 88/107/30 36/36/36
f 37/37/37 36/36/36 88/107/30
f 90/109/29 37/37/37 88/107/30
f 38/38/38 37/37/37 90/109/29
f 87/106/28 38/38/38 90/109/29
f 39/39/39 38/38/38 87/106/28
f 32/32/32 39/39/39 87/106/28
f 94/113/40 95/114/39 96/115/32
f 96/115/32 33/33/33 94/113/40
f 33/33/33 41/41/41 94/113/40
f 97/116/33 98/117/42 99/118/41
f 98/117/42 97/116/33 84/103/26
f 84/103/26 97/116/33 82/101/25
f 83/102/21 20/20/20 43/43/43
f 84/103/26 83/102/21 43/43/43
f 84/103/26 43/43/43 44/44/44
f 44/44/44 98/117/42 84/103/26
f 45/45/45 98/117/42 44/44/44
f 99/118/41 98/117/42 45/45/45
f 45/45/45 46/46/46 99/118/41
f 99/118/41 46/46/46 47/47/47
f 47/47/47 48/48/48 99/118/41
f 99/118/41 48/48/48 94/113/40
f 48/48/48 49/49/49 94/113/40
f 94/113/40 49/49/49 95/114/39
f 50/50/50 95/114/39 49/49/49
f 38/38/38 95/114/39 50/50/50
f 100/119/51 101/120/38 102/121/50
f 37/37/37 101/120/38 100/119/51
f 52/52/52 37/37/37 100/119/51
f 103/122/52 104/123/53 105/124/37
f 53/53/54 103/122/52 68/125/6
f 72/126/8 68/125/6 103/122/52
f 100/119/51 72/126/8 103/122/52
f 70/127/10 72/126/8 100/119/51
f 102/121/50 70/127/10 100/119/51
f 75/128/12 70/127/10 102/121/50
f 102/121/50 49/49/49 75/128/12
f 75/128/12 49/49/49 78/129/14
f 49/49/49 48/48/48 78/129/14
f 78/129/14 48/48/48 76/130/16
f 106/131/55 107/132/56 108/133/54
f 104/123/53 103/122/52 108/133/54
f 108/133/54 35/35/35 104/123/53
f 107/132/56 35/35/35 108/133/54
f 107/132/56 91/110/34 35/35/35
f 56/62/57 91/110/34 107/132/56
f 91/110/34 56/62/57 92/111/22
f 92/111/22 56/62/57 57/63/58
f 92/111/22 57/63/58 67/86/67
f 67/86/67 57/63/58 4/4/4
f 109/134/58 110/135/57 111/136/4
f 110/135/57 58/64/59 111/136/4
f 107/132/56 58/64/59 110/135/57
f 107/132/56 59/65/60 58/64/59
f 60/66/61 59/65/60 107/132/56
f 106/131/55 60/66/61 107/132/56
f 66/137/3 60/66/61 106/131/55
f 106/131/55 68/125/6 66/137/3
f 108/133/54 68/125/6 106/131/55
f 66/137/3 65/138/2 60/66/61
f 112/139/46 113/140/20 114/141/47
f 114/141/47 113/140/20 80/99/18
f 114/141/47 80/99/18 48/71/48
f 48/71/48 80/99/18 76/95/16
f 115/142/44 116/143/62 117/144/63
f 115/142/44 117/144/63 62/73/64
f 62/73/64 45/45/45 115/142/44
f 112/145/46 45/45/45 62/73/64
f 62/73/64 113/146/20 112/145/46
f 116/147/62 113/146/20 62/73/64
f 62/73/64 117/144/63 116/147/62
f 64/148/1 63/77/65 65/149/2
f 65/149/2 63/77/65 60/79/61
f 118/150/65 119/151/60 120/152/61
f 118/150/65 58/81/59 119/151/60
f 111/153/4 58/81/59 118/150/65
f 64/148/1 111/153/4 118/150/65
