# Blender v2.79 (sub 0) OBJ File: ''
# www.blender.org
mtllib cut throwing axe.mtl
o cut_throwing_axe_throwingaxe2
v 1.258200 0.630100 15.868000
v 0.894400 0.000000 16.124399
v 1.622000 0.000000 15.868000
v 8.637900 -0.094800 15.382200
v 8.637900 0.094800 15.382200
v 7.171800 -0.133300 15.102000
v 10.070000 0.000000 15.784900
v -0.365500 0.395600 15.211800
v -0.185100 -0.395500 11.160600
v -0.365500 -0.395500 15.211800
v -0.185100 0.395600 11.160600
v 8.688300 0.000000 11.460300
v 6.965300 0.103800 11.651600
v 9.302100 0.000000 12.796600
v 8.044400 0.000000 10.452800
v -0.178600 0.526600 15.211800
v 0.820900 0.751100 11.493000
v -0.028000 0.526600 11.262300
v 0.892000 0.751100 15.287800
v 1.968600 0.529200 15.249800
v 1.949700 0.529200 11.917700
v 3.274500 0.325500 15.091500
v 3.274500 0.325500 12.686200
v 4.580400 0.249700 15.005800
v 4.580400 0.249600 12.875800
v 5.886300 0.198000 14.993200
v 5.886300 0.198000 12.431700
v 7.171800 0.133300 15.102000
v 9.851200 0.000000 14.485300
v 6.965300 -0.103800 11.651600
v -0.028000 -0.526600 11.262300
v 0.820900 -0.751100 11.493000
v -0.178600 -0.526600 15.211800
v 0.892000 -0.751100 15.287800
v 1.968600 -0.529200 15.249800
v 1.949700 -0.529200 11.917700
v 3.274500 -0.325500 15.091500
v 3.274500 -0.325500 12.686200
v 4.580400 -0.249600 15.005800
v 4.580400 -0.249600 12.875800
v 5.886300 -0.198000 14.993200
v 5.886300 -0.198000 12.431700
v 1.258200 -0.630100 15.868000
v -0.627000 0.000000 -0.099300
v -0.767400 -0.547900 -5.407300
v -0.310800 -0.547900 -0.099800
v -1.083700 0.000000 -5.407300
v -0.310800 0.547800 -0.099800
v -0.767400 0.547800 -5.407300
v 0.321800 0.547800 -0.099800
v -0.134800 0.547800 -5.407300
v 0.638200 0.000000 -0.099300
v 0.181500 0.000000 -5.407300
v 0.321800 -0.547900 -0.099800
v -0.134800 -0.547900 -5.407300
v 0.305400 -0.553000 4.051200
v 0.944000 -0.553000 4.052000
v 1.266000 0.000000 4.066300
v 0.944000 0.553000 4.052000
v 0.305400 0.553000 4.051200
v -0.011400 0.000000 4.064700
v 0.632500 0.566900 8.579200
v 0.305600 0.000000 8.579200
v 1.287000 -0.566900 8.579200
v 1.614700 0.000000 8.579200
v 1.287000 0.566900 8.579200
v 0.632500 -0.566900 8.579200
v 0.530600 0.630100 15.868000
v 0.166800 0.000000 15.868000
v 0.530600 -0.630100 15.868000
v -0.451100 0.000000 -5.711300
v 1.258200 0.630100 15.868000
v 0.894400 0.000000 16.124399
v 1.622000 0.000000 15.868000
v 8.637900 -0.094800 15.382200
v 8.637900 0.094800 15.382200
v 7.171800 -0.133300 15.102000
v -0.365500 0.395600 15.211800
v -0.185100 -0.395500 11.160600
v -0.365500 -0.395500 15.211800
v 8.688300 0.000000 11.460300
v 6.965300 0.103800 11.651600
v 9.302100 0.000000 12.796600
v -0.178600 0.526600 15.211800
v 0.820900 0.751100 11.493000
v -0.028000 0.526600 11.262300
v 1.968600 0.529200 15.249800
v 3.274500 0.325500 15.091500
v 1.949700 0.529200 11.917700
v 4.580400 0.249700 15.005800
v 4.580400 0.249600 12.875800
v 3.274500 0.325500 12.686200
v 5.886300 0.198000 14.993200
v 7.171800 0.133300 15.102000
v 5.886300 0.198000 12.431700
v -0.028000 -0.526600 11.262300
v 0.820900 -0.751100 11.493000
v -0.178600 -0.526600 15.211800
v 1.949700 -0.529200 11.917700
v 3.274500 -0.325500 15.091500
v 1.968600 -0.529200 15.249800
v 4.580400 -0.249600 12.875800
v 4.580400 -0.249600 15.005800
v 3.274500 -0.325500 12.686200
v -0.627000 0.000000 -0.099300
v -0.767400 -0.547900 -5.407300
v -0.310800 -0.547900 -0.099800
v -1.083700 0.000000 -5.407300
v -0.310800 0.547800 -0.099800
v -0.767400 0.547800 -5.407300
v -0.134800 0.547800 -5.407300
v 0.321800 0.547800 -0.099800
v 0.638200 0.000000 -0.099300
v 0.321800 -0.547900 -0.099800
v -0.134800 -0.547900 -5.407300
v 0.181500 0.000000 -5.407300
v -0.011400 0.000000 4.064700
v 0.632500 0.566900 8.579200
v 0.305400 0.553000 4.051200
v 0.944000 -0.553000 4.052000
v 1.266000 0.000000 4.066300
v 1.287000 -0.566900 8.579200
v 0.944000 0.553000 4.052000
v 1.287000 0.566900 8.579200
v 1.614700 0.000000 8.579200
v 0.530600 -0.630100 15.868000
v 0.166800 0.000000 15.868000
v 0.305600 0.000000 8.579200
vt 0.727500 -0.123000
vt 0.770500 -0.104500
vt 0.683600 -0.104500
vt 0.750000 -0.698200
vt 0.775400 -0.698200
vt 0.745100 -0.748000
vt 0.762700 -0.651400
vt 0.661100 -0.778300
vt 0.556600 -0.911100
vt 0.556600 -0.778300
vt 0.661100 -0.911100
vt 0.583000 -0.699200
vt 0.557600 -0.753900
vt 0.408200 -0.679700
vt 0.714800 -0.719700
vt 0.091800 -0.987300
vt 0.579100 -0.956100
vt 0.609400 -0.987300
vt 0.082000 -0.956100
vt 0.086900 -0.919900
vt 0.523400 -0.919900
vt 0.107400 -0.877000
vt 0.422900 -0.877000
vt 0.118200 -0.834000
vt 0.397500 -0.834000
vt 0.120100 -0.791000
vt 0.456100 -0.791000
vt 0.105500 -0.751000
vt 0.069300 -0.701200
vt 0.186500 -0.661100
vt 0.016600 -0.654300
vt 0.557600 -0.753900
vt 0.609400 -0.987300
vt 0.579100 -0.956100
vt 0.091800 -0.987300
vt 0.082000 -0.956100
vt 0.086900 -0.919900
vt 0.523400 -0.919900
vt 0.107400 -0.877000
vt 0.422900 -0.877000
vt 0.118200 -0.834000
vt 0.397500 -0.834000
vt 0.120100 -0.791000
vt 0.456100 -0.791000
vt 0.105500 -0.751000
vt 0.069300 -0.701200
vt 0.736300 -0.788100
vt 0.788100 -0.788100
vt 0.794900 -0.831100
vt 0.780300 -0.748000
vt 0.710900 -0.990200
vt 0.693400 -0.984400
vt 0.814500 -0.990200
vt 0.861300 -0.953100
vt 0.664100 -0.953100
vt 0.693400 -0.917000
vt 0.832000 -0.917000
vt 0.719700 -0.874000
vt 0.804700 -0.874000
vt 0.729500 -0.831100
vt 0.831100 -0.984400
vt 0.727500 -0.085900
vt 0.104500 -0.159200
vt 0.005900 -0.001000
vt 0.005900 -0.159200
vt 0.104500 -0.001000
vt 0.204100 -0.159200
vt 0.204100 -0.001000
vt 0.302700 -0.159200
vt 0.302700 -0.001000
vt 0.402300 -0.159200
vt 0.402300 -0.001000
vt 0.501000 -0.159200
vt 0.501000 -0.001000
vt 0.600600 -0.159200
vt 0.600600 -0.001000
vt 0.600600 -0.284200
vt 0.501000 -0.284200
vt 0.402300 -0.284200
vt 0.302700 -0.284200
vt 0.204100 -0.284200
vt 0.104500 -0.284200
vt 0.204100 -0.418900
vt 0.104500 -0.418900
vt 0.501000 -0.418900
vt 0.402300 -0.418900
vt 0.302700 -0.418900
vt 0.600600 -0.418900
vt 0.501000 -0.635700
vt 0.402300 -0.635700
vt 0.302700 -0.635700
vt 0.204100 -0.635700
vt 0.104500 -0.635700
vt 0.005900 -0.635700
vt 0.005900 -0.418900
vt 0.005900 -0.284200
vt 0.600600 -0.635700
vt 0.982400 -0.635700
vt 0.954100 -0.671900
vt 0.786100 -0.635700
vt 0.815400 -0.671900
vt 0.926800 -0.714800
vt 0.841800 -0.714800
vt 0.917000 -0.757800
vt 0.851600 -0.757800
vt 0.910200 -0.800800
vt 0.858400 -0.800800
vt 0.871100 -0.837900
vt 0.898400 -0.837900
vt 0.884800 -0.873000
vt 0.936500 -0.598600
vt 0.953100 -0.604500
vt 0.832000 -0.598600
vt 0.815400 -0.604500
vt 0.814500 -0.123000
vt 0.814500 -0.085900
vt 0.857400 -0.104500
vt 0.680700 -0.045900
vt 0.756800 -0.045900
vt 0.718800 -0.029300
vt 0.092800 -0.993200
vt 0.718800 -0.062500
vt 0.623000 -0.993200
vt 0.794900 -0.062500
vt 0.623000 -0.993200
vt 0.832000 -0.045900
vt 0.092800 -0.993200
vt 0.794900 -0.029300
vt 0.727500 -0.123000
vt 0.770500 -0.104500
vt 0.683600 -0.104500
vt 0.750000 -0.698200
vt 0.775400 -0.698200
vt 0.745100 -0.748000
vt 0.661100 -0.778300
vt 0.556600 -0.911100
vt 0.556600 -0.778300
vt 0.583000 -0.699200
vt 0.557600 -0.753900
vt 0.408200 -0.679700
vt 0.091800 -0.987300
vt 0.579100 -0.956100
vt 0.609400 -0.987300
vt 0.086900 -0.919900
vt 0.107400 -0.877000
vt 0.523400 -0.919900
vt 0.118200 -0.834000
vt 0.397500 -0.834000
vt 0.422900 -0.877000
vt 0.120100 -0.791000
vt 0.105500 -0.751000
vt 0.456100 -0.791000
vt 0.069300 -0.701200
vt 0.609400 -0.987300
vt 0.579100 -0.956100
vt 0.091800 -0.987300
vt 0.523400 -0.919900
vt 0.107400 -0.877000
vt 0.086900 -0.919900
vt 0.397500 -0.834000
vt 0.118200 -0.834000
vt 0.422900 -0.877000
vt 0.105500 -0.751000
vt 0.069300 -0.701200
vt 0.788100 -0.788100
vt 0.794900 -0.831100
vt 0.780300 -0.748000
vt 0.710900 -0.990200
vt 0.693400 -0.984400
vt 0.814500 -0.990200
vt 0.693400 -0.917000
vt 0.832000 -0.917000
vt 0.719700 -0.874000
vt 0.804700 -0.874000
vt 0.729500 -0.831100
vt 0.831100 -0.984400
vt 0.104500 -0.159200
vt 0.005900 -0.001000
vt 0.005900 -0.159200
vt 0.104500 -0.001000
vt 0.204100 -0.159200
vt 0.204100 -0.001000
vt 0.302700 -0.001000
vt 0.302700 -0.159200
vt 0.402300 -0.159200
vt 0.501000 -0.159200
vt 0.501000 -0.001000
vt 0.402300 -0.001000
vt 0.600600 -0.159200
vt 0.600600 -0.001000
vt 0.104500 -0.284200
vt 0.204100 -0.418900
vt 0.204100 -0.284200
vt 0.501000 -0.284200
vt 0.402300 -0.284200
vt 0.501000 -0.418900
vt 0.302700 -0.284200
vt 0.302700 -0.418900
vt 0.402300 -0.418900
vt 0.402300 -0.635700
vt 0.302700 -0.635700
vt 0.005900 -0.635700
vt 0.104500 -0.635700
vt 0.104500 -0.418900
vt 0.600600 -0.635700
vt 0.982400 -0.635700
vt 0.954100 -0.671900
vt 0.786100 -0.635700
vt 0.815400 -0.671900
vt 0.926800 -0.714800
vt 0.841800 -0.714800
vt 0.917000 -0.757800
vt 0.851600 -0.757800
vt 0.910200 -0.800800
vt 0.898400 -0.837900
vt 0.953100 -0.604500
vt 0.832000 -0.598600
vt 0.815400 -0.604500
vt 0.814500 -0.085900
vt 0.857400 -0.104500
vt 0.680700 -0.045900
vt 0.718800 -0.029300
vt 0.092800 -0.993200
vt 0.718800 -0.062500
vt 0.794900 -0.062500
vt 0.623000 -0.993200
vt 0.832000 -0.045900
vt 0.092800 -0.993200
vt 0.794900 -0.029300
vn 0.3264 0.1885 0.9263
vn -0.2282 0.0000 0.9736
vn -0.2307 0.0000 0.9730
vn -0.1877 0.0000 0.9822
vn -0.2707 0.0000 0.9627
vn -0.9990 0.0000 -0.0445
vn 0.0568 0.9979 -0.0298
vn 0.0595 0.9980 -0.0219
vn 0.0572 0.9981 -0.0229
vn 0.0561 0.9978 -0.0359
vn -0.2124 0.9772 0.0019
vn -0.0739 0.9973 -0.0054
vn -0.2532 0.9674 -0.0097
vn 0.0030 1.0000 -0.0001
vn 0.1782 0.9840 -0.0021
vn 0.1791 0.9838 -0.0008
vn 0.1086 0.9941 -0.0004
vn 0.1140 0.9935 -0.0000
vn 0.0490 0.9988 0.0000
vn 0.0483 0.9988 -0.0000
vn 0.0450 0.9990 0.0000
vn 0.0602 0.9982 -0.0067
vn 0.0412 0.9991 -0.0073
vn 0.0528 0.9985 -0.0153
vn 0.0652 0.9977 -0.0172
vn 0.0693 0.9975 -0.0117
vn 0.0595 -0.9980 -0.0219
vn 0.0568 -0.9979 -0.0298
vn 0.0572 -0.9981 -0.0229
vn 0.0561 -0.9978 -0.0359
vn -0.2532 -0.9674 -0.0097
vn -0.0739 -0.9973 -0.0054
vn -0.2124 -0.9772 0.0019
vn 0.0030 -1.0000 -0.0001
vn 0.1782 -0.9840 -0.0021
vn 0.1791 -0.9838 -0.0008
vn 0.1087 -0.9941 -0.0004
vn 0.1140 -0.9935 -0.0000
vn 0.0580 -0.9983 0.0000
vn 0.0581 -0.9983 0.0000
vn 0.0450 -0.9990 0.0000
vn 0.0602 -0.9982 -0.0067
vn 0.0412 -0.9991 -0.0073
vn 0.0528 -0.9985 -0.0153
vn 0.0652 -0.9977 -0.0172
vn 0.0693 -0.9975 -0.0117
vn -0.0422 0.0000 0.9991
vn -0.0360 0.0000 0.9994
vn 0.0414 -0.0000 0.9991
vn -0.1328 0.0000 0.9911
vn -0.1350 0.0000 0.9908
vn 0.0000 0.0000 1.0000
vn -0.0467 -0.0038 0.9989
vn -0.0586 0.0135 0.9982
vn -0.0155 0.0011 0.9999
vn -0.0177 0.0000 0.9998
vn 0.0731 -0.0000 0.9973
vn 0.0947 0.0000 0.9955
vn 0.0384 0.0000 0.9993
vn 0.0096 0.0000 1.0000
vn -0.0998 0.1423 0.9848
vn 0.3264 -0.1885 0.9263
vn -0.9934 0.0000 0.1149
vn -0.5194 -0.8533 0.0447
vn -0.5052 -0.8610 0.0593
vn -0.9963 0.0000 0.0857
vn -0.5052 0.8610 0.0592
vn -0.5194 0.8534 0.0447
vn 0.4904 0.8696 -0.0578
vn 0.4785 0.8771 -0.0412
vn 0.9929 0.0000 -0.1186
vn 0.9963 -0.0000 -0.0857
vn 0.4904 -0.8696 -0.0578
vn 0.4786 -0.8771 -0.0412
vn -0.4899 -0.8703 0.0517
vn 0.5060 -0.8605 -0.0598
vn 0.9938 -0.0000 -0.1114
vn 0.5060 0.8605 -0.0598
vn -0.4899 0.8703 0.0517
vn -0.9940 0.0000 0.1091
vn -0.4901 0.8716 0.0088
vn -0.9997 -0.0000 0.0260
vn 0.5092 -0.8603 -0.0234
vn 0.9993 0.0000 -0.0387
vn 0.5093 0.8603 -0.0235
vn 0.0000 -1.0000 -0.0057
vn 0.4979 -0.8672 -0.0056
vn 1.0000 -0.0000 -0.0010
vn 0.4978 0.8673 -0.0055
vn -0.5021 0.8647 -0.0145
vn -0.9998 0.0000 -0.0190
vn -0.5021 -0.8647 -0.0143
vn -0.8661 -0.4994 0.0218
vn -0.5021 -0.8647 -0.0145
vn 0.3521 0.0000 -0.9359
vn 0.4210 0.0000 -0.9070
vn 0.3394 0.0000 -0.9406
vn -0.0845 0.0000 -0.9964
vn -0.4544 -0.0000 -0.8908
vn -0.6649 0.0000 -0.7469
vn -0.7432 0.0000 -0.6690
vn 0.5434 0.0000 -0.8395
vn 0.3614 0.0139 -0.9323
vn 0.3179 -0.0542 -0.9466
vn 0.2858 -0.0140 -0.9582
vn 0.2623 0.0000 -0.9650
vn 0.0812 -0.5484 -0.8323
vn 0.0000 0.3769 0.9263
vn 0.0000 -0.3769 0.9263
vn -0.3264 0.1885 0.9263
vn -0.3264 -0.1885 0.9263
vn -0.4202 -0.2426 -0.8744
vn -0.5738 0.8187 -0.0219
vn -0.4202 0.2426 -0.8744
vn -0.6294 0.7766 -0.0280
vn 0.0000 0.4852 -0.8744
vn -0.6313 -0.7752 -0.0241
vn 0.4202 0.2426 -0.8744
vn -0.5741 -0.8184 -0.0256
vn 0.4202 -0.2426 -0.8744
vn 0.0000 -0.4852 -0.8744
vn 0.0484 0.9988 -0.0000
vn 0.0948 -0.0000 0.9955
vn 0.0385 0.0000 0.9993
vn -0.5194 -0.8534 0.0447
vn 0.4210 -0.0000 -0.9071
usemtl demonssouls_throwingaxespec
s 1
f 1/1/1 2/2/1 3/3/1
f 4/4/2 5/5/3 6/6/4
f 4/4/2 7/7/5 5/5/3
f 8/8/6 9/9/6 10/10/6
f 8/8/6 11/11/6 9/9/6
f 12/12/7 13/13/8 14/14/9
f 12/12/7 15/15/10 13/13/8
f 16/16/11 17/17/12 18/18/13
f 19/19/14 17/17/12 16/16/11
f 19/19/14 20/20/15 17/17/12
f 20/20/15 21/21/16 17/17/12
f 20/20/15 22/22/17 21/21/16
f 22/22/17 23/23/18 21/21/16
f 22/22/17 24/24/19 23/23/18
f 24/24/19 25/25/20 23/23/18
f 24/24/19 26/26/21 25/25/20
f 26/26/21 27/27/22 25/25/20
f 26/26/21 28/28/23 27/27/22
f 28/28/23 13/13/8 27/27/22
f 28/28/23 5/29/24 13/13/8
f 14/14/9 13/13/8 5/29/24
f 14/14/9 5/29/24 29/30/25
f 7/31/26 29/30/25 5/29/24
f 30/32/27 12/12/28 14/14/29
f 30/32/27 15/15/30 12/12/28
f 31/33/31 32/34/32 33/35/33
f 32/34/32 34/36/34 33/35/33
f 32/34/32 35/37/35 34/36/34
f 36/38/36 35/37/35 32/34/32
f 36/38/36 37/39/37 35/37/35
f 38/40/38 37/39/37 36/38/36
f 38/40/38 39/41/39 37/39/37
f 40/42/40 39/41/39 38/40/38
f 40/42/40 41/43/41 39/41/39
f 42/44/42 41/43/41 40/42/40
f 42/44/42 6/45/43 41/43/41
f 30/32/27 6/45/43 42/44/42
f 30/32/27 4/46/44 6/45/43
f 4/46/44 30/32/27 14/14/29
f 4/46/44 14/14/29 29/30/45
f 7/31/46 4/46/44 29/30/45
f 41/47/47 26/48/48 24/49/49
f 41/47/47 6/6/50 26/48/48
f 6/6/50 28/50/51 26/48/48
f 6/6/50 5/5/4 28/50/51
f 10/51/52 33/52/53 8/53/54
f 8/53/54 33/52/53 19/54/55
f 34/55/56 19/54/55 33/52/53
f 34/55/56 35/56/57 19/54/55
f 35/56/57 20/57/57 19/54/55
f 35/56/57 37/58/58 20/57/57
f 37/58/58 22/59/58 20/57/57
f 37/58/58 39/60/59 22/59/58
f 39/60/59 24/49/49 22/59/58
f 39/60/59 41/47/60 24/49/49
f 8/53/54 19/54/55 16/61/61
f 3/3/62 2/2/62 43/62/62
f 44/63/63 45/64/64 46/65/65
f 44/63/63 47/66/66 45/64/64
f 47/66/66 44/63/63 48/67/67
f 47/66/66 48/67/67 49/68/68
f 50/69/69 49/68/68 48/67/67
f 50/69/69 51/70/70 49/68/68
f 51/70/70 50/69/69 52/71/71
f 51/70/70 52/71/71 53/72/72
f 54/73/73 53/72/72 52/71/71
f 54/73/73 55/74/74 53/72/72
f 55/74/74 54/73/73 46/75/65
f 55/74/74 46/75/65 45/76/64
f 54/73/73 56/77/75 46/75/65
f 57/78/76 54/73/73 52/71/71
f 57/78/76 52/71/71 58/79/77
f 50/69/69 58/79/77 52/71/71
f 50/69/69 59/80/78 58/79/77
f 59/80/78 50/69/69 48/67/67
f 59/80/78 48/67/67 60/81/79
f 44/63/63 60/81/79 48/67/67
f 44/63/63 61/82/80 60/81/79
f 61/82/80 62/83/81 60/81/79
f 61/82/80 63/84/82 62/83/81
f 57/78/76 58/79/77 64/85/83
f 64/85/83 58/79/77 65/86/84
f 59/80/78 65/86/84 58/79/77
f 59/80/78 66/87/85 65/86/84
f 59/80/78 60/81/79 66/87/85
f 66/87/85 60/81/79 62/83/81
f 54/73/73 57/78/76 56/77/75
f 57/78/76 67/88/86 56/77/75
f 57/78/76 64/85/83 67/88/86
f 43/89/87 67/88/86 64/85/83
f 3/90/88 43/89/87 64/85/83
f 64/85/83 65/86/84 3/90/88
f 1/91/89 3/90/88 65/86/84
f 1/91/89 65/86/84 66/87/85
f 68/92/90 1/91/89 66/87/85
f 66/87/85 62/83/81 68/92/90
f 69/93/91 68/92/90 62/83/81
f 69/93/91 62/83/81 63/84/82
f 70/94/92 69/93/91 63/84/82
f 70/94/92 63/84/82 67/95/93
f 56/96/75 67/95/93 63/84/82
f 56/96/75 63/84/82 61/82/80
f 61/82/80 46/65/65 56/96/75
f 61/82/80 44/63/63 46/65/65
f 43/89/87 70/97/94 67/88/86
f 17/98/95 21/99/96 32/100/95
f 21/99/96 36/101/96 32/100/95
f 21/99/96 23/102/97 36/101/96
f 23/102/97 38/103/97 36/101/96
f 23/102/97 25/104/98 38/103/97
f 25/104/98 40/105/98 38/103/97
f 25/104/98 27/106/99 40/105/98
f 27/106/99 42/107/99 40/105/98
f 27/106/99 30/108/100 42/107/99
f 13/109/100 30/108/100 27/106/99
f 13/109/100 15/110/101 30/108/100
f 11/111/102 18/112/103 9/113/104
f 9/113/104 18/112/103 32/100/105
f 17/98/106 32/100/105 18/112/103
f 9/113/104 32/100/105 31/114/107
f 68/115/108 2/2/108 1/1/108
f 43/62/109 2/2/109 70/116/109
f 69/117/110 2/2/110 68/115/110
f 70/116/111 2/2/111 69/117/111
f 47/118/112 71/119/112 45/120/112
f 18/18/113 8/121/113 16/16/113
f 49/122/114 71/119/114 47/118/114
f 8/121/115 18/18/115 11/123/115
f 51/124/116 71/119/116 49/122/116
f 33/35/117 9/125/117 31/33/117
f 53/126/118 71/119/118 51/124/118
f 9/125/119 33/35/119 10/127/119
f 55/128/120 71/119/120 53/126/120
f 45/120/121 71/119/121 55/128/121
usemtl demonssouls_throwingaxe
f 72/129/1 73/130/1 74/131/1
f 75/132/2 76/133/3 77/134/4
f 75/132/2 7/7/5 76/133/3
f 78/135/6 79/136/6 80/137/6
f 78/135/6 11/11/6 79/136/6
f 81/138/7 82/139/8 83/140/9
f 81/138/7 15/15/10 82/139/8
f 84/141/11 85/142/12 86/143/13
f 19/19/14 85/142/12 84/141/11
f 19/19/14 20/20/15 85/142/12
f 20/20/15 21/21/16 85/142/12
f 87/144/15 88/145/17 89/146/16
f 88/145/17 23/23/18 89/146/16
f 88/145/17 24/24/19 23/23/18
f 90/147/19 91/148/122 92/149/18
f 90/147/19 26/26/21 91/148/122
f 26/26/21 27/27/22 91/148/20
f 93/150/21 94/151/23 95/152/22
f 94/151/23 82/139/8 95/152/22
f 94/151/23 76/153/24 82/139/8
f 83/140/9 82/139/8 76/153/24
f 83/140/9 76/153/24 29/30/25
f 7/31/26 29/30/25 76/153/24
f 30/32/27 81/138/28 83/140/29
f 30/32/27 15/15/30 81/138/28
f 96/154/31 97/155/32 98/156/33
f 97/155/32 34/36/34 98/156/33
f 97/155/32 35/37/35 34/36/34
f 36/38/36 35/37/35 97/155/32
f 99/157/36 100/158/37 101/159/35
f 38/40/38 100/158/37 99/157/36
f 38/40/38 39/41/39 100/158/37
f 102/160/40 103/161/39 104/162/38
f 102/160/40 41/43/41 103/161/39
f 42/44/42 41/43/41 102/160/40
f 42/44/42 77/163/43 41/43/41
f 30/32/27 77/163/43 42/44/42
f 30/32/27 75/164/44 77/163/43
f 75/164/44 30/32/27 83/140/29
f 75/164/44 83/140/29 29/30/45
f 7/31/46 75/164/44 29/30/45
f 41/47/47 93/165/48 90/166/49
f 41/47/47 77/134/50 93/165/48
f 77/134/50 94/167/51 93/165/48
f 77/134/50 76/133/4 94/167/51
f 80/168/52 98/169/53 78/170/54
f 78/170/54 98/169/53 19/54/55
f 34/55/56 19/54/55 98/169/53
f 34/55/56 101/171/57 19/54/55
f 101/171/57 87/172/57 19/54/55
f 101/171/57 100/173/58 87/172/57
f 100/173/58 88/174/123 87/172/57
f 100/173/58 103/175/59 88/174/123
f 103/175/124 90/166/49 88/174/58
f 103/175/124 41/47/60 90/166/49
f 78/170/54 19/54/55 84/176/61
f 74/131/62 73/130/62 43/62/62
f 105/177/63 106/178/64 107/179/65
f 105/177/63 47/66/66 106/178/125
f 47/66/66 105/177/63 48/67/67
f 108/180/66 109/181/67 110/182/68
f 50/69/69 110/182/68 109/181/67
f 50/69/69 51/70/70 110/182/68
f 111/183/70 112/184/69 113/185/71
f 111/183/70 113/185/71 53/72/72
f 54/73/73 53/72/72 113/185/71
f 114/186/73 115/187/74 116/188/72
f 115/187/74 114/186/73 107/189/65
f 115/187/74 107/189/65 106/190/64
f 114/186/73 56/77/75 107/189/65
f 57/78/76 114/186/73 113/185/71
f 57/78/76 113/185/71 58/79/77
f 112/184/69 58/79/77 113/185/71
f 112/184/69 59/80/78 58/79/77
f 59/80/78 112/184/69 109/181/67
f 59/80/78 109/181/67 60/81/79
f 105/177/63 60/81/79 109/181/67
f 105/177/63 61/82/80 60/81/79
f 117/191/80 118/192/81 119/193/79
f 117/191/80 63/84/82 118/192/81
f 120/194/76 121/195/77 122/196/83
f 122/196/83 121/195/77 65/86/84
f 59/80/78 65/86/84 121/195/77
f 123/197/78 124/198/85 125/199/84
f 123/197/78 119/193/79 124/198/85
f 124/198/85 119/193/79 118/192/81
f 114/186/73 120/194/76 56/77/75
f 120/194/76 67/88/86 56/77/75
f 120/194/76 122/196/83 67/88/86
f 43/89/87 67/88/86 122/196/83
f 74/200/88 43/89/87 122/196/83
f 122/196/83 125/199/84 74/200/88
f 72/201/89 74/200/88 125/199/84
f 72/201/89 125/199/84 124/198/85
f 68/92/90 72/201/89 124/198/85
f 124/198/85 118/192/81 68/92/90
f 69/93/91 68/92/90 118/192/81
f 69/93/91 118/192/81 63/84/82
f 126/202/92 127/203/91 128/204/82
f 126/202/92 128/204/82 67/95/93
f 56/96/75 67/95/93 128/204/82
f 56/96/75 128/204/82 117/191/80
f 117/191/80 107/179/65 56/96/75
f 117/191/80 105/177/63 107/179/65
f 43/89/87 126/205/94 67/88/86
f 85/206/95 89/207/96 97/208/95
f 89/207/126 99/209/96 97/208/95
f 89/207/126 92/210/97 99/209/96
f 92/210/97 104/211/97 99/209/126
f 92/210/97 91/212/98 104/211/97
f 91/212/98 102/213/98 104/211/97
f 91/212/98 95/214/99 102/213/98
f 95/214/99 42/107/99 102/213/98
f 95/214/99 30/108/100 42/107/99
f 82/215/100 30/108/100 95/214/99
f 82/215/100 15/110/101 30/108/100
f 11/111/102 86/216/103 79/217/104
f 79/217/104 86/216/103 97/208/105
f 85/206/106 97/208/105 86/216/103
f 79/217/104 97/208/105 96/218/107
f 68/115/108 73/130/108 72/129/108
f 43/62/109 73/130/109 126/219/109
f 127/220/110 73/130/110 68/115/110
f 126/219/111 73/130/111 127/220/111
f 108/221/112 71/119/112 106/222/112
f 86/143/113 78/223/113 84/141/113
f 110/224/114 71/119/114 108/221/114
f 78/223/115 86/143/115 11/123/115
f 111/225/116 71/119/116 110/224/116
f 98/156/117 79/226/117 96/154/117
f 116/227/118 71/119/118 111/225/118
f 79/226/119 98/156/119 80/228/119
f 115/229/120 71/119/120 116/227/120
f 106/222/121 71/119/121 115/229/121
